<svg id="Capa_1" enable-background="new 0 0 512 512" height="512" viewBox="0 0 512 512" width="512" xmlns="http://www.w3.org/2000/svg"><g><path d="m331 256h30v30h-30z"/><path d="m181 256h30v30h-30z"/><path d="m421 226h30v30h-30z"/><path d="m361 196h30v30h-30z"/><path d="m181 166h30v30h-30z"/><path d="m319.541 106h-123.541c-22.823 0-43.296 10.245-57.063 26.381-17.734-33.488-53.187-56.381-93.937-56.381h-45v135c0 36.857 27.121 66.747 61 73.516v121.484h300v30h90v-30h61v-240h-72.459zm-228.541 270v-90h30.828c4.025 36.241 22.461 68.194 49.424 90zm330 30h-30v-60h30zm61-30h-31v-30h31zm0-60c-36.122 0-129.894 0-166 0v30h45v30h-105c-57.897 0-105-47.103-105-105v-15h-75c-24.935 0-46-20.608-46-45v-105h15c41.907 0 76 33.645 76 75 0 8.271-6.729 15-15 15s-15-6.729-15-15h-30c0 24.813 20.187 45 45 45s45-20.187 45-45 20.187-45 45-45h116.459l120 60h49.541z"/><path d="m286 166c-24.813 0-45 20.187-45 45s20.187 45 45 45 45-20.187 45-45-20.187-45-45-45zm0 60c-8.271 0-15-6.729-15-15s6.729-15 15-15 15 6.729 15 15-6.729 15-15 15z"/></g></svg>