<svg id="Layer_1" enable-background="new 0 0 512 512" height="512" viewBox="0 0 512 512" width="512" xmlns="http://www.w3.org/2000/svg"><g><path d="m256 .836c-141.159 0-256 114.841-256 256 12.87 339.152 499.181 339.06 512-.003 0-141.156-114.841-255.997-256-255.997zm187 382.776-11.552-44.285c17.704-5.23 33.796-16.519 44.786-31.656-6.362 27.573-17.788 53.229-33.234 75.941zm-44.614-52.171 13.482 51.681-70.585 18.414-10.096-38.703c72.598-49.998 72.567-162.022 0-211.993l10.097-38.703 70.585 18.413-13.482 51.682c-1.116 4.279-.288 8.833 2.265 12.444s6.569 5.912 10.976 6.288c67.809 7.787 67.79 103.968 0 111.746-4.406.375-8.422 2.676-10.975 6.288-2.554 3.61-3.383 8.163-2.267 12.443zm-287.048-12.445c-2.548-3.61-6.558-5.913-10.96-6.294-67.709-7.88-67.679-103.867 0-111.732 4.402-.381 8.413-2.684 10.96-6.294 2.548-3.61 3.375-8.16 2.259-12.436l-13.484-51.691 70.585-18.413 10.099 38.715c-72.577 49.999-72.545 161.999 0 211.97l-10.099 38.714-70.585-18.414 13.484-51.69c1.115-4.275.289-8.825-2.259-12.435zm-42.351 64.596c-15.47-22.752-26.903-48.458-33.256-76.084 1.934 2.651 4.009 5.215 6.258 7.655 10.574 11.471 23.887 19.743 38.552 24.136zm0-253.513 11.555 44.294c-17.731 5.26-33.838 16.601-44.811 31.791 6.352-27.626 17.785-53.333 33.256-76.085zm218.862.71c-20.239-5.244-43.46-5.244-63.699 0l31.85-75.403zm-31.849 226.047c-55.14 0-100-44.86-100-100 5.027-132.481 194.993-132.445 200 .001 0 55.139-44.86 99.999-100 99.999zm-48.061 20.788c29.407 12.189 66.695 12.192 96.104.007l7.619 29.207c-35.408 13.321-75.894 13.314-111.341-.012zm235.061-247.565c15.447 22.712 26.872 48.369 33.234 75.942-1.912-2.608-3.961-5.131-6.179-7.534-10.592-11.475-23.924-19.742-38.607-24.122zm-22.795-28.339-85.864-22.399c-8.013-2.089-16.209 2.711-18.3 10.728l-4.9 18.783-32.466-76.863c55.524 5.557 105.185 31.297 141.53 69.751zm-186.88-69.751-32.478 76.89-4.907-18.81c-2.091-8.017-10.286-12.818-18.3-10.728l-85.839 22.392c36.345-38.45 86.003-64.187 141.524-69.744zm22.675 450.867c-64.612 0-122.972-27.262-164.2-70.878l85.839 22.393c3.061.81 6.318.598 9.213-.542 43.89 17.35 94.447 17.357 138.284.004 2.893 1.137 6.146 1.348 9.204.539l85.864-22.399c-41.226 43.618-99.588 70.883-164.204 70.883z"/><path d="m288.041 283.835h-64.083c-19.881.738-19.866 29.269 0 30h64.083c19.881-.738 19.866-29.269 0-30z"/><path d="m303.036 203.835h-16.996c-8.284 0-15 6.716-15 15v12h-30.08v-12c0-8.284-6.716-15-15-15h-16.997c-19.881.738-19.866 29.269 0 30h1.997v12c0 8.284 6.716 15 15 15h60.08c8.284 0 15-6.716 15-15v-12h1.997c19.88-.738 19.865-29.269-.001-30z"/></g></svg>