<svg id="Layer_1" enable-background="new 0 0 512 512" height="512" viewBox="0 0 512 512" width="512" xmlns="http://www.w3.org/2000/svg"><path d="m497 314.638h-16v-79c0-8.284-6.716-15-15-15h-23v-79c0-8.284-6.716-15-15-15h-21v-79c0-8.284-6.716-15-15-15h-272c-8.284 0-15 6.716-15 15v79h-21c-8.284 0-15 6.716-15 15v79h-23c-8.284 0-15 6.716-15 15v79h-16c-8.284 0-15 6.716-15 15v94c0 8.284 6.716 15 15 15h125.871l-1.83 24.609c-.811 8.439 6.484 16.295 14.958 16.112h204c8.476.183 15.77-7.674 14.958-16.113l-1.831-24.608h125.874c8.284 0 15-6.716 15-15v-94c0-8.285-6.716-15-15-15zm-46 0h-89.099l-4.762-64h93.861zm-262.408-113.2h134.803l2.932 39.399h-140.665zm5.161-69.4h124.478l2.932 39.4h-130.34zm2.23-30 2.93-39.4h114.154l2.932 39.4zm-12.551 168.799h145.127l2.932 39.4h-150.989zm-5.161 69.401h155.452l2.932 39.399h-161.314zm234.729-119.6h-58.094l-4.762-64h62.856zm-36-94h-29.088l-4.762-64h33.85zm-242-64h33.831l-4.759 64h-29.072zm-36 94h62.841l-4.759 64h-58.082zm-38 94h93.851l-4.759 64h-89.092zm-31 158v-64h117.861l-4.759 64zm140.157 40.721 2.954-39.722h165.776l2.956 39.722zm311.843-40.721h-113.105l-4.762-64h117.867z"/></svg>