<svg id="Capa_1" enable-background="new 0 0 512.079 512.079" height="512" viewBox="0 0 512.079 512.079" width="512" xmlns="http://www.w3.org/2000/svg"><g><path d="m145.989 217.597-25.265 75.794-25.264-25.264-63.64 63.64 31.82 31.82-63.64 63.639 84.853 84.853 63.64-63.64 31.82 31.82 63.64-63.639-25.264-25.265 75.793-25.265 217.598-217.597v-148.493h-148.494zm22.249 28.123 35.841 14.842v26.225l-44.979 44.979-14.658-14.658zm-83.385 223.932-42.426-42.427 42.426-42.426 42.427 42.426zm95.46-31.82-106.066-106.066 21.213-21.213 106.065 106.066zm14.658-70.194-14.658-14.658 44.979-44.98h26.224l14.842 35.841zm39.108-89.638v-21.237l166.786-166.763h21.214v21.214l-166.763 166.786zm57.568 48.497-12.417-29.985 161.366-161.388 30.001 12.424zm190.432-206.665-30.004-12.425v-26.19l30.004-30.004zm-21.213-89.832-30.004 30.004h-26.19l-12.426-30.004zm-83.911 41.483-161.388 161.366-29.985-12.417 178.95-178.95z"/></g></svg>