<svg id="Capa_1" enable-background="new 0 0 511.989 511.989" height="512" viewBox="0 0 511.989 511.989" width="512" xmlns="http://www.w3.org/2000/svg"><g><path d="m97.799 498.799c14.277-14.277 11.12-32.679 8.334-48.915-3.107-18.11-6.045-35.285 9.239-53.21l16.204-16.122c16.918 8.075 37.534 4.936 51.238-8.768l137.71-137.71c2.142 4.497 5.064 8.713 8.782 12.431 17.544 17.545 46.094 17.546 63.64 0s17.546-46.094 0-63.64c-3.718-3.718-7.934-6.64-12.431-8.782 8.876-8.877 15.931-15.931 24.843-24.843 2.177 4.547 5.131 8.742 8.802 12.412 17.544 17.544 46.093 17.546 63.639 0 17.586-17.585 17.59-46.051 0-63.64-3.718-3.718-7.934-6.64-12.431-8.782l12.428-12.429c.001-.001.002-.002.002-.002 17.546-17.546 17.546-46.094 0-63.64-17.545-17.545-46.094-17.545-63.639 0l-12.431 12.431c-2.142-4.497-5.064-8.713-8.782-12.432-17.546-17.546-46.096-17.545-63.64 0-17.546 17.546-17.546 46.094 0 63.64 3.718 3.718 7.934 6.64 12.431 8.782-8.895 8.895-15.949 15.949-24.843 24.843-2.177-4.547-5.131-8.742-8.802-12.412-17.544-17.545-46.094-17.546-63.64 0-17.586 17.585-17.589 46.051 0 63.64 3.718 3.718 7.934 6.64 12.431 8.782-15.518 15.518-120.661 120.661-137.711 137.71-13.819 13.819-16.745 34.46-8.796 51.178-.119.117-76.207 75.825-76.219 75.837-17.545 17.545-17.545 46.094 0 63.639 17.588 17.588 46.054 17.59 63.642.002zm337.573-464.427c5.848-5.847 15.363-5.849 21.213 0 5.863 5.863 5.863 15.351 0 21.213-5.849 5.849-15.364 5.848-21.213 0-5.862-5.862-5.862-15.35 0-21.213zm0 84.853c5.848-5.847 15.364-5.849 21.213 0 5.863 5.863 5.863 15.35 0 21.213-5.848 5.848-15.365 5.848-21.213 0-5.862-5.862-5.862-15.35 0-21.213zm-29.995-54.857c2.142 4.497 5.064 8.713 8.782 12.431s7.934 6.64 12.431 8.782l-24.843 24.843c-2.177-4.547-5.131-8.742-8.802-12.412-3.718-3.718-7.934-6.64-12.431-8.782zm-33.644 160.923c-5.848 5.848-15.364 5.849-21.214 0-5.848-5.847-5.848-15.362-.002-21.21 5.849-5.846 15.368-5.851 21.216-.003 5.862 5.863 5.862 15.351 0 21.213zm-21.214-190.919c5.848-5.848 15.364-5.85 21.214 0 5.862 5.863 5.863 15.351 0 21.213-5.848 5.848-15.364 5.849-21.214 0-5.862-5.862-5.863-15.35 0-21.213zm-.005 84.859.01-.01c5.849-5.842 15.359-5.844 21.208.005 5.862 5.862 5.863 15.35 0 21.213-5.849 5.848-15.364 5.85-21.214 0-5.858-5.86-5.864-15.342-.004-21.208zm-84.848-.006c5.849-5.849 15.364-5.849 21.214 0 5.861 5.862 5.863 15.348.001 21.211-5.85 5.848-15.368 5.849-21.215.002-5.861-5.861-5.862-15.35 0-21.213zm54.839 30.015c2.177 4.547 5.131 8.742 8.801 12.412 3.718 3.718 7.934 6.64 12.431 8.782-22.262 22.262-79.726 79.726-105.89 105.89l-21.214-21.213c26.341-26.341 83.759-83.758 105.872-105.871zm-180.118 180.117 53.033-53.033 21.213 21.213-53.033 53.033c-5.849 5.849-15.365 5.849-21.214 0s-5.847-15.364.001-21.213zm-85.016 127.017 18.756-18.662c.558 6.271 1.552 12.083 2.437 17.246 2.057 11.986 3.158 19.491.021 22.628-5.849 5.849-15.365 5.849-21.213 0-5.848-5.848-5.848-15.364-.001-21.212z"/></g></svg>