<svg id="Layer_1" enable-background="new 0 0 512.019 512.019" height="512" viewBox="0 0 512.019 512.019" width="512" xmlns="http://www.w3.org/2000/svg"><path d="m439.201 183.061c0-100.929-82.112-183.042-183.041-183.042-118.12-1.743-208.594 116.341-176.98 229.795-.032.399-.061 237.205-.061 237.205 0 4.753 2.253 9.226 6.073 12.055l40.511 30c5.303 3.927 12.551 3.927 17.854 0l31.583-23.388 31.583 23.388c5.303 3.927 12.551 3.927 17.854 0l31.585-23.389 31.583 23.389c5.303 3.927 12.55 3.927 17.854 0l31.584-23.389 31.583 23.389c5.303 3.927 12.551 3.927 17.854 0l40.511-30c3.82-2.829 6.073-7.301 6.073-12.055 0 0-.056-236.293-.137-236.924 3.993-15.015 6.134-30.779 6.134-47.034zm-30 0c0 55.027-29.197 103.356-72.907 130.331-.466-.72-31.522-34.372-31.522-34.372h15.427c8.284 0 15-6.716 15-15l.002-211.964c44.318 26.838 74 75.519 74 131.005zm-219.06 170.717c16.043 6.225 33.172 10.251 51.019 11.706v39.536h-51.019zm81.018 11.706c17.848-1.455 34.977-5.481 51.021-11.706v51.242h-51.021zm34.042-327.407-.002 210.943h-77.998v-50h15.001c8.284 0 15-6.716 15-15s-6.716-15-15-15h-30.001c-8.284 0-15 6.716-15 15v80c0 8.284 6.716 15 15 15h51.671s44.417 47.934 44.417 47.935c-.179-.194-3.94 1.371-4.386 1.518-45.553 15.125-97.628 7.247-136.56-20.852-.047-.034-.095-.068-.141-.107v-168.495h75.001c5.357 0 10.308-2.857 12.988-7.496 2.681-4.639 2.683-10.354.007-14.996l-45.676-79.233c29.941-9.913 65.963-9.607 95.679.783zm-123.372 11.248 34.413 59.694h-64.04c-8.284 0-15 6.716-15 15v155.207c-60.254-71.585-36.693-186.677 44.627-229.901zm-21.692 289.502v66.193h-51.019v-113.076c13.861 18.669 31.188 34.613 51.019 46.883zm-25.507 139.527-25.511-18.892v-24.442h51.019v24.445zm81.018 0-25.507-18.889v-24.445h51.019v24.442zm81.022 0-25.511-18.892v-24.442h51.021v24.444zm81.02 0-25.509-18.891v-24.443h51.02v24.442zm25.511-73.334h-51.02l-.002-66.191c19.833-12.27 37.161-28.215 51.021-46.885v113.076z"/></svg>