<svg id="Layer_1" enable-background="new 0 0 511.972 511.972" height="512" viewBox="0 0 511.972 511.972" width="512" xmlns="http://www.w3.org/2000/svg"><g><path d="m421.446 190.512c0-105.042-74.145-190.5-165.281-190.5-117.524-1.524-195.561 141.636-154.636 257.747-.232 1.048-.364 204.253-.364 204.253-.104 44.186 54.03 66.486 84.996 35.665 18.445 18.954 51.564 18.945 70-.007 18.443 18.959 51.564 18.956 70.004.004 30.979 30.838 85.111 8.505 85-35.662 0 0-.013-205.204-.016-205.307 6.653-20.628 10.297-42.928 10.297-66.193zm-220.281 179.642c12.696 5.179 26.098 8.616 39.992 10.064v31.795h-39.992zm70 10.065c13.897-1.448 27.302-4.885 40-10.065v41.859h-40zm-15-29.207c-70.218-.035-123.4-64.158-132.831-130.007-.58-3.548.22-20.083-2.277-22.371 18.132 16.612 38.388 29.727 60.52 39.105 70.287 30.905 154.212 13.145 209.698-39.113-3.576 84.745-62.809 152.386-135.11 152.386zm132.52-192.846c-.037.043-.079.079-.115.122-47.092 57.18-126.877 81.9-195.288 51.829-26.434-11.202-49.848-28.696-69.632-51.981 2.081-12.008 5.302-23.526 9.511-34.399 45.896 64.813 133.746 86.783 201.224 42.452 17.035-10.904 32.239-25.368 44.783-42.452 4.214 10.882 7.436 22.411 9.517 34.429zm-132.52-128.154c43.707 0 82.631 24.725 107.379 62.997-50.057 88.061-164.713 88.043-214.757 0 24.747-38.272 63.671-62.997 107.378-62.997zm-85.008 323.813v58.188h-39.992v-97c11.44 15.238 24.94 28.364 39.992 38.812zm-19.992 128.187c-11.028 0-20-8.972-20-20v-20h39.992v20c0 .034.003.068.003.103-.057 10.98-9.002 19.897-19.995 19.897zm69.992 0c-10.994 0-19.939-8.917-19.995-19.897 0-.034.003-.068.003-.103v-20h39.992v20c0 11.028-8.972 20-20 20zm70.008 0c-11.028 0-20-8.972-20-20v-20h40v20c0 11.028-8.972 20-20 20zm70 0c-11.028 0-20-8.972-20-20v-20h40v20c0 11.028-8.972 20-20 20zm20-69.999h-40v-58.183c15.055-10.448 28.558-23.576 40-38.816z"/><path d="m258.164 287.012c-8.284 0-15 6.716-15 15v1c.738 19.881 29.269 19.866 30 0v-1c0-8.284-6.716-15-15-15z"/><path d="m256.169 130.012c12.759 0 30.764-7.622 44.079-43.934 2.853-7.778-1.141-16.396-8.919-19.248-7.78-2.854-16.396 1.141-19.247 8.918-7.351 20.045-14.759 24.263-15.913 24.263-1.145 0-8.496-4.173-15.818-24.005-2.869-7.771-11.494-11.749-19.267-8.876-7.771 2.869-11.745 11.495-8.876 19.267 13.308 36.048 31.252 43.615 43.961 43.615z"/><path d="m198.416 264.012c-8.284 0-15 6.716-15 15v1c.738 19.881 29.269 19.866 30 0v-1c0-8.284-6.716-15-15-15z"/><path d="m313.914 264.012c-8.284 0-15 6.716-15 15v1c.738 19.881 29.269 19.866 30 0v-1c0-8.284-6.716-15-15-15z"/></g></svg>