<svg id="Capa_1" enable-background="new 0 0 512 512" height="512" viewBox="0 0 512 512" width="512" xmlns="http://www.w3.org/2000/svg"><g><path d="m181 241c11.006 0 21.222-2.126 30-5.856v68.365c-34.192 6.968-60 37.271-60 73.491 0 41.355 33.645 75 75 75h60c41.355 0 75-33.645 75-75 0-36.22-25.808-66.522-60-73.491v-68.365c8.778 3.73 18.994 5.856 30 5.856 33.645 0 60-19.766 60-45s-26.355-45-60-45-60 19.766-60 45v106h-30v-106c0-25.234-26.355-45-60-45s-60 19.766-60 45 26.355 45 60 45zm30 178.42c-12.764-4.527-22.893-14.656-27.42-27.42h27.42zm0-57.42h-27.42c4.527-12.764 14.656-22.893 27.42-27.42zm120-181c18.313 0 30 8.884 30 15s-11.687 15-30 15-30-8.884-30-15 11.687-15 30-15zm-30 153.58c12.764 4.527 22.893 14.656 27.42 27.42h-27.42zm0 57.41 27.42.01c-4.527 12.764-14.656 22.893-27.42 27.42zm-60-59.99h30v30h-30zm0 60h30v30h-30zm-60-211c18.313 0 30 8.884 30 15s-11.687 15-30 15-30-8.884-30-15 11.687-15 30-15z"/><path d="m256 512c140.959 0 256-115.049 256-256 0-140.96-115.049-256-256-256-140.958 0-256 115.049-256 256 0 140.958 115.049 256 256 256zm15-481.49c65.413 4.308 123.309 36.564 161.828 84.919-25.277-15.483-55.02-24.429-86.828-24.429h-30c-24.393 0-45-21.065-45-46zm-30 0v14.49c0 24.935-20.607 46-45 46h-30c-31.808 0-61.551 8.946-86.828 24.429 38.519-48.355 96.415-80.611 161.828-84.919zm-75 90.49h30c23.972 0 45.818-11.512 60-30.609 14.16 19.069 35.986 30.609 60 30.609h30c74.99 0 136 60.561 136 135 0 124.617-101.383 226-226 226s-226-101.383-226-226c0-74.439 61.01-135 136-135z"/></g></svg>