<svg id="Layer_1" enable-background="new 0 0 512.003 512.003" height="512" viewBox="0 0 512.003 512.003" width="512" xmlns="http://www.w3.org/2000/svg"><path d="m511.623 473.772-18.465-80.839c-7.066-30.933-34.722-59.139-65.759-67.067l-86.881-22.195c20.27-21.082 32.75-49.705 32.75-81.19v-44.281h7.385c8.284 0 15-6.716 15-15v-4.695c-7.043-185.061-272.33-184.92-279.307 0v4.695c0 8.284 6.716 15 15 15h7.47v44.281c0 31.477 12.473 60.092 32.733 81.172l-86.949 22.212c-31.037 7.929-58.692 36.135-65.757 67.068l-18.466 80.839c-1.017 4.451.049 9.122 2.895 12.691 2.847 3.57 7.163 5.649 11.729 5.649 3.351-.376 482.1.725 485.34-.376 8.075-1.846 13.127-9.888 11.282-17.964zm-255.581-134.066c19.286 0 37.497-4.684 53.561-12.97l59.405 15.176c-65.512 46.789-160.43 46.773-225.99-.006l59.436-15.184c16.07 8.295 34.291 12.984 53.588 12.984zm-.042-290.854c56.986 0 103.96 43.701 109.173 99.348h-21.979l-18.339-26.53c-5.699-8.559-18.98-8.557-24.678 0l-18.337 26.53h-59.552l-10.07-15.993c-5.677-9.278-19.711-9.276-25.386 0l-10.072 15.993h-29.933c5.213-55.647 52.187-99.348 109.173-99.348zm-87.184 129.348h16.224c5.153 0 9.946-2.646 12.692-7.007l1.792-2.844 1.79 2.844c2.747 4.361 7.539 7.007 12.693 7.007h75.698c4.926 0 9.538-2.419 12.339-6.471l10.472-15.149 10.473 15.15c2.801 4.052 7.413 6.471 12.339 6.471h7.94v44.281c-4.399 115.587-170.095 115.5-174.452 0zm-120.727 221.413c4.551-19.924 23.851-39.55 43.938-44.682l14.239-3.638c82.451 74.037 217.07 74.057 299.463-.001l14.245 3.639c20.087 5.131 39.387 24.758 43.938 44.682l14.276 62.499h-444.376z"/></svg>