<svg id="Capa_1" enable-background="new 0 0 511.975 511.975" height="512" viewBox="0 0 511.975 511.975" width="512" xmlns="http://www.w3.org/2000/svg"><g><path d="m480.988 466.975c0-34.925-23.734-64.98-57.762-73.101l-17.238-4.058v-148.841c0-32.452-10.224-62.545-27.598-87.189l42.128-42.128-11.043-67.939-49.757 7.674-23.038-44.765-45.716 23.061-34.976-29.689-34.977 29.689-45.716-23.061-23.038 44.764-49.757-7.673-11.043 67.939 42.128 42.128c-17.374 24.644-27.598 54.737-27.598 87.189v148.841l-17.283 4.069c-33.982 8.11-57.717 38.166-57.717 73.091v45h450v-45.001zm-285-181v-45c24.358 0 46.05-11.936 60-30.721 13.951 18.787 35.643 30.721 60 30.721v45c0 47.05-43.4 58.57-45 59.838v43.041l30 7.063v26.059h-90v-26.059l30-7.063v-43.041c-.778-.616-45-13.884-45-59.838zm-45-45c-5.259 0-10.305.915-15 2.58v-2.58c0-66.719 53.832-121 120-121s120 54.28 120 121v2.58c-4.695-1.665-9.741-2.58-15-2.58s-10.305.915-15 2.58v-32.58h-30c-24.393 0-45-21.065-45-46h-30c0 24.935-20.607 46-45 46h-30v32.58c-4.695-1.665-9.742-2.58-15-2.58zm15 45c0 8.271-6.729 15-15 15s-15-6.729-15-15 6.729-15 15-15 15 6.729 15 15zm210 0c0 8.271-6.729 15-15 15s-15-6.729-15-15 6.729-15 15-15 15 6.729 15 15zm-45 166v-48.996l45 10.594v68.402h-240v-68.402l45-10.594v48.996zm-30-86.878v-.224c16.006-9.324 28.719-23.693 36.496-40.541 6.845 4.21 14.895 6.644 23.504 6.644 5.259 0 10.305-.915 15-2.58v54.358zm87.454-263.789-29.736 29.736c-5.024-4.76-10.367-9.181-16.004-13.215l18.501-36.311 23.434-3.614zm-53.969-33.41-17.827 34.989c-7.263-3.246-14.826-5.93-22.637-7.992l5.102-35.716 24.511-12.364zm-64.527-16.699-5.574 39.017c-2.776-.155-5.571-.24-8.385-.24s-5.608.085-8.385.24l-5.574-39.017 13.958-11.848zm-57.082 7.981 5.102 35.716c-7.811 2.062-15.374 4.746-22.637 7.992l-17.827-34.989 10.851-21.083zm-85.526 18.724 23.434 3.614 18.501 36.311c-5.636 4.034-10.98 8.455-16.004 13.215l-29.736-29.736zm8.65 250.491c4.695 1.665 9.741 2.58 15 2.58 8.609 0 16.659-2.434 23.504-6.644 7.777 16.848 20.49 31.218 36.496 40.541v.224l-75 17.657zm-75 138.58c0-20.98 14.262-39.037 34.637-43.899l10.363-2.44v61.339h-45zm390 15h-45v-61.339l10.318 2.429c20.42 4.873 34.682 22.93 34.682 43.91z"/></g></svg>