<svg id="Capa_1" enable-background="new 0 0 512 512" height="512" viewBox="0 0 512 512" width="512" xmlns="http://www.w3.org/2000/svg"><g><path d="m226 121c-24.813 0-45 20.187-45 45s20.187 45 45 45 45-20.187 45-45-20.187-45-45-45zm0 60c-8.271 0-15-6.729-15-15s6.729-15 15-15 15 6.729 15 15-6.729 15-15 15z"/><path d="m478.819 122.586c2.044-5.137 3.181-10.729 3.181-16.586 0-24.813-20.187-45-45-45h-211c-33.828 0-63.966 16.085-83.182 41.003-12.419-24.31-37.698-41.003-66.818-41.003-41.458 0-76 33.534-76 75 0 24.867 21.105 45 46 45 5.258 0 10.305-.915 15-2.58v124.059c-33.88 6.767-61 36.67-61 73.521 0 41.458 34.534 75 76 75 24.813 0 45-20.187 45-45 0-5.258-.915-10.305-2.58-15h62.58v30h90v-30.01h62.58c-1.665 4.695-2.58 9.752-2.58 15.01 0 24.813 20.187 45 45 45 41.355 0 75-33.645 75-75 0-36.219-25.809-66.524-60-73.493v-31.507h76c24.813 0 45-20.187 45-45 0-11.517-4.354-22.032-11.495-30 7.142-7.968 11.495-18.483 11.495-30 0-20.723-14.085-38.209-33.181-43.414zm-432.819 28.414c-8.523 0-16-7.009-16-15 0-24.393 21.065-45 46-45 24.813 0 45 20.187 45 45v105h-30v-105h-30c0 8.271-6.729 15-15 15zm375 225c0 24.813-20.187 45-45 45-8.271 0-15-6.729-15-15s6.729-15 15-15h15v-30h-150v30h-30v-30h-150v30h15c8.271 0 15 6.729 15 15s-6.729 15-15 15c-24.935 0-46-20.607-46-45s21.065-45 46-45h15v-60h30v30h30v-30h30v30h30v-30h30v30h30v-30h30v30h30v-30h30v60h15c24.813 0 45 20.187 45 45zm46-165c8.271 0 15 6.729 15 15s-6.729 15-15 15h-316v-75c0-41.355 33.645-75 75-75h211c8.271 0 15 6.729 15 15s-6.729 15-15 15h-61v30h91c8.271 0 15 6.729 15 15s-6.729 15-15 15h-91v30z"/></g></svg>