<svg id="Layer_1" enable-background="new 0 0 512.003 512.003" height="512" viewBox="0 0 512.003 512.003" width="512" xmlns="http://www.w3.org/2000/svg"><path d="m511.624 469.597-18.466-80.839c-6.394-30.083-35.909-60.19-65.88-67.098l-87.436-21.565c6.245-6.39 11.774-13.483 16.44-21.157h37.619c36.682.799 63.697-38.541 49.791-72.486l-26.083-67.846c-23.099-69.67-85.41-114.668-158.847-114.668h-5.523c-70.788 0-131.604 43.809-158.717 114.331l-26.212 68.183c-6.403 16.653-4.282 34.639 5.82 49.346 10.102 14.706 26.128 23.14 43.969 23.14h37.705c4.51 7.417 9.824 14.294 15.814 20.516l-87.018 22.236c-31.038 7.932-58.692 36.137-65.758 67.067l-18.465 80.84c-1.017 4.451.049 9.122 2.895 12.691 2.846 3.57 7.163 5.649 11.729 5.649 3.352-.376 482.101.725 485.34-.376 8.076-1.845 13.127-9.888 11.283-17.964zm-255.562-85.66c-31.115 0-59.354-21.556-74.787-55.988l21.286-5.44c31.196 16.824 74.169 17.114 105.617.675l22.323 5.506c-15.528 33.954-43.696 55.247-74.439 55.247zm-87.246-165.726v-48.05l87.226-25.599 87.226 25.599v48.05c-4.398 115.588-170.094 115.5-174.452 0zm-50.717 30.726c-8.037 0-14.691-3.502-19.241-10.126-4.551-6.625-5.432-14.092-2.547-21.594l26.213-68.184c22.551-58.658 72.638-95.096 130.715-95.096h5.523c60.376 0 111.588 37.056 130.469 94.404.077.233.159.463.247.692l26.212 68.184c2.884 7.502 2.003 14.969-2.547 21.594s-11.204 10.126-19.241 10.126h-24.726c2.664-9.797 4.094-20.097 4.094-30.726v-59.281c0-6.657-4.388-12.518-10.776-14.393l-102.226-30c-2.758-.809-5.69-.809-8.448 0l-102.226 30c-6.388 1.875-10.776 7.736-10.776 14.393v59.281c0 10.629 1.43 20.929 4.094 30.726zm-70.01 146.501c4.55-19.922 23.851-39.549 43.938-44.682l59.845-15.294c3.399 8.281 7.426 16.103 12.038 23.37l-2.508 1.378c-7.261 3.988-9.914 13.108-5.925 20.369 4.009 7.331 13.246 9.877 20.369 5.925l7.174-3.941c7.894 7.817 17.242 14.717 26.775 19.723l-.691 1.083c-4.456 6.984-2.406 16.258 4.578 20.713 6.881 4.418 16.23 2.463 20.713-4.579l4.531-7.103c11.243 2.044 23.109 2.039 34.33-.005l4.194 6.862c4.347 7.13 13.665 9.259 20.621 4.977 7.069-4.32 9.297-13.552 4.978-20.621l-.765-1.252c9.652-5.068 18.667-11.719 26.827-19.728l7.042 3.868c7.122 3.952 16.359 1.405 20.369-5.925 3.988-7.261 1.336-16.38-5.925-20.369l-2.397-1.317c4.488-7.085 8.468-14.741 11.852-22.915l60.043 14.809c19.643 4.845 39.3 24.875 43.817 44.651l14.276 62.499h-444.375z"/></svg>