<svg id="Capa_1" enable-background="new 0 0 512 512" height="512" viewBox="0 0 512 512" width="512" xmlns="http://www.w3.org/2000/svg"><g><path d="m437 143.5h-45c-8.271 0-15-6.729-15-15v-15h-15c-33.084 0-60 26.916-60 60 0 10.925 2.949 21.167 8.072 30h-23.072c-8.271 0-15-6.729-15-15 0-24.813-20.187-45-45-45h-152c-24.813 0-45-20.187-45-45h-30v60c0 29.12 16.693 54.399 41.003 66.818-24.918 19.216-41.003 49.354-41.003 83.182 0 57.897 47.103 105 105 105 41.355 0 75-33.645 75-75 0-5.136-.521-10.152-1.509-15h33.509v30h30v-30h30v30h30v-30h30v30h30v-30h30v30h30v-30h30v30h30v-30h30v-45c0-11.517-4.354-22.032-11.495-30 7.142-7.968 11.495-18.483 11.495-30 0-41.355-33.645-75-75-75zm-210 30c8.271 0 15 6.729 15 15s-6.729 15-15 15-15-6.729-15-15 6.729-15 15-15zm255 120h-317.041c-13.697-18.204-35.475-30-59.959-30-24.813 0-45 20.187-45 45s20.187 45 45 45h15v-30h-15c-8.271 0-15-6.729-15-15s6.729-15 15-15c24.813 0 45 20.187 45 45s-20.187 45-45 45c-41.355 0-75-33.645-75-75s33.645-75 75-75h30v-30h-60c-24.813 0-45-20.187-45-45v-.035c12.543 9.435 28.131 15.035 45 15.025h109.58c-1.665 4.705-2.58 9.752-2.58 15.01 0 24.813 20.187 45 45 45 11.517 0 22.032-4.354 30-11.495 7.968 7.142 18.483 11.495 30 11.495h137.57c6.191 17.461 22.874 30 42.43 30 8.271 0 15 6.729 15 15zm-15-60c-8.271 0-15-6.729-15-15v-15c-10.562 0-76.13 0-90 0-16.542 0-30-13.458-30-30 0-12.455 7.63-23.162 18.461-27.692 6.795 16.248 22.855 27.692 41.539 27.692h45c24.813 0 45 20.187 45 45 0 8.271-6.729 15-15 15z"/></g></svg>