<svg id="Layer_1" enable-background="new 0 0 512.001 512.001" height="512" viewBox="0 0 512.001 512.001" width="512" xmlns="http://www.w3.org/2000/svg"><path d="m500 334.301v-79.3c0-8.284-6.716-15-15-15h-6v-79c0-8.284-6.716-15-15-15h-40.734s-11.826-95.798-13.059-105.83c-.924-7.52-7.312-13.169-14.888-13.169h-97.65c-7.573 0-13.958 5.645-14.887 13.161-2.451 19.838-13.046 105.837-13.046 105.837h-27.469s-11.826-95.798-13.059-105.83c-.924-7.52-7.312-13.169-14.888-13.169h-97.65c-7.573 0-13.958 5.645-14.887 13.161-2.452 19.839-13.047 105.838-13.047 105.838h-40.736c-8.284 0-15 6.716-15 15v79h-6c-8.284 0-15 6.716-15 15v79.3c-6.846 1.391-12 7.443-12 14.7v94c0 8.284 6.716 15 15 15h78v12c0 8.284 6.716 15 15 15h115c8.284 0 15-6.716 15-15v-12h36v12c0 8.284 6.716 15 15 15h115c8.284 0 15-6.716 15-15v-12h78c8.284 0 15-6.716 15-15v-94c.001-7.257-5.153-13.309-12-14.699zm-80.999-.301v-63.999h51v63.999zm29.999-93.999h-30v-64h30zm-138.07-183h71.125c.698 5.652 10.985 89 10.985 89h-31.539v-19.5c-.738-19.881-29.269-19.866-30 0v19.499h-31.539s9.06-73.548 10.968-88.999zm-36.929 118.999v64h-36v-64zm-36 94.001h36v63.999h-36zm-108.071-213h71.125c.698 5.652 10.985 89 10.985 89h-31.539v-19.5c-.738-19.881-29.269-19.866-30 0v19.499h-31.539s9.06-73.548 10.968-88.999zm-87.93 213h51v63.999h-51zm21-94.001h30v64h-30zm-33 252v-64h63v64zm178.001 27h-85v-279h85zm30-27v-64h36v64zm151 27h-85v-279h85zm30-27v-64h63v64z"/></svg>