<svg id="Capa_1" enable-background="new 0 0 512 512" height="512" viewBox="0 0 512 512" width="512" xmlns="http://www.w3.org/2000/svg"><g><path d="m315 301c24.813 0 45-20.187 45-45s-20.187-45-45-45-45 20.187-45 45 20.187 45 45 45zm0-60c8.271 0 15 6.729 15 15s-6.729 15-15 15-15-6.729-15-15 6.729-15 15-15z"/><path d="m0 376c0 24.813 20.187 45 45 45 5.258 0 10.305-.915 15-2.58v17.58c0 24.813 20.187 45 45 45 15.992 0 30.052-8.392 38.035-20.997 13.491 12.987 31.805 20.997 51.965 20.997h15v-15c0-24.813 20.187-45 45-45h75v30h90v-30h92v-150h-92v-51.213l-68.787-68.787h-111.213v-120h-15c-124.065 0-225 100.935-225 225v15h15c20.276 0 37.457 13.483 43.064 31.952-33.221 7.701-58.064 37.518-58.064 73.048zm120-120v60.041c-8.725-6.565-18.922-11.274-30-13.532v-46.509c0-69.369 52.594-126.676 120-134.162v30.23c-50.817 7.301-90 51.127-90 103.932zm90-73.491v103.491c0 24.813-20.187 45-45 45h-15v-75c0-36.219 25.808-66.522 60-73.491zm180 238.491h-30v-60h30zm92-30h-62v-30h62zm-242-105v-105h98.787l51.213 51.213v68.787h92v30c-22.675 0-172.628 0-197 0v30h45v30h-75c-35.532 0-65.373 24.84-73.072 58.064-18.457-5.614-31.928-22.796-31.928-43.064 0-14.05 0-30.905 0-45h15c41.355 0 75-33.645 75-75zm-209.544-43.399c6.566-96.337 83.419-173.683 179.544-181.03v30.118c-83.977 7.604-150 78.386-150 164.311v.051c-8.607-6.477-18.639-11.157-29.544-13.45zm44.544 88.399c24.813 0 45 20.187 45 45v60c0 8.271-6.729 15-15 15s-15-6.729-15-15v-60h-30c0 8.271-6.729 15-15 15s-15-6.729-15-15c0-24.813 20.187-45 45-45z"/></g></svg>