<svg id="Layer_1" enable-background="new 0 0 512.001 512.001" height="512" viewBox="0 0 512.001 512.001" width="512" xmlns="http://www.w3.org/2000/svg"><path d="m511.122 246.444-61.414-171.517c-9.229-25.773-32.882-42.426-60.257-42.426h-266.943c-27.382 0-51.036 16.659-60.261 42.44l-61.37 171.506c-1.792 5.007-.798 10.587 2.61 14.669 3.403 4.093 8.788 6.057 13.969 5.182 5.262-.873 10.458-1.953 15.544-3.063v201.265c0 8.284 6.716 15 15 15h416c8.284 0 15-6.716 15-15v-201.265c5.086 1.111 10.282 2.19 15.544 3.063 5.251.871 10.562-1.102 13.97-5.184 3.409-4.082 4.401-9.663 2.608-14.67zm-435.872 10.057c8.328 0 17.144 2.21 26.478 4.55 22.044 6.157 39.762 7.483 62.272 1.307v38.142h-101v-43.158c4.124-.524 8.201-.841 12.25-.841zm-12.249 73.999h101v45h-101zm130.999 119v-192.944c9.139-.375 18.19 2.015 28.228 4.494 25.227 7.092 42.321 7.091 67.544 0 10.042-2.48 19.085-4.869 28.229-4.494v192.944zm154-119h101v43.961h-101zm101-30h-101v-38.142c22.534 6.179 40.226 4.847 62.271-1.307 13.81-3.706 25.35-5.793 38.729-3.709zm-358.507-215.452c4.977-13.908 17.244-22.547 32.015-22.547h266.943c14.768 0 27.034 8.637 32.013 22.54l52.399 146.339c-25.649-6.004-45.456-6.837-70.887.571-21.604 5.916-31.371 5.908-52.954-.001-25.225-7.092-42.323-7.09-67.546.001-9.333 2.34-18.149 4.55-26.477 4.55-19.738-.439-39.31-10.325-60.25-10-20.921-.327-40.534 9.563-60.25 10-8.328 0-17.144-2.21-26.478-4.55-25.399-7.406-45.269-6.574-70.892-.569zm-27.492 320.452h101v44h-101zm385.999 44h-101v-44h101z"/></svg>