<svg id="Layer_1" enable-background="new 0 0 512.021 512.021" height="512" viewBox="0 0 512.021 512.021" width="512" xmlns="http://www.w3.org/2000/svg"><path d="m497 339.509h-5.998v-148h6c11.159.14 18.607-12.278 13.237-22.056l-41.041-77c-2.606-4.89-7.696-7.944-13.237-7.944h-83.623l-107.302-80.973c-5.328-4.021-12.674-4.038-18.018-.04l-108.348 81.013h-82.677c-5.544 0-10.636 3.058-13.24 7.951l-40.993 77c-2.476 4.649-2.331 10.256.381 14.771 2.711 4.516 7.593 7.278 12.859 7.278h6.001v148h-5.999c-8.284 0-15 6.716-15 15v108c0 8.284 6.716 15 15 15h51.9l-3.536 15.706c-2.248 9.105 5.26 18.487 14.634 18.294h356.002c9.377.193 16.882-9.194 14.633-18.298l-3.539-15.702h51.904c8.284 0 15-6.716 15-15v-108c0-8.284-6.716-15-15-15zm-35.998 0h-43v-148h43zm-139.152 71h-131.709l4.71-41h122.282zm-99.698-219h67.849v146h-67.849zm165.85 146h-68v-146h68zm-196.002-146v146h-67.849v-146zm63.959-157.239 66.576 50.24h-133.767zm-190.958 80.239h381.957l25.052 47h-432.031zm-14 77h43.15v148h-43.15zm-20.999 256v-78h61.214l-17.56 78zm91.965-78h42.687l-12.868 112h-55.034zm60.017 112 4.71-41h138.606l4.716 41zm178.23 0-12.882-112h42.67l25.243 112zm121.786-34h-43.666l-17.58-78h61.246z"/></svg>