<svg id="Capa_1" enable-background="new 0 0 511.823 511.823" height="512" viewBox="0 0 511.823 511.823" width="512" xmlns="http://www.w3.org/2000/svg"><g><path d="m511.823 195.912c0-24.813-20.187-45-45-45h-24.223c-10.659-18.294-30.33-30-51.776-30-33.084 0-60 26.916-60 60v105c0 8.271-6.729 15-15 15s-15-6.729-15-15v-60c0-57.897-47.103-105-105-105s-105 47.103-105 105v60c0 8.271-6.729 15-15 15-13.158 0-22.252 5.869-23.014 6.174l-52.81 38.826 52.81 38.826c.758.303 9.79 6.174 23.014 6.174h30c41.355 0 75-33.645 75-75v-90c0-8.271 6.729-15 15-15s15 6.729 15 15v60c0 57.897 47.103 105 105 105s105-47.103 105-105v-45h61v15c0 8.271-6.729 15-15 15v30c24.813 0 45-20.187 45-45-.001-7.36-.001-53.227-.001-60zm-436 165c-2.338 0-4.724-.575-7.103-1.712l-18.074-13.288 18.074-13.288c2.379-1.136 4.765-1.712 7.103-1.712 8.271 0 15 6.729 15 15s-6.728 15-15 15zm75-45c0 20.272-13.477 37.45-31.939 43.061 1.257-4.136 1.939-8.519 1.939-13.061 0-11.517-4.354-22.032-11.495-30 7.141-7.968 11.495-18.483 11.495-30v-15h30zm0-90v15h-30v-15c0-15.264 4.594-29.47 12.458-41.33l21.94 21.94c-2.817 5.875-4.398 12.451-4.398 19.39zm45-45c-6.939 0-13.514 1.581-19.389 4.398l-21.94-21.94c11.859-7.863 26.065-12.457 41.329-12.457s29.47 4.594 41.329 12.457l-21.94 21.94c-5.875-2.818-12.45-4.398-19.389-4.398zm62.543 3.67c7.863 11.859 12.458 26.065 12.458 41.33v15h-30v-15c0-6.939-1.581-13.514-4.398-19.389zm-17.543 101.33v-15h30v15c0 6.939 1.581 13.514 4.398 19.389l-21.94 21.94c-7.864-11.859-12.458-26.065-12.458-41.329zm75 75c-15.264 0-29.47-4.594-41.329-12.457l21.94-21.94c5.875 2.817 12.45 4.398 19.389 4.398s13.514-1.581 19.389-4.398l21.94 21.94c-11.859 7.862-26.065 12.457-41.329 12.457zm75-75c0 15.264-4.594 29.47-12.458 41.33l-21.94-21.94c2.817-5.875 4.398-12.451 4.398-19.389v-15h30zm91-75h-91v30h-30v-60c0-16.542 13.458-30 30-30 26.289 0 29.987 27.213 31.776 30h44.224c8.271 0 15 6.729 15 15z"/></g></svg>