<svg id="Layer_1" enable-background="new 0 0 512.005 512.005" height="512" viewBox="0 0 512.005 512.005" width="512" xmlns="http://www.w3.org/2000/svg"><path d="m498.821 494.19-11.595-60.761c-5.765-30.209-33.348-58.606-65.585-67.521l-77.977-21.564c20.721-21.154 33.519-50.097 33.519-81.977v-39.641c0-49.219-30.493-91.444-73.577-108.792l41.975-92.749c2.513-5.554 1.415-12.077-2.777-16.501-4.194-4.426-10.648-5.874-16.328-3.662l-12.55 4.883-12.55-4.883c-3.498-1.361-7.381-1.361-10.879 0l-12.55 4.883-12.551-4.883c-3.498-1.361-7.381-1.361-10.879 0l-12.55 4.883-12.55-4.883c-3.498-1.361-7.381-1.361-10.879 0l-12.55 4.883-12.55-4.883c-5.679-2.21-12.134-.763-16.328 3.662-4.192 4.425-5.29 10.948-2.777 16.501l41.975 92.75c-43.084 17.348-73.577 59.573-73.577 108.792v39.641c0 31.88 12.798 60.823 33.519 81.977l-63.335 17.515v-297.857c0-35.291-28.712-64.003-64.003-64.003h-11.002c-19.881.738-19.866 29.269 0 30h11.002c18.749 0 34.003 15.253 34.003 34.003v4.315c-9.86-6.209-21.515-9.818-34.003-9.818h-11.002c-19.881.738-19.866 29.269 0 30h11.002c18.749 0 34.003 15.253 34.003 34.003v8.998h-55c-8.284 0-15 6.716-15 15v180c0 8.284 6.716 15 15 15h55v30.273c-25.31 12.391-45.404 36.384-50.227 61.655l-11.594 60.761c-1.93 8.93 5.601 18.034 14.734 17.811 0 0 450.121-.084 451.07-.266 8.138-1.553 13.476-9.408 11.923-17.545zm-238.906-75.689c-27.842 0-53.909-17.651-70.135-46.772l17.266-4.775c31.371 16.699 74.451 16.698 105.822 0l17.2 4.756c-16.223 29.151-42.245 46.791-70.153 46.791zm-35.936-387.404 12.55 4.883c3.498 1.361 7.381 1.361 10.879 0l12.55-4.883 12.551 4.883c3.498 1.361 7.381 1.361 10.879 0l12.55-4.883 10.398 4.046-9.44 20.858h-73.876l-9.44-20.858zm12.618 54.905h46.721l-9.212 20.356c-9.245-1.137-19.051-1.137-28.297 0zm23.361 49.499c34.591 0 64.543 20.24 78.637 49.499h-157.275c14.094-29.258 44.047-49.499 78.638-49.499zm-87.226 87.226c0-2.604.122-5.18.346-7.727h173.76c.225 2.547.346 5.123.346 7.727v39.641c-4.399 115.587-170.095 115.5-174.452 0zm-129.817-1.226h40v30h-40zm40-60v30h-40v-30zm-40 150v-30h40v30zm19.242 127.551c3.558-18.646 23.347-38.486 44.112-44.229l53.933-14.915c2.124 4.29 4.415 8.414 6.864 12.36l-4.562 2.506c-7.261 3.989-9.914 13.108-5.926 20.369 4.01 7.33 13.247 9.877 20.369 5.925l8.926-4.903c7.827 7.859 16.456 14.428 25.673 19.548l-1.523 2.513c-4.294 7.084-2.031 16.309 5.054 20.602 6.969 4.256 16.282 2.093 20.603-5.053l4.44-7.325c13.021 2.755 26.979 2.723 39.984-.073l4.484 7.398c4.32 7.147 13.633 9.309 20.603 5.053 7.085-4.293 9.348-13.518 5.054-20.602l-1.62-2.674c9.161-5.127 17.736-11.687 25.512-19.529l9.184 5.045c7.122 3.952 16.359 1.404 20.369-5.925 3.988-7.261 1.335-16.38-5.926-20.369l-4.873-2.677c2.409-3.899 4.667-7.971 6.762-12.206l53.994 14.932c20.766 5.742 40.555 25.583 44.112 44.229l8.196 42.949h-411.994z"/></svg>