<svg id="Capa_1" enable-background="new 0 0 511.999 511.999" height="512" viewBox="0 0 511.999 511.999" width="512" xmlns="http://www.w3.org/2000/svg"><g><path d="m345.999 151c-24.813 0-45 20.187-45 45s20.187 45 45 45 45-20.187 45-45-20.186-45-45-45zm0 60c-8.271 0-15-6.729-15-15s6.729-15 15-15 15 6.729 15 15-6.728 15-15 15z"/><path d="m511.999 301v-90h-61s-.011-16.807-.034-17.706c-1.452-89.737-74.889-162.294-164.966-162.294l-82.453.01c-107.565 0-200.277 83.08-203.457 189.003-3.315 110.473 86.165 200.987 195.91 200.987h15.01l-.002 60h300.992v-90h-31v-90zm-410.643 60.453c-44.421-30.921-73.031-82.197-71.281-140.54 2.646-88.177 80.466-159.913 173.471-159.913l82.453-.01c34.468 0 65.955 13.001 89.837 34.335-9.462-2.809-19.475-4.325-29.837-4.325-40.461 0-77.185 23.714-94.466 60h-25.534c-24.813 0-45 20.187-45 45 0 5.52.999 10.811 2.826 15.701-52.184 6.052-92.826 50.518-92.826 104.299 0 16.272 3.722 31.692 10.357 45.453zm319.643-30.453v-30h30v30zm30 30v30h-30v-30zm-180-90v150h211v30h-241.001l-.008-59.941s-46.533-.035-47.303-.059c-23.743-1.208-42.688-20.963-42.688-45 0-24.813 20.187-45 45-45 8.271 0 15 6.729 15 15s-6.729 15-15 15v30c24.813 0 45-20.187 45-45s-20.187-45-45-45c-36.22 0-66.522 25.808-73.491 60-.988-4.848-1.509-9.864-1.509-15 0-41.355 33.645-75 75-75h30v-30c-8.271 0-15-6.729-15-15s6.729-15 15-15h46.104l3.553-9.962c10.671-29.93 38.94-50.038 70.343-50.038 41.355 0 75 33.645 75 75v45h61v30c-1.907 0-209.151 0-211 0zm90 60v-30h30v30zm30 30v30h-30v-30zm-90-30v-30h30v30zm30 30v30h-30v-30z"/></g></svg>