<svg id="Capa_1" enable-background="new 0 0 512 512" height="512" viewBox="0 0 512 512" width="512" xmlns="http://www.w3.org/2000/svg"><g><path d="m436 211h-17.57c-6.191-17.461-22.874-30-42.43-30-20.082 0-37.134 13.223-42.906 31.419-.707.162-1.402.345-2.094.532v-76.951c0-24.813 20.187-45 45-45v-30c-17.958 0-26.22-5.508-36.68-12.481-11.707-7.805-26.278-17.519-53.32-17.519s-41.613 9.714-53.32 17.519c-10.46 6.973-18.722 12.481-36.68 12.481-18.041 0-26.542-5.544-37.306-12.564-11.911-7.768-26.735-17.436-53.694-17.436-27.042 0-41.613 9.714-53.32 17.519-10.46 6.973-18.722 12.481-36.68 12.481h-15v75c0 24.508 11.818 46.305 30.052 60-18.234 13.695-30.052 35.492-30.052 60v180c0 24.813 20.187 45 45 45s45-20.187 45-45v-15h256c41.355 0 75-33.645 75-75v-15h-38.919c1.489-1.429 2.949-2.854 4.394-4.263 14.738-14.38 26.38-25.737 49.525-25.737 8.523 0 16 7.009 16 15v15h15c24.813 0 45-20.187 45-45 0-41.327-34.67-75-76-75zm-406-75v-46.103c17.837-2.76 28.988-10.195 38.32-16.417 10.46-6.972 18.722-12.48 36.68-12.48 18.041 0 26.542 5.544 37.306 12.564 11.911 7.768 26.735 17.436 53.694 17.436 27.042 0 41.613-9.714 53.32-17.519 10.46-6.973 18.722-12.481 36.68-12.481s26.22 5.508 36.68 12.481c2.004 1.336 4.093 2.729 6.313 4.118-17.06 13.76-27.993 34.828-27.993 58.401v16.596c-19.073-19.483-45.646-31.596-75-31.596-49.991 0-90.664 34.512-102.412 77.935-13.1-11.17-30.064-17.935-48.588-17.935-24.813 0-45-20.187-45-45zm30 300c0 8.271-6.729 15-15 15s-15-6.729-15-15v-77.58c4.695 1.665 9.742 2.58 15 2.58s10.305-.915 15-2.58zm0-180v60c0 8.271-6.729 15-15 15s-15-6.729-15-15v-60c0-24.813 20.187-45 45-45s45 20.187 45 45c0 8.271-6.729 15-15 15s-15-6.729-15-15zm91 75v60h-61c0-12.591 0-81.186 0-92.58 4.695 1.665 9.742 2.58 15 2.58 24.813 0 45-20.187 45-45v-30c0-41.355 34.093-75 76-75 41.355 0 75 33.645 75 75v6.244c-9.837 10.55-17.96 23.805-25.955 36.861-19.492 31.83-37.902 61.895-79.045 61.895zm326.425-34.225c-7.521-15.09-23.47-25.775-41.425-25.775-35.355 0-54.013 18.203-70.475 34.263-14.738 14.38-26.38 25.737-49.525 25.737v29.99h72.43c-6.191 17.461-22.874 30.01-42.43 30.01h-165v-30h15c57.949 0 83.832-42.266 104.629-76.228 16.619-27.138 27.702-43.772 45.371-43.772h15v-15c0-8.271 6.729-15 15-15s15 6.729 15 15v15h45c24.935 0 46 20.607 46 45 0 4.224-1.755 8.046-4.575 10.775z"/><path d="m271 226c0-24.813-20.187-45-45-45s-45 20.187-45 45 20.187 45 45 45 45-20.187 45-45zm-60 0c0-8.271 6.729-15 15-15s15 6.729 15 15-6.729 15-15 15-15-6.729-15-15z"/></g></svg>