<svg id="Layer_1" enable-background="new 0 0 511.456 511.456" height="512" viewBox="0 0 511.456 511.456" width="512" xmlns="http://www.w3.org/2000/svg"><path d="m509.909 212.928c-1.914-3.881-5.412-6.746-9.593-7.86l-14.661-3.903c-27.066-7.206-48.186-19.1-68.077-38.351l2.814-2.569c17.906-15.569 18.582-45.395 1.401-61.76l-34.576-34.576c-8.451-8.451-19.22-12.767-31.18-12.502-11.949.271-22.524 5.08-30.581 13.906l-2.597 2.844-38.064-38.064c-5.585-5.81-15.627-5.81-21.213 0l-56.705 56.705c-5.858 5.858-5.858 15.355 0 21.213l41.609 41.609-236.509 259.051c-16.508 18.081-15.877 45.806 1.435 63.119l.52.521c17.335 17.331 45.064 17.925 63.121 1.433l259.035-236.523 1.084 1.084c20.485 20.484 32.961 42.099 40.455 70.084 3.163 11.815 4.068 14.799 4.537 16.161 1.409 4.096 4.519 7.383 8.531 9.015 4.007 1.631 8.53 1.453 12.402-.498 50.164-25.271 89.24-64.542 107.209-107.744 1.662-3.995 1.517-8.514-.397-12.395zm-271.212-115.525 35.492-35.491 28.422 28.422-33.877 37.106zm-181.872 354.186c-6.21 5.67-15.732 5.455-21.68-.492l-.52-.52c-5.946-5.946-6.163-15.469-.493-21.679l313.479-343.359c2.536-2.778 5.344-4.055 9.108-4.141 3.687-.097 6.641 1.058 9.285 3.723l34.576 34.576c5.18 4.855 4.978 13.778-.417 18.393zm348.874-154.245c-8.94-31.396-24.033-56.973-47.313-80.252l-.121-.121 37.122-33.896c23.079 22.712 48.452 37.491 79.51 46.246-14.922 25.812-39.441 49.93-69.198 68.023z"/></svg>