<svg id="Layer_1" enable-background="new 0 0 511.999 511.999" height="512" viewBox="0 0 511.999 511.999" width="512" xmlns="http://www.w3.org/2000/svg"><path d="m507.605 179.365-14.079-14.079 10.45-9.52c3.03-2.76 4.799-6.641 4.894-10.739.096-4.098-1.49-8.057-4.389-10.956l-126.507-126.507c-2.898-2.898-6.85-4.481-10.955-4.39-4.098.096-7.979 1.864-10.739 4.894l-9.521 10.45-14.079-14.078c-5.858-5.857-15.355-5.858-21.213 0-5.858 5.857-5.858 15.355 0 21.213l15.065 15.066-24.449 26.835-13.291-13.291c-5.857-5.858-15.355-5.858-21.213 0s-5.858 15.355 0 21.213l14.278 14.278-24.449 26.835-12.504-12.504c-5.857-5.858-15.355-5.858-21.213 0s-5.858 15.355 0 21.213l13.491 13.491-24.449 26.836-11.717-11.717c-5.857-5.858-15.355-5.858-21.213 0s-5.858 15.355 0 21.213l12.704 12.704-24.449 26.835-10.929-10.929c-5.857-5.858-15.355-5.858-21.213 0s-5.858 15.355 0 21.213l11.916 11.916-24.449 26.835-10.142-10.142c-5.857-5.858-15.355-5.858-21.213 0s-5.858 15.355 0 21.213l11.129 11.129-26.841 29.461c-4.237 4.65-5.122 11.451-2.216 17.031l12.838 24.651-72.881 72.882c-9.065 9.065-14.057 21.152-14.057 34.034s4.992 24.969 14.058 34.034c17.852 18.62 50.217 18.619 68.067 0l72.891-72.891 24.627 12.833c5.544 2.894 12.366 2.041 17.033-2.214l29.463-26.84 11.141 11.141c5.857 5.858 15.356 5.858 21.213 0 5.858-5.858 5.858-15.355 0-21.213l-10.153-10.153 26.837-24.448 11.926 11.926c5.857 5.858 15.356 5.858 21.213 0 5.858-5.858 5.858-15.355 0-21.213l-10.938-10.938 26.836-24.448 12.711 12.711c5.857 5.858 15.356 5.858 21.213 0 5.858-5.858 5.858-15.355 0-21.213l-11.723-11.723 26.837-24.448 13.496 13.496c5.858 5.858 15.355 5.858 21.213 0 5.858-5.857 5.858-15.355 0-21.213l-12.509-12.509 26.836-24.448 14.282 14.282c5.858 5.858 15.356 5.857 21.213-.001s5.857-15.355-.001-21.213l-13.292-13.291 26.836-24.448 15.067 15.067c5.857 5.858 15.356 5.858 21.213 0 5.857-5.859 5.857-15.356-.001-21.214zm-446.693 297.41c-6.685 6.982-18.956 6.98-25.642 0-6.981-6.685-6.981-18.957 0-25.642l66.198-66.198 6.581 12.636c1.42 2.728 3.645 4.953 6.372 6.374l12.703 6.619zm123.305-70.29-51.743-26.962-26.928-51.705 262.326-287.93 104.285 104.285z"/></svg>