<svg id="Capa_1" enable-background="new 0 0 512 512" height="512" viewBox="0 0 512 512" width="512" xmlns="http://www.w3.org/2000/svg"><g><path d="m91 340.787v72.426l30 30v68.787h270v-68.787l30-30v-72.426l-30-30v-78.573l30-30v-72.426l-26.749-26.749 26.749-53.498v-49.541h-30v31h-60v-31h-30v31h-90v-31h-30v31h-60v-31h-30v49.541l26.748 53.497-26.748 26.749v72.426l30 30v78.573zm270 141.213h-210v-30h62.58c6.192 17.459 22.865 30 42.42 30s36.228-12.541 42.42-30h62.58zm-120-45v-45h30v45c0 8.271-6.729 15-15 15s-15-6.729-15-15zm140.729-376-15 30h-221.458l-15-30zm-260.729 81.213 21.213-21.213h227.573l21.214 21.213v47.574l-21.213 21.213h-71.367c-6.192-17.459-22.865-30-42.42-30s-36.228 12.541-42.42 30h-71.367l-21.213-21.213zm240 98.787v61h-60v-61zm-90-15v76h-30v-76c0-8.271 6.729-15 15-15s15 6.729 15 15zm-60 15v61h-60v-61zm-68.787 91h227.573l21.214 21.213v47.574l-21.213 21.213h-68.787v-30h60v-30h-210v30h60v30h-68.787l-21.213-21.213v-47.574z"/><path d="m151 151h60v30h-60z"/><path d="m301 151h60v30h-60z"/></g></svg>