<svg id="Layer_1" enable-background="new 0 0 512.001 512.001" height="512" viewBox="0 0 512.001 512.001" width="512" xmlns="http://www.w3.org/2000/svg"><path d="m507.607 4.394c-4.106-4.107-10.216-5.474-15.678-3.51l-99.296 35.669c-5.465 1.963-9.306 6.904-9.86 12.685l-6.234 65.01-145.505 145.506-57.217-16.629c-5.254-1.526-10.923-.071-14.792 3.798l-149.922 149.923c-3.75 3.75-5.241 9.2-3.922 14.336 1.318 5.136 5.251 9.194 10.343 10.674l41.383 12.026-52.513 52.513c-5.858 5.858-5.858 15.355 0 21.213 5.857 5.858 15.356 5.858 21.213 0l52.519-52.519s12.024 41.375 12.032 41.403c3.119 10.733 17.105 14.328 25.011 6.42l149.922-149.922c3.869-3.869 5.324-9.538 3.797-14.792l-16.634-57.237 145.498-145.498 65.01-6.234c5.78-.555 10.722-4.396 12.686-9.86l35.67-99.296c1.962-5.466.595-11.573-3.511-15.679zm-459.358 395.731 125.715-125.715 32.863 9.551-125.715 125.715zm63.64 63.641-9.553-32.874 125.714-125.715 9.554 32.873zm338.541-363.493-42.807 4.105 4.104-42.807 60.398-21.697z"/></svg>