<svg id="Capa_1" enable-background="new 0 0 512 512" height="512" viewBox="0 0 512 512" width="512" xmlns="http://www.w3.org/2000/svg"><g><path d="m501.37 341.561-79.199-173.151c8.515-8.193 13.829-19.689 13.829-32.41 0-17.293-9.81-32.329-24.153-39.861 3.403-7.676 8.213-15.451 14.26-22.986 6.379-7.948 9.893-17.946 9.893-28.153 0-24.813-20.187-45-45-45s-45 20.187-45 45h30c0-8.271 6.729-15 15-15s15 6.729 15 15c0 4.361-1.788 7.505-3.289 9.375-7.098 8.844-15.968 21.98-21.5 37.71-20.12 4.483-35.211 22.464-35.211 43.915 0 12.742 5.332 24.255 13.872 32.45l-78.27 173.172c-7.035 15.565-10.602 32.178-10.602 49.378 0 66.72 53.832 121 120 121 66.347 0 121-54.669 121-121 0-17.2-3.567-33.813-10.63-49.439zm-110.37-220.561c8.271 0 15 6.729 15 15s-6.729 15-15 15-15-6.729-15-15 6.729-15 15-15zm-3.801 59.828c1.254.105 2.519.172 3.801.172 1.301 0 2.586-.068 3.86-.177l41.247 90.177h-89.663zm-54.315 120.172h116.944l17.493 38.245-16.167 15.697-30.154-30.155-30 30-30-30-30 30-15.445-15.445zm58.116 181c-26.437 0-50.247-11.587-66.727-30.01h133.591c-16.777 18.326-40.747 30.01-66.864 30.01zm85.341-60h-169.961c-3.479-9.68-5.38-20.119-5.38-31 0-7.254.844-14.364 2.517-21.27l27.483 27.483 30-30 30 30 30-30 29.845 29.845 28.541-27.711c1.735 7.026 2.614 14.265 2.614 21.653 0 10.822-2.007 21.274-5.659 31z"/><path d="m121 512c66.168 0 120-54.28 120-121 0-17.201-3.567-33.814-10.602-49.378l-78.27-173.171c8.54-8.196 13.872-19.709 13.872-32.451 0-17.293-9.811-32.329-24.153-39.861 3.403-7.676 8.213-15.452 14.26-22.986 6.38-7.948 9.893-17.946 9.893-28.153 0-24.813-20.187-45-45-45s-45 20.187-45 45h30c0-8.271 6.729-15 15-15s15 6.729 15 15c0 4.361-1.789 7.505-3.29 9.375-7.097 8.844-15.967 21.98-21.499 37.71-20.12 4.483-35.211 22.464-35.211 43.915 0 12.721 5.315 24.217 13.83 32.41l-79.228 173.212c-7.035 15.565-10.602 32.178-10.602 49.378 0 66.205 54.538 121 121 121zm0-30c-26.117 0-50.087-11.684-66.863-30.01h133.591c-16.481 18.423-40.291 30.01-66.728 30.01zm0-361c8.271 0 15 6.729 15 15s-6.729 15-15 15-15-6.729-15-15 6.729-15 15-15zm-3.859 59.823c1.273.109 2.558.177 3.859.177 1.281 0 2.546-.067 3.8-.172l40.756 90.172h-89.662zm-54.97 120.177h116.945l17.33 38.341-15.446 15.446-30-30-30 30-30-30-30.155 30.155-16.167-15.697zm-29.558 68.345 28.542 27.713 29.845-29.845 30 30 30-30 30 30 27.483-27.483c1.673 6.905 2.517 14.016 2.517 21.27 0 10.881-1.901 21.32-5.38 31h-169.961c-3.652-9.726-5.659-20.178-5.659-31 0-7.393.88-14.636 2.613-21.655z"/></g></svg>