<svg id="Capa_1" enable-background="new 0 0 511.847 511.847" height="512" viewBox="0 0 511.847 511.847" width="512" xmlns="http://www.w3.org/2000/svg"><g><path d="m439.216 144.418 72.631-144.418-144.417 72.632 25.286 25.286-240.72 240.719-63.64-21.213-88.356 88.356 79.55 26.517 26.516 79.55 88.357-88.356-21.213-63.64 84.79-84.792 21.799 21.799c-19.135 23.853-29.534 53.263-29.534 84.268 0 36.051 14.047 69.952 39.555 95.459l10.606 10.606 10.606-10.606c20.619-20.619 33.827-47.177 38.067-75.54 31.265 16.389 58.645 16.324 73.312 17.214-.841-13.849-.554-41.532-17.215-73.314 28.361-4.241 54.923-17.447 75.542-38.065l10.606-10.607-10.606-10.607c-49.052-49.052-126.764-52.382-179.72-10.014l-21.806-21.806 134.716-134.715zm5.074-76.861-13.221 26.288-13.067-13.067zm-356.934 335.719-31.819-10.606 40.923-40.922 31.819 10.606zm31.821 53.033-10.607-31.82 40.922-40.922 10.606 31.82zm327.958-160.042c-18.187 13.257-40.264 20.372-62.955 20.143-14.87-14.423-32.791-22.957-48.171-27.989 35.036-18.596 78.459-15.998 111.126 7.846zm-83.069 42.432c13.627 13.628 20.565 31.714 24.051 45.264-13.556-3.487-31.638-10.424-45.265-24.05-13.646-13.647-20.585-31.767-24.066-45.329 13.504 3.452 31.541 10.376 45.28 24.115zm-71.521-6.937c5.028 15.4 13.567 33.364 28.018 48.264.23 22.696-6.888 44.777-20.152 62.967-13.083-17.86-20.146-39.323-20.146-61.867.001-17.499 4.257-34.347 12.28-49.364z"/></g></svg>