<svg id="Layer_1" enable-background="new 0 0 512.08 512.08" height="512" viewBox="0 0 512.08 512.08" width="512" xmlns="http://www.w3.org/2000/svg"><path d="m486.888 24.889c-17.373-17.373-39.531-25.941-64.07-24.786-24.542 1.158-45.791 11.777-61.451 30.709l-231.402 279.749-73.597 73.597c-17.759-4.158-33.979-.657-44.612 9.978-20.519 20.518-13.282 59.904 16.478 89.664 25.589 25.226 64.072 39.962 89.664 16.479 10.635-10.634 14.135-26.85 9.978-44.612l73.711-73.711 279.632-231.289c38.421-30.281 41.463-92.082 5.669-125.778zm-386.581 415.92c-4.172 4.172-5.511 10.402-3.421 15.92 3.694 9.752 3.615 18.52-.201 22.336-6.272 6.27-27.791 2.968-47.238-16.479s-22.749-40.966-16.479-47.237c3.816-3.818 12.584-3.897 22.336-.202 5.518 2.09 11.747.751 15.921-3.42l69.883-69.883 29.082 29.083zm381.656-353.008c-.76 16.101-7.443 29.475-19.865 39.749l-269.746 223.112-30.99-30.99 223.122-269.739c10.273-12.42 23.647-19.104 39.748-19.863 31.55-2.393 60.211 26.312 57.731 57.731z"/></svg>