<svg id="Capa_1" enable-background="new 0 0 511.913 511.913" height="512" viewBox="0 0 511.913 511.913" width="512" xmlns="http://www.w3.org/2000/svg"><g><path d="m240.957 390.984h30v30h-30z" transform="matrix(.707 -.707 .707 .707 -212.107 299.904)"/><path d="m57.009 0c-17.044 32.174-26.053 68.823-26.053 105.983 0 44.64 12.851 87.267 37.278 124.082l-24.41 24.41 63.64 63.639 24.41-24.41c28.912 19.184 61.411 31.221 95.653 35.506l-76.51 76.51 104.939 106.192 104.939-106.192-76.51-76.51c34.242-4.286 66.74-16.323 95.651-35.506l24.41 24.41 63.64-63.639-24.41-24.41c24.427-36.814 37.278-79.441 37.278-124.082 0-37.028-8.946-73.558-25.87-105.642l-26.535 13.997c14.658 27.786 22.405 59.476 22.405 91.645 0 36.623-9.98 71.674-28.994 102.367l-17.514-17.514-63.64 63.64 17.514 17.514c-30.636 18.979-65.615 28.955-102.166 28.992l-.199-.199-.199.199c-36.551-.036-71.531-10.012-102.168-28.992l17.514-17.514-63.64-63.64-17.512 17.514c-19.014-30.693-28.994-65.744-28.994-102.367 0-32.283 7.802-64.076 22.563-91.94zm347.44 233.262 21.214 21.213-21.214 21.213-21.214-21.213zm-148.492 109.946 62.639 62.639-62.639 63.386-62.639-63.386zm-148.493-109.946 21.214 21.213-21.214 21.213-21.214-21.212z"/></g></svg>