<svg id="Layer_1" enable-background="new 0 0 512.001 512.001" height="512" viewBox="0 0 512.001 512.001" width="512" xmlns="http://www.w3.org/2000/svg"><path d="m507.607 4.394c-3.37-3.371-8.143-4.939-12.854-4.224-36.397 5.514-64.303 10.084-90.916 15.825-4.014.866-7.498 3.34-9.639 6.844-2.14 3.505-2.75 7.734-1.688 11.701l11.033 41.175c-9.061 2.251-18.822 5.152-29.07 8.619l-11.085-41.929c-1.058-3.998-3.718-7.382-7.353-9.353-3.638-1.972-7.924-2.354-11.85-1.058-20.011 6.603-39.546 14.444-59.719 23.973-7.093 3.35-10.406 11.599-7.603 18.924l16.752 43.773c-9.569 4.822-19.098 9.891-28.455 15.153l-15.45-40.375c-1.572-4.11-4.871-7.322-9.021-8.785-4.15-1.464-8.731-1.03-12.536 1.183-2.109 1.229-4.236 2.478-6.383 3.748-18.701 11.073-36.233 22.606-52.11 34.279-6.542 4.81-8.069 13.951-3.446 20.626l26.008 37.55c-8.436 6.667-16.641 13.673-24.383 20.981l-24.501-35.374c-2.526-3.646-6.537-5.988-10.954-6.396-4.423-.409-8.789 1.162-11.939 4.286-22.755 22.566-40.044 45.879-51.387 69.292-3.571 7.373-.568 16.247 6.747 19.934l41.341 20.841c-4.419 13.527-5.744 26.798-4.049 39.599l-34.055 34.055c-5.824-3.859-13.748-3.223-18.879 1.908-5.132 5.131-5.767 13.055-1.908 18.879l-53.861 53.864c-5.858 5.858-5.858 15.355 0 21.213 5.857 5.858 15.356 5.858 21.213 0l53.648-53.649 41.27 41.27-53.648 53.648c-5.858 5.858-5.858 15.355 0 21.213 5.857 5.858 15.356 5.858 21.213 0l53.861-53.861c5.891 3.892 13.786 3.184 18.879-1.908 5.132-5.131 5.767-13.055 1.908-18.879l34.045-34.045c13.401 1.73 26.169.284 39.609-4.059l20.841 41.342c3.701 7.387 12.721 10.287 19.935 6.747 23.412-11.343 46.726-28.632 69.292-51.386 6.533-6.278 5.459-17.915-2.109-22.894l-35.374-24.501c7.308-7.742 14.314-15.948 20.981-24.383l37.55 26.008c6.603 4.592 15.79 3.139 20.626-3.446 11.668-15.871 23.201-33.403 34.279-52.11 1.271-2.146 2.521-4.274 3.749-6.385 2.213-3.803 2.646-8.386 1.182-12.536-1.463-4.149-4.675-7.447-8.784-9.02l-40.376-15.452c5.262-9.357 10.331-18.886 15.153-28.455l43.774 16.752c1.76.674 3.571.994 5.357.994 5.647 0 11.021-3.208 13.567-8.597 9.556-20.232 17.415-39.82 24.025-59.882 2.79-7.9-2.228-17.187-10.364-19.184l-41.929-11.235c3.442-10.2 6.323-19.913 8.558-28.932l41.13 11.097c3.949 1.069 8.2.471 11.715-1.674 3.511-2.14 5.989-5.627 6.855-9.647 5.733-26.598 10.299-54.474 15.807-90.829.713-4.712-.855-9.483-4.225-12.853zm-197.691 72.926c9.594-4.234 19.086-8.077 28.61-11.582l7.689 29.085c-8.345 3.355-16.856 6.991-25.441 10.871zm-110.621 62.248c9.125-6.33 18.745-12.598 28.771-18.748l10.916 28.522c-7.44 4.652-15.032 9.618-22.617 14.871zm-70.127 60.313 17.559 25.352c-6.314 7.505-11.99 15.253-16.834 23.207l-26.818-13.52c6.965-11.692 15.69-23.407 26.093-35.039zm12.57 211.652-41.27-41.27 23.514-23.514c4.642 8.068 10.653 15.835 18.044 23.226 7.389 7.389 15.151 13.412 23.216 18.053zm21.501-62.771c-94.743-96.692 166.559-224.364 242.61-242.61-9.279 34.246-29.606 85.033-59.878 136.526-39.744 67.61-81.924 111.513-118.768 123.622-23.512 7.725-44.435 1.991-63.964-17.538zm113.842 60.163-13.519-26.817c7.954-4.844 15.701-10.52 23.206-16.833l25.352 17.559c-11.632 10.402-23.348 19.126-35.039 26.091zm95.352-96.219-24.646-17.07c5.253-7.585 10.219-15.177 14.871-22.617l28.522 10.916c-6.149 10.027-12.419 19.648-18.747 28.771zm73.906-139.439c-3.525 9.593-7.393 19.152-11.657 28.817l-28.375-10.859c3.927-8.687 7.602-17.299 10.991-25.74zm23.534-86.987-34.968-9.435c-.008-.027-.015-.054-.021-.082l-9.275-34.614c16.235-3.175 33.542-6.095 53.458-9.215-3.113 19.868-6.027 37.14-9.194 53.346z"/></svg>