<svg id="Capa_1" enable-background="new 0 0 512 512" height="512" viewBox="0 0 512 512" width="512" xmlns="http://www.w3.org/2000/svg"><g><path d="m302 263.5c0 24.813 20.187 45 45 45s45-20.187 45-45-20.187-45-45-45-45 20.187-45 45zm60 0c0 8.271-6.729 15-15 15s-15-6.729-15-15 6.729-15 15-15 15 6.729 15 15z"/><path d="m238.42 128.5c-6.192-17.458-22.865-30-42.42-30h-121c-24.813 0-45-20.187-45-45h-30c0 69.396 36.633 130.433 91.662 165h-16.662c-24.813 0-45-20.187-45-45h-30c0 85.956 66.48 156.771 151.01 164.332v60.668h135.99c11.517 0 22.032-4.354 30-11.495 7.968 7.142 18.483 11.495 30 11.495s22.032-4.354 30-11.495c7.968 7.142 18.483 11.495 30 11.495 5.258 0 10.305-.915 15-2.58v17.58c0 8.271-6.728 15-15 15v30h.006c57.892-.006 104.994-47.106 104.994-105 0-20.449 0-75.417 0-96.213l-128.787-128.787zm243.58 225c0 24.486-11.793 46.268-30 59.964v-74.964h30zm0-45h-60v45c0 8.271-6.729 15-15 15s-15-6.729-15-15h-30c0 8.271-6.729 15-15 15s-15-6.729-15-15h-30c0 8.271-6.729 15-15 15h-106v-60h-15c-48.859 0-91.777-25.713-115.759-64.219 7.756 2.721 16.084 4.219 24.759 4.219h121v-30c-66.851 0-124.591-39.487-150.873-96.224 9.16 3.994 19.259 6.224 29.873 6.224h121c8.271 0 15 6.729 15 15s-6.729 15-15 15v30c19.555 0 36.228-12.542 42.42-30h132.367l111.213 111.213z"/></g></svg>