<svg id="Layer_1" enable-background="new 0 0 512.082 512.082" height="512" viewBox="0 0 512.082 512.082" width="512" xmlns="http://www.w3.org/2000/svg"><path d="m493.804 18.017c-12.108-12.108-27.538-18.313-44.678-18.002-16.965.328-32.139 7.12-43.882 19.643l-267.322 285.064-1.694-1.694c-19.299-19.3-50.703-19.3-70.003 0-19.148 18.358-19.147 51.646 0 70.003l3.943 3.943-58.666 62.56c-15.701 16.741-15.276 42.577.966 58.818l1.26 1.26c16.249 16.249 42.085 16.658 58.816.967l62.562-58.666 3.948 3.948c9.65 9.649 22.325 14.474 35.001 14.474s25.353-4.825 35.003-14.475c19.299-19.3 19.299-50.704 0-70.003l-1.699-1.699 285.067-267.318c12.522-11.744 19.315-26.918 19.643-43.881.337-17.365-5.809-32.485-18.265-44.942zm-406.367 333.8c-7.509-7.191-7.509-20.385 0-27.577 7.191-7.509 20.386-7.509 27.577 0l2.376 2.376-26.691 28.463zm-35.414 126.878c-4.858 4.556-12.361 4.424-17.083-.297l-1.26-1.261c-4.722-4.721-4.852-12.225-.296-17.083 38.195-40.672 120.196-128.104 158.613-169.14l29.169 29.169zm135.821-81.626c7.603 7.603 7.603 19.974 0 27.577-7.603 7.604-19.974 7.603-27.577 0l-3.267-3.265 28.464-26.691zm284.061-312.111-228.844 214.594-30.532-30.532 214.598-228.841c6.255-6.67 13.641-9.997 22.579-10.17 8.919-.19 16.529 2.837 22.885 9.221 6.647 6.648 9.661 14.003 9.484 23.149-.173 8.937-3.5 16.323-10.17 22.579z"/></svg>