<svg id="Layer_1" enable-background="new 0 0 512.268 512.268" height="512" viewBox="0 0 512.268 512.268" width="512" xmlns="http://www.w3.org/2000/svg"><path d="m358.792 362.246c7.694-.933 13.411-7.574 13.188-15.322-.213-7.424-.118-14.796-.018-22.602.204-15.843.415-32.226-2.15-48.877-1.208-7.844-5.163-14.084-8.651-19.591-1.728-2.727-4.095-6.462-4.342-8.102-.728-4.829.24-10.679 1.265-16.873.994-6.013 2.121-12.828 1.896-19.985-.081-2.559-.143-5.122-.206-7.686-.417-17.111-.847-34.805-6.464-52.867-5.917-19.51-20.48-36.515-28.602-54.369-6.229-15.528-5.551-30.816-16.173-46.763-1.438-2.197-3.024-4.794-4.703-7.543-10.734-17.583-25.436-41.666-49.845-41.666-28.131 0-43.328 25.1-55.539 45.268-5.489 9.066-10.674 17.63-16.334 23.585-12.165 12.8-10.974 27.289-10.104 37.868.394 4.789.766 9.312-.233 12.267-.709 2.099-3.596 5.656-6.143 8.795-5.128 6.319-10.94 13.482-12.459 23.02-1.866 11.708.466 22.703 2.524 32.402 1.58 7.446 3.071 14.479 2.386 20.474-2.358 16.721-13.958 34.003-16.853 51.771-1.81 9.905-.872 19.395-.044 27.767 1.673 19.998 1.748 39.648 2.812 59.517.293 7.201 5.666 13.175 12.794 14.229 13.122 1.939 27.037 8.533 41.769 15.515 1.619.767 3.273 1.546 4.925 2.323v32.059c-.992 61.984 56.043 127.136 120.21 98.426 27.442-12.201 45.175-38.629 45.175-67.325 0-7.212-5.132-13.403-12.22-14.74l-39.834-7.515c-4.522-.853-7.331-4.243-7.331-8.846v-38.637zm-185.298-32.303c-.068-1.602-.136-3.205-.204-4.807-.454-10.729-.924-21.824-1.313-32.712-.15-4.206-.549-8.248-.936-12.156-.694-7.029-1.351-13.667-.298-19.426 1.232-6.744 4.207-13.968 7.356-21.616 9.96-22.779 13.016-38.092 6.946-62.245-1.662-7.841-3.234-15.248-2.247-21.442.355-1.735 3.971-6.191 6.131-8.853 4.14-5.102 8.833-10.885 11.269-18.094 2.985-8.833 2.279-17.425 1.711-24.329-.756-9.191-.598-12.062 1.951-14.744 7.896-8.308 14.176-18.682 20.25-28.714 11.268-18.608 19.434-30.805 29.877-30.805 7.575 0 18.416 17.758 24.24 27.298 1.807 2.958 3.512 5.753 5.212 8.348 3.944 6.022 5.516 12.932 7.335 20.933 1.496 6.582 3.192 14.042 6.492 21.513 3.781 8.562 8.722 16.593 13.501 24.36 5.786 9.403 11.25 18.285 13.897 26.798 4.375 14.067 4.736 28.941 5.12 44.689.064 2.636.128 5.27.211 7.9.133 4.219-.665 9.041-1.509 14.146-1.296 7.838-2.766 16.722-1.332 26.238 1.188 7.888 5.161 14.157 8.665 19.688 1.726 2.723 4.088 6.453 4.342 8.102 2.186 14.189 2 28.633 1.804 43.924-.043 3.338-.087 6.726-.104 10.142l-32.375 3.925v-20.745c0-8.284-6.716-15-15-15h-76c-8.284 0-15 6.716-15 15v24.385c-9.751-4.53-19.719-8.832-29.992-11.701zm137.763 115.243 25.844 4.875c-4.195 13.779-15.175 23.181-25.593 27.813-17.359 7.718-36.099 4.771-50.129-7.886-17.726-15.992-27.892-39.001-27.892-63.129v-74.602h46v74.602c0 19.038 13.064 34.799 31.77 38.327z"/></svg>