<svg id="Capa_1" enable-background="new 0 0 512 512" height="512" viewBox="0 0 512 512" width="512" xmlns="http://www.w3.org/2000/svg"><g><path d="m225 301c24.813 0 45-20.187 45-45s-20.187-45-45-45-45 20.187-45 45 20.187 45 45 45zm0-60c8.271 0 15 6.729 15 15s-6.729 15-15 15-15-6.729-15-15 6.729-15 15-15z"/><path d="m467 91h-318.509c-6.969-34.192-37.272-60-73.491-60-41.355 0-75 33.645-75 75 0 24.813 20.187 45 45 45 5.258 0 10.305-.915 15-2.58v47.58c0 24.813-20.187 45-45 45h-15v120h15c21.706 0 41.28-9.275 54.987-24.062 20.146 49.261 68.588 84.052 125.013 84.052h17.581c-1.665 4.695-2.58 9.752-2.58 15.01 0 24.813 20.187 45 45 45 41.355 0 75-33.645 75-75 0-16.871-5.603-32.456-15.041-45h92.04c24.813 0 45-20.187 45-45 0-5.856-1.136-11.449-3.181-16.586 19.096-5.205 33.181-22.691 33.181-43.414 0-5.856-1.136-11.449-3.181-16.586 19.096-5.205 33.181-22.691 33.181-43.414 0-11.517-4.354-22.032-11.495-30 7.142-7.968 11.495-18.483 11.495-30 0-24.813-20.187-45-45-45zm-212 360c-8.271 0-15-6.729-15-15s6.729-15 15-15h15v-30c-7.834 0-64.873 0-75 0-57.897 0-105-47.103-105-105h-30c0 19.556-12.539 36.239-30 42.43v-58.937c34.191-6.969 60-37.274 60-73.493v-105h-30v15c0 8.271-6.729 15-15 15s-15-6.729-15-15c0-24.813 20.187-45 45-45s45 20.187 45 45v150c0 57.897 47.103 105 105 105h30c24.813 0 45 20.187 45 45s-20.187 45-45 45zm-105-195c0-41.355 33.645-75 75-75s75 33.645 75 75-33.645 75-75 75-75-33.645-75-75zm317-75c8.271 0 15 6.729 15 15s-6.729 15-15 15h-96v30h66c8.271 0 15 6.729 15 15s-6.729 15-15 15c-7.329 0-59.341 0-66 0v30h36c8.271 0 15 6.729 15 15s-6.729 15-15 15h-108.596c19.483-19.073 31.596-45.646 31.596-75 0-57.897-47.103-105-105-105-29.354 0-55.927 12.113-75 31.596v-61.596h317c8.271 0 15 6.729 15 15s-6.729 15-15 15h-91v30z"/></g></svg>