<svg id="Capa_1" enable-background="new 0 0 512 512" height="512" viewBox="0 0 512 512" width="512" xmlns="http://www.w3.org/2000/svg"><g><path d="m472.679 122.569c-29.916-14.875-65.142-7.843-87.314 14.944-5.176-12.557-13.656-23.415-24.365-31.472v-106.041h-90v106.041c-5.678 4.272-10.733 9.329-15 15.011-4.267-5.682-9.322-10.739-15-15.011v-106.041h-90v106.041c-10.707 8.056-19.186 18.911-24.362 31.465-22.162-22.778-57.395-29.814-87.316-14.937l-13.432 6.678 85.9 172.753h-50.79v90h120v15c0 8.271-6.729 15-15 15h-15v90h15c38.151 0 71.611-20.455 90-50.971 18.389 30.516 51.849 50.971 90 50.971h15v-90h-15c-8.271 0-15-6.729-15-15v-15h120v-90h-50.789l85.898-172.753zm-171.679-92.569h30v62.509c-4.848-.988-9.864-1.509-15-1.509s-10.152.521-15 1.509zm-30 136c0-24.813 20.187-45 45-45s45 20.187 45 45v12.504l-16.142 32.496h-73.858zm58.955 75-30.302 61h-87.306l-30.302-61zm-148.955-211h30v62.509c-4.848-.988-9.864-1.509-15-1.509s-10.152.521-15 1.509zm-30 136c0-24.813 20.187-45 45-45s45 20.187 45 45v45h-73.858l-16.142-32.496zm-83.747-20.948c18.403-2.239 37.099 7.093 45.833 24.561l65.764 132.387h-33.556zm23.747 216.948v-30h120v30c-10.726 0-103.798 0-120 0zm150 45c0 36.219-25.809 66.524-60 73.493v-31.063c17.461-6.191 30-22.874 30-42.43v-15h30zm0-45v-30h30v30zm90 118.493c-34.19-6.969-60-37.274-60-73.493v-15h30v15c0 19.556 12.539 36.239 30 42.43zm90-148.493v30c-10.187 0-103.847 0-120 0v-30zm-54.294-30h-33.556l65.746-132.353c8.749-17.496 27.436-26.837 45.851-24.595z"/></g></svg>