<svg id="Layer_1" enable-background="new 0 0 511.749 511.749" height="512" viewBox="0 0 511.749 511.749" width="512" xmlns="http://www.w3.org/2000/svg"><g><path d="m424.013 176.805c-47.688-75.656-118.553-124.258-185.019-121.496-7.12-2.194-14.394-3.76-21.776-4.664v-35.74c-.738-19.881-29.269-19.866-30 0v35.74c-98.755 10.261-159.568 141.002-140.843 238.004 7.762 48.631 30.71 93.133 66.363 128.696 23.103 23.044 39.489 45.122 54.791 73.824 14.192 27.444 55.192 27.435 69.377-.001 12.362-23.187 25.437-42.051 42.186-60.596 15.285 8.335 30.714 14.367 46 17.968 28.707 6.762 51.823 15.978 77.293 30.814 11.85 6.904 26.455 6.675 38.115-.58 11.667-7.259 18.319-20.263 17.361-33.938-2.059-29.402-.114-54.211 6.503-82.955 12.649-54.953-2.435-124.14-40.351-185.076zm-213.579 300.249c-3.577 6.63-13.043 6.368-16.432.001-16.558-31.056-35.086-56.022-60.077-80.95-72.023-71.841-69.086-166.242-44.687-225.252 23.242-56.211 66.534-91.131 112.98-91.131 129.923 8.306 176.036 213.746 68.294 316.383-24.993 24.929-43.522 49.895-60.078 80.949zm224.694-121.902c-7.222 31.376-9.44 59.682-7.192 91.78.262 3.743-2.209 5.702-3.284 6.371-1.074.669-3.925 2.019-7.166.131-27.805-16.197-54.179-26.712-85.515-34.093-10.327-2.433-20.817-6.257-31.339-11.399 30.558-33.872 50.337-74.857 57.431-119.294 10.339-63.302-6.77-134.808-47.58-183.771 32.669 18.671 64.197 49.429 88.059 87.778 33.82 54.352 47.497 115.099 36.586 162.497z"/><path d="m293.75 301.601c0-10.899-3.687-20.947-9.869-28.983 23.058-19.397 20.304-57.268-5.049-73.243 17.22-28.971-4.968-67.446-38.852-66.97h-7.961c-11.421 0-21.852 4.305-29.77 11.37-7.918-7.065-18.349-11.37-29.77-11.37h-7.961c-33.877-.474-56.055 37.973-38.87 66.94-25.402 15.965-28.165 53.868-5.097 73.273-22.776 28.723-3.67 72.971 32.72 76.35-5.493 27.131 16.243 53.489 43.964 53.187h9.962c27.72.304 49.458-26.058 43.964-53.187 23.903-2.53 42.589-22.805 42.589-47.367zm-47.636 17.637h-11.258c-9.579 0-17.637-8.098-17.637-17.637 0-9.725 7.912-17.637 17.637-17.637h11.258c23.362.885 23.362 34.39 0 35.274zm-95.429-97.333 21.285.038c20.655 1.685 19.983 31.225-.752 31.961h-20.533c-21.202-.806-21.187-31.199 0-31.999zm103.066 0c21.201.807 21.186 31.2 0 32h-20.533c-20.75-.744-21.393-30.284-.752-31.961zm-21.731-59.5h7.961c19.12.681 19.761 27.886.752 29.5 0 0-8.381.021-8.814.033-19.5-.865-19.393-28.804.101-29.533zm-67.5 0h7.961c19.522.738 19.58 28.702.079 29.535-.447-.013-8.792-.034-8.792-.034-19.006-1.572-18.335-28.875.752-29.501zm-23.835 139.196c0-9.725 7.912-17.637 17.637-17.637h11.258c17.795.105 24.179 23.441 9.23 32.637-1.005.456-1.996.938-2.96 1.464-1.951.746-4.059 1.172-6.27 1.172h-11.258c-9.726.001-17.637-7.911-17.637-17.636zm66.514 70.554h-9.962c-8.144 0-14.769-6.625-14.769-14.769 0-7.911 6.838-14.769 14.769-14.769h9.962c19.51.953 19.621 28.7 0 29.538z"/></g></svg>