<svg id="Capa_1" enable-background="new 0 0 512 512" height="512" viewBox="0 0 512 512" width="512" xmlns="http://www.w3.org/2000/svg"><g><path d="m512 466v-240h-30v-150h30v-30h-210v30h30v150h-30v60h-85.188l30-90h-221.624l30 90h-55.188v180zm-150-390h90v150h-90zm-30 180h150v180h-150c0-7.853 0-171.408 0-180zm-181-30h54.188l-20 60h-34.188zm-30 0v60h-34.188l-20-60zm-91 90h272v120h-272z"/><path d="m407 286c-24.813 0-45 20.187-45 45v75h90v-75c0-24.813-20.187-45-45-45zm15 90h-30v-45c0-8.271 6.729-15 15-15s15 6.729 15 15z"/><path d="m121 46h-30c0 8.431-3.252 12.039-10.606 19.393-8.185 8.185-19.394 19.394-19.394 40.607s11.209 32.422 19.394 40.607c7.354 7.354 10.606 10.962 10.606 19.393h30c0-21.213-11.209-32.422-19.394-40.607-7.354-7.354-10.606-10.962-10.606-19.393s3.252-12.039 10.606-19.393c8.185-8.185 19.394-19.394 19.394-40.607z"/><path d="m211 46h-30c0 8.431-3.252 12.039-10.606 19.393-8.185 8.185-19.394 19.394-19.394 40.607s11.209 32.422 19.394 40.607c7.354 7.354 10.606 10.962 10.606 19.393h30c0-21.213-11.209-32.422-19.394-40.607-7.354-7.354-10.606-10.962-10.606-19.393s3.252-12.039 10.606-19.393c8.185-8.185 19.394-19.394 19.394-40.607z"/></g></svg>