<svg id="Layer_1" enable-background="new 0 0 512.001 512.001" height="512" viewBox="0 0 512.001 512.001" width="512" xmlns="http://www.w3.org/2000/svg"><path d="m508.699 457.086c-22.53-30.998-86.127-58.254-135.632-67.711 55.977-20.68 113.535-65.176 136.167-109.519 2.284-4.281 2.357-9.402.195-13.746s-6.292-7.374-11.085-8.132c-28.421-4.496-61.569-1.248-95.278 8.911 24.332-45.118 36.976-92.042 35.284-133.032-.2-4.848-2.733-9.3-6.799-11.949-4.065-2.65-9.164-3.168-13.677-1.392-35.447 13.937-71.058 41.73-101.332 78.457-2.713-60.758-18.794-119.946-48.248-162.091-5.708-8.475-18.883-8.473-24.59 0-29.779 42.609-45.88 102.641-48.324 164.103-30.55-37.725-66.651-66.167-103.03-80.47-4.516-1.775-9.611-1.256-13.677 1.392-4.065 2.649-6.599 7.101-6.799 11.949-1.68 40.704 10.861 87.454 34.97 132.411-32.988-9.668-65.357-12.691-93.189-8.289-4.793.758-8.923 3.788-11.085 8.132-2.162 4.344-2.089 9.465.195 13.746 22.615 44.329 80.207 88.851 136.166 109.519-49.522 9.466-113.082 36.703-135.631 67.711-3.612 4.5-4.322 10.673-1.826 15.876 2.495 5.203 7.754 8.513 13.524 8.513h482c5.771 0 11.029-3.31 13.524-8.513 2.499-5.203 1.789-11.376-1.823-15.876zm-222.867-79.687c39.714-51.122 118.968-90.573 183.694-91.429-39.712 51.122-118.966 90.573-183.694 91.429zm121.69-218.647c-4.279 39.964-22.45 85.591-50.913 126.464-12.874 6.104-39.642 21.921-52.403 32.507 5.727-21.279 9.524-43.813 11.39-66.762 22.607-35.694 59.433-74.653 91.926-92.209zm-151.522-84.283c41.251 79.327 41.251 206.732 0 286.058-41.251-79.326-41.251-206.732 0-286.058zm-113 194.509c-22.315-36.417-36.54-75.48-40.282-110.173 34.32 19.79 68.261 54.175 94.001 95.901 1.963 21.655 5.661 42.896 11.076 63.017-15.249-11.822-32.372-22.563-50.832-31.741-1.432-.712-2.867-1.409-4.304-2.097-.1-.159-6.679-10.044-9.659-14.907zm-100.526 16.992c64.724.862 143.983 40.312 183.693 91.429-64.723-.862-143.983-40.312-183.693-91.429zm13.641 165.504c103.606-59.124 296.107-59.152 399.771 0z"/></svg>