<svg id="Capa_1" enable-background="new 0 0 511.809 511.809" height="512" viewBox="0 0 511.809 511.809" width="512" xmlns="http://www.w3.org/2000/svg"><g><path d="m22.905 511.809h420v-150h-30v-31h30v-150h46v-30c-24.935 0-46-20.607-46-45v-105.809c-47.786 6.546-116.645 14.809-165 14.809-48.372 0-117.319-8.279-165-14.808v105.808c0 24.813-20.187 45-45 45v30h45v181h-30v60h-60v90zm210-30h-30v-90h30zm0-120c-10.534 0-75.727 0-90 0v-61h90zm-90-91v-30h180v30h-30v91h-30v-91zm270 211h-150v-30h150zm0-60h-150v-30h150zm0-121h-30v61h-60v-61h30v-90h-210v-30h270zm-30-263.053c11.684-1.262 22.016-2.489 30-3.479v25.532h-30zm-60 5.344c10.061-.665 20.189-1.481 30-2.365v19.073h-30zm-60 1.473c5.158.15 10.185.236 15 .236s9.842-.086 15-.236v15.236h-30zm-60-3.837c9.811.883 19.939 1.699 30 2.365v16.709h-30zm-60-6.459c7.984.99 18.317 2.217 30 3.479v22.053h-30zm0 71.532v-16h270v16c0 16.417 5.385 32.054 15.342 45h-300.377c9.435-12.543 15.035-28.131 15.035-45zm-30 286h60v30h-60zm-60 60h120v30h-120z"/></g></svg>