<svg id="Layer_1" enable-background="new 0 0 512 512" height="512" viewBox="0 0 512 512" width="512" xmlns="http://www.w3.org/2000/svg"><g><path d="m503.959 260.674c-2.606-10.06-10.532-40.674-32.959-40.674h-430c-22.427 0-30.354 30.614-32.959 40.674-10.623 38.776-10.463 109.3-.598 147.511 6.732 27.083 18.023 40.815 33.557 40.815h17.632c-.049.555-3.157 36.2-4.075 46.693-.366 4.189 1.043 8.34 3.885 11.441 2.84 3.1 6.853 4.866 11.058 4.866h74c4.205 0 8.218-1.766 11.059-4.866 2.842-3.101 4.251-7.251 3.885-11.441-.918-10.493-3.632-41.623-4.077-46.693h203.265c-.049.555-3.158 36.201-4.075 46.694-.365 4.189 1.044 8.34 3.885 11.44 2.841 3.101 6.854 4.866 11.059 4.866h74c4.205 0 8.218-1.766 11.059-4.866 2.842-3.101 4.251-7.251 3.885-11.441-.812-9.268-3.632-41.623-4.077-46.693h17.632c15.534 0 26.825-13.732 33.557-40.815 9.865-38.219 10.025-108.728-.598-147.511zm-376.825 221.326h-41.268c.441-5.064 2.756-31.572 2.881-33h35.505c.521 5.938 2.44 27.935 2.882 33zm299 0h-41.268c.441-5.065.882-10.129 1.322-15.192l1.183-13.525c.125-1.428.251-2.855.376-4.283h35.505c.521 5.937 2.547 29.162 2.882 33zm42.444-63h-425.156c-17.602-23.04-17.597-143.83.596-169h423.965c18.348 25.553 18.037 146.433.595 169z"/><path d="m420 310c19.881-.738 19.866-29.269 0-30h-328c-19.881.738-19.866 29.269 0 30h149v30.083h-149c-19.881.738-19.866 29.269 0 30h328c19.881-.738 19.866-29.269 0-30h-149v-30.083z"/><path d="m109.496 190h36.508c16.126 0 29.246-13.12 29.246-29.246v-3.254h241.5c19.881-.738 19.866-29.269 0-30h-241.5v-3.253c0-16.127-13.12-29.247-29.246-29.247h-36.508c-16.126 0-29.246 13.12-29.246 29.247v36.507c0 16.126 13.12 29.246 29.246 29.246zm.754-65h35v35h-35z"/><path d="m95.25 62.5h241.5v3.254c0 16.126 13.12 29.246 29.246 29.246h36.508c16.126 0 29.246-13.12 29.246-29.246v-36.507c0-16.127-13.12-29.247-29.246-29.247h-36.508c-16.126 0-29.246 13.12-29.246 29.247v3.253h-241.5c-19.881.738-19.866 29.269 0 30zm271.5-32.5h35v35h-35z"/></g></svg>