<svg id="Layer_1" enable-background="new 0 0 512 512" height="512" viewBox="0 0 512 512" width="512" xmlns="http://www.w3.org/2000/svg"><path d="m313.331 38c-59.587 0-112.249 30.198-143.5 76.089v-99.089c0-8.284-6.716-15-15-15h-114c-8.284 0-15 6.716-15 15v482c0 8.284 6.716 15 15 15h114c8.284 0 15-6.716 15-15v-188.18c21.284 31.5 53.291 55.594 88.98 67.368-35.244 44.149-2.449 111.958 54.522 111.441 56.963.518 89.769-67.302 54.521-111.44 185.218-65.717 142.301-333.994-54.523-338.189zm143.5 173.5c0 14.641-2.253 28.854-6.439 42.285l-43.96-42.284 44.02-42.343c4.144 13.389 6.379 27.609 6.379 42.342zm-19.197-71.638-43.202 41.556c-8.728-23.455-27.355-42.131-50.778-50.927l41.975-42.903c21.533 12.612 39.505 30.668 52.005 52.274zm-124.303 209.596c-7.865 0-15.418 1.339-22.467 3.771-6.795-1.076-13.424-2.63-19.854-4.629l42.321-43.998 42.332 44.009c-6.43 1.995-13.061 3.544-19.858 4.62-7.051-2.433-14.607-3.773-22.474-3.773zm0-81.458c-31.154 0-56.5-25.346-56.5-56.5 2.84-74.851 110.171-74.831 113 .001 0 31.153-25.346 56.499-56.5 56.499zm43.039-193.404-43.114 44.067-43.54-43.88c27.075-8.922 59.527-8.996 86.654-.187zm-115.888 13.317 42.323 42.654c-23.454 8.876-42.077 27.663-50.72 51.229l-43.66-40.873c12.417-21.888 30.419-40.206 52.057-53.01zm-70.651 123.587c0-14.326 2.12-28.164 6.046-41.229l44.128 41.311-43.872 41.689c-4.099-13.288-6.302-27.327-6.302-41.771zm-30 270.5h-84v-452h84zm49.053-199.463 43.28-41.126c8.731 23.617 27.491 42.411 51.084 51.19l-41.491 43.134c-22.005-12.798-40.26-31.259-52.873-53.198zm124.447 175.093c-21.552 0-39.086-17.534-39.086-39.086 1.965-51.782 76.216-51.768 78.173 0 0 21.552-17.535 39.086-39.087 39.086zm71.599-121.868-41.516-43.161c23.536-8.758 42.261-27.483 51.019-51.019l43.106 41.463c-12.597 21.742-30.745 40.023-52.609 52.717z"/></svg>