<svg id="Capa_1" enable-background="new 0 0 512 512" height="512" viewBox="0 0 512 512" width="512" xmlns="http://www.w3.org/2000/svg"><g><path d="m322 149.048h-162.316l-99.684-116.096v100.218l-60-69.414v190.292c0 28.543 11.454 54.458 30 73.404v151.596h347c35.53 0 65.347-24.843 73.048-58.064 18.469 5.606 31.952 22.787 31.952 43.064v15h30v-75c0-16.871-5.603-32.456-15.041-45h15.041v-120h-70zm-262 300v-100.145c13.647 6.5 28.905 10.145 45 10.145h15.844c3.995 35.308 22.053 67.322 50.488 90zm362-60h-30v-30h30zm60 15.041c-8.725-6.565-18.922-11.274-30-13.532v-28.929c17.459 6.192 30 22.865 30 42.42zm0-75.041h-180v89.99l117.43.01c-6.191 17.461-22.874 30-42.43 30h-120c-59 0-107-47.103-107-105v-15h-45c-41.355 0-75-33.645-75-75v-109.709l86.357 99.909c1.662 1.923 3.643 5.183 3.643 9.8 0 8.271-6.729 15-15 15s-15-6.729-15-15h-30c0 24.813 20.187 45 45 45s45-20.187 45-45c0-10.804-3.887-21.251-10.945-29.417-.101 0-2.874 0 0 0l-49.055-56.753v-53.936l55.902 65.105h166.098l120 90h50zm-120 30v30h-30v-30z"/><path d="m287 209.048c-24.813 0-45 20.187-45 45s20.187 45 45 45 45-20.187 45-45-20.187-45-45-45zm0 60c-8.271 0-15-6.729-15-15s6.729-15 15-15 15 6.729 15 15-6.729 15-15 15z"/></g></svg>