<svg id="Layer_1" enable-background="new 0 0 511.995 511.995" height="512" viewBox="0 0 511.995 511.995" width="512" xmlns="http://www.w3.org/2000/svg"><path d="m511.995 264.508v-4.517c.004-35.926-23.166-66.232-60.468-79.09l-177.523-61.19c-20.208-27.679-69.164-35.04-101.296-18.661-16.45-50.152-70.208-75.664-123.516-62.417-4.639 1.125-8.465 4.39-10.305 8.793-10.1 24.168-11.921 50.125-5.449 73.201-9.645 4.012-18.976 9.435-27.686 16.255-3.758 2.942-5.891 7.498-5.746 12.269.795 26.002 9.695 50.119 24.878 68.385-9.18 8.853-17.102 19.517-23.268 31.701-2.155 4.258-2.155 9.289 0 13.547 6.168 12.187 14.091 22.852 23.274 31.706-15.172 18.273-24.09 42.45-24.884 68.379-.146 4.771 1.987 9.326 5.746 12.269 8.709 6.819 18.039 12.238 27.681 16.25-6.464 23.074-4.627 49.084 5.454 73.205 1.84 4.404 5.667 7.668 10.305 8.793 37.859 9.684 81.075-1.199 105.672-30.702 7.164-8.395 12.781-18.008 16.667-28.405 8.513 3.363 17.773 5.232 27.467 5.232h243.986c38.048 0 69.002-30.955 69.002-69.003v-6c0-4.211-1.741-8.012-4.536-10.736l-36.521-54.267h26.063c8.286.002 15.002-6.713 15.003-14.997zm-94.23 65 25.328-37.634 25.327 37.634zm-151.762-.002c-31.735-1.298-31.98-48.842 0-49.999h33.661s-33.649 49.999-33.661 49.999zm36.173 0 25.327-37.633 25.327 37.634zm-7.21-85.764c-9.69 0-17.573-7.883-17.573-17.573.884-23.28 34.266-23.274 35.146 0 0 9.69-7.883 17.573-17.573 17.573zm-48.11-109.479c8.392 7.964 12.647 20.496 12.647 37.247 0 14.644-13.538 19.96-22.638 19.96-5.064 0-9.513-1.451-12.526-4.084-3.209-2.805-4.836-7.138-4.836-12.878 0-8.284-6.716-15-15-15s-15 6.716-15 15c0 18.41 8.208 29.448 15.093 35.466 10.898 9.788 28.154 13.584 43.161 10.411-1.318 10.048.948 20.726 5.778 29.122h-45.032c-35.122.611-54.789-26.892-54.674-60.381 0-33.105 19.102-66.618 55.612-66.618 16.608 0 29.196 3.955 37.415 11.755zm-214.683 121.747c20.041-33.055 58.737-47.169 91.827-29.632v59.274c-33.01 17.566-71.821 3.384-91.827-29.642zm31.702-189.737c26.858-4.177 52.469 4.133 68.17 22.535 7.855 9.205 12.952 20.499 14.901 32.89-3.687 4.408-6.848 9.147-9.683 14.272-6.761-5.995-14.313-10.964-22.601-14.845-16.299-7.632-34.286-10.258-52.209-8.152-4.184-14.484-3.708-30.818 1.422-46.7zm-33.325 89.702c22.728-14.917 49.479-17.94 71.388-7.682 9.419 4.411 17.463 10.927 23.97 19.333-1.656 8.544-2.36 17.425-1.978 26.185-24.409-8.442-51.95-6.064-74.676 6.051-10.198-11.55-16.765-26.897-18.704-43.887zm18.709 156.186c22.752 12.126 50.306 14.493 74.74 6.017v26.335c0 .735.034 1.462.056 2.192-6.167 7.3-13.586 13.027-22.117 17.022-21.907 10.259-48.659 7.233-71.386-7.681 1.942-16.961 8.52-32.338 18.707-43.885zm14.617 133.585c-5.12-15.867-5.595-32.227-1.415-46.707 17.782 2.141 35.902-.502 52.2-8.144 6.511-3.049 12.57-6.781 18.154-11.15 3.411 6.381 7.716 12.211 12.749 17.328-8.955 35.435-44.295 54.73-81.688 48.673zm379.11-56.234h-243.986c-24.813 0-45-20.187-45-45v-83.897c16.858 14.837 39.576 20.001 63.647 18.891-1.015 0-2.146 3.211-3.088 6.807-10.992 36.285 14.219 73.07 51.442 73.192 0 0 214.938.003 214.938.003-4.073 17.183-19.544 30.004-37.953 30.004zm-57.688-65.492-29.956-44.513h59.913zm-48.901-74.513c19.309-33.355-9.077-75.789-47.443-70.517 1.055-7.328.441-15.493-.428-22.541l153.225 52.815c21.269 7.332 35.304 21.98 39.164 40.243z"/></svg>