<svg id="Capa_1" enable-background="new 0 0 512 512" height="512" viewBox="0 0 512 512" width="512" xmlns="http://www.w3.org/2000/svg"><g><path d="m347 0c-65.055 0-120.204 38.032-147.116 91h-109.884v-91h-90v512h90v-271h110.052c27.356 53.382 82.956 90 146.948 90 90.981 0 165-74.019 165-165 0-90.993-73.861-166-165-166zm-287 482h-30v-452h30zm30-271v-90.01h98.178c-4.069 14.49-6.178 29.598-6.178 45.01 0 15.594 2.176 30.69 6.238 45zm272-180.156c26.193 2.93 50.145 13.439 69.647 29.296l-21.798 21.798c-13.743-10.302-30.086-17.31-47.849-19.862zm-30 0v31.232c-17.763 2.552-34.106 9.56-47.849 19.862l-21.798-21.798c19.502-15.857 43.454-26.366 69.647-29.296zm-90.706 50.663 21.644 21.644c-10.301 13.743-17.31 30.086-19.862 47.849h-30.251c2.854-26.081 13.054-49.962 28.469-69.493zm-28.456 99.493h30.238c2.552 17.763 9.56 34.106 19.862 47.849l-21.367 21.367c-15.547-19.424-25.846-43.216-28.733-69.216zm119.162 119.162c-26-2.887-49.792-13.186-69.216-28.733l21.367-21.367c13.743 10.301 30.086 17.31 47.849 19.862zm-60-134.162c0-41.355 33.645-75 75-75s75 33.645 75 75-33.645 75-75 75-75-33.645-75-75zm90 134.162v-30.238c17.763-2.552 34.106-9.56 47.849-19.862l21.367 21.367c-19.424 15.547-43.216 25.846-69.216 28.733zm90.429-49.946-21.367-21.367c10.301-13.743 17.31-30.086 19.862-47.859h30.238c-2.887 26.01-13.186 49.802-28.733 69.226zm-1.505-99.216c-2.552-17.763-9.56-34.106-19.862-47.849l21.644-21.644c15.415 19.531 25.615 43.413 28.469 69.493z"/><path d="m422 436c0-41.355-33.645-75-75-75s-75 33.645-75 75c0 41.459 33.535 76 75 76 41.458 0 75-34.535 75-76zm-120 0c0-24.813 20.187-45 45-45s45 20.187 45 45c0 24.935-20.607 46-45 46s-45-21.065-45-46z"/></g></svg>