<svg id="Capa_1" enable-background="new 0 0 512 512" height="512" viewBox="0 0 512 512" width="512" xmlns="http://www.w3.org/2000/svg"><g><path d="m106 391h15v121h210v-60h181v-144.522l-161.869-96.478h-4.172c9.438-12.544 15.041-28.129 15.041-45 0-24.813-20.187-45-45-45h-15v15c0 8.271-6.729 15-15 15s-15-6.729-15-15c0-24.505 35.047-46 75-46s75 21.495 75 46h30c0-74.991-60.561-136-135-136-39.881 0-76.996 17.313-102.475 47.081-13.286-10.904-30.063-17.081-47.525-17.081-41.355 0-75 33.645-75 75h30c0-8.271 6.729-15 15-15s15 6.729 15 15c0 42.808 19.74 81.052 50.525 106h-1.984l-138.541-69.271v90.177l-61-30v84.094c0 57.897 47.551 105 106 105zm75-286c0-19.556-12.539-36.239-30-42.43 4.693-1.664 9.743-2.57 15-2.57 14.478 0 28.189 7.116 36.68 19.036l12.873 18.072 11.974-18.681c19.435-30.323 52.509-48.427 88.473-48.427 33.223 0 62.886 15.661 82.14 40.05-15.371-6.392-33.176-10.05-52.14-10.05-57.897 0-105 34.093-105 76 0 24.813 20.187 45 45 45 17.872 0 33.344-10.471 40.602-25.602 2.715 2.716 4.398 6.466 4.398 10.602 0 24.813-20.187 45-45 45-57.897 0-105-47.551-105-106zm-151 145.093 31.643 15.562c4.754 36.808 36.275 65.345 74.357 65.345v-30c-24.813 0-45-20.187-45-45v-65.729l101.459 50.729h149.41l140.131 83.522v97.478h-226c-8.271 0-15-6.729-15-15h-30c0 24.813 20.187 45 45 45h45v30h-150v-121h-45c-41.907 0-76-33.645-76-75z"/><path d="m286 361c24.813 0 45-20.187 45-45s-20.187-45-45-45-45 20.187-45 45 20.187 45 45 45zm0-60c8.271 0 15 6.729 15 15s-6.729 15-15 15-15-6.729-15-15 6.729-15 15-15z"/></g></svg>