<svg id="Layer_1" enable-background="new 0 0 512 512" height="512" viewBox="0 0 512 512" width="512" xmlns="http://www.w3.org/2000/svg"><g><path d="m511.807 332.181-32.923-203.447c-10.8-66.727-67.32-115.158-134.394-115.158h-177.003c-67.082 0-123.604 48.437-134.396 115.172l-32.898 203.435c-.87 5.377 1.244 10.802 5.521 14.174 4.278 3.373 10.047 4.16 15.072 2.06l46.939-19.623-4.525 26.796c-2.333 13.829-4.667 27.669-6.993 41.5-.731 4.352.49 8.805 3.34 12.175 2.85 3.369 7.039 5.312 11.452 5.312h76c4.415 0 8.605-1.945 11.455-5.316 2.85-3.372 4.07-7.827 3.336-12.18l-6.377-37.798c10.782 10.159 23.913 18.141 38.877 23.214l14.574 4.94c3.769 10.259 1.899 16.307-1.996 26.894-4.995 12.794-7.736 26.074-4.335 40.966 11.164 57.517 95.785 57.484 106.934 0 3.403-14.891.656-28.183-4.335-40.966-3.896-10.592-5.765-16.634-1.996-26.895l14.573-4.94c14.422-4.889 27.131-12.491 37.687-22.129-2.064 12.239-4.13 24.483-6.188 36.72-.732 4.352.489 8.806 3.34 12.175 2.85 3.37 7.039 5.313 11.452 5.313h76c4.414 0 8.604-1.945 11.455-5.316 2.85-3.371 4.07-7.827 3.336-12.18l-11.572-68.58 48.032 19.93c4.994 2.077 10.772 1.298 15.052-2.087 4.267-3.371 6.374-8.791 5.504-14.161zm-387.807-26.604c0 8.271-6.729 15-15 15-19.872-.754-19.867-29.249 0-30.001 8.271.001 15 6.73 15 15.001zm-35.264 79c1.348-8 2.698-16 4.047-23.996l2.076-12.293c8.812 3.029 19.464 3.03 28.277.002l6.122 36.287zm191.311 64.851c-4.986 25.69-43.102 25.703-48.094.001-2.127-9.284-.394-15.448 3.178-25.039 7.171-18.332 7.948-32.104.703-50.824-.283-1.943-.941-3.802-1.93-5.477-5.452-13.248-1.973-23.239 2.328-36.937.381-1.211.766-2.433 1.147-3.665h37.238c.382 1.233.767 2.455 1.147 3.667 2.691 8.547 5.233 16.621 5.233 24.083 0 4.737-2.007 10.375-4.132 16.345-7.695 19.614-7.685 33.218 0 52.809 3.576 9.594 5.309 15.751 3.182 25.037zm30.914-96.383c-.315-9.122-2.535-17.7-4.919-25.558h4.958c19.881-.738 19.866-29.269 0-30h-110c-19.881.738-19.866 29.269 0 30h4.958c-2.384 7.858-4.604 16.436-4.918 25.558-29.288-11.203-48.04-38.353-48.04-69.99v-121.478c0-8.271 6.729-15 15-15h176c8.271 0 15 6.729 15 15v121.478c0 31.637-18.752 58.787-48.039 69.99zm91.039-32.468c-8.271 0-15-6.729-15-15 .754-19.872 29.249-19.867 30 0 0 8.271-6.729 15-15 15zm-20.264 64c1.349-8 2.697-16 4.047-23.997l2.075-12.293c8.812 3.029 19.464 3.03 28.276.002l6.123 36.287h-40.521zm64.482-87.311c-4.244-25.436-32.112-42.842-57.218-34.767v-100.922c0-24.813-20.187-45-45-45h-176c-24.813 0-45 20.187-45 45v101.241c-25.343-8.853-54.126 8.749-58.265 34.71l-30.618 12.8 28.59-176.79c8.43-52.127 52.496-89.961 104.78-89.961h177.004c52.277 0 96.343 37.83 104.778 89.95l28.624 176.882z"/><path d="m320.998 186.577h-34.997c-8.284 0-15 6.716-15 15v31c-.756 19.879-29.253 19.861-30.003 0v-31c0-8.284-6.716-15-15-15h-34.999c-19.881.738-19.866 29.269 0 30h19.999v16c2.27 59.63 87.755 59.588 90.003 0v-16h19.997c19.881-.738 19.866-29.269 0-30z"/></g></svg>