<svg id="Capa_1" enable-background="new 0 0 512 512" height="512" viewBox="0 0 512 512" width="512" xmlns="http://www.w3.org/2000/svg"><g><path d="m376 151c24.813 0 45-20.187 45-45s-20.187-45-45-45c-5.552 0-10.957.625-16.168 1.774-6.129-34.979-36.56-62.774-73.832-62.774-37.28 0-67.704 27.804-73.832 62.774-5.211-1.149-10.616-1.774-16.168-1.774-24.813 0-45 20.187-45 45s20.187 45 45 45c12.088 0 23.292 4.673 31.547 13.159l.082.082c-27.275 13.128-40.506 30.569-47.654 36.947l36.342 36.342c-21.651 19.247-35.317 47.29-35.317 78.47 0 28.815 11.454 54.977 30 74.103v31.897h-45c-41.355 0-75 33.645-75 75v15h135c24.507 0 46.306-11.814 60-30.047 13.832 18.417 35.766 30.047 60 30.047 41.355 0 75-33.645 75-75 0-24.813-20.187-45-45-45-5.259 0-10.305.915-15 2.58v-4.477c18.546-19.126 30-45.288 30-74.103 0-31.18-13.666-59.223-35.316-78.471l36.342-36.342c-7.099-6.334-20.368-23.815-47.654-36.948l.081-.081c8.255-8.485 19.459-13.158 31.547-13.158zm-90-121c24.393 0 45 21.065 45 46 0 .014-.001.028-.001.042-18.204 13.697-29.999 35.475-29.999 59.958v15.832c-4.948-.545-9.952-.832-15-.832s-10.052.286-15 .832v-15.832c0-24.483-11.795-46.261-29.999-59.958 0-.014-.001-.028-.001-.042 0-24.935 20.607-46 45-46zm-90 91c-8.271 0-15-6.729-15-15s6.729-15 15-15c24.813 0 45 20.187 45 45v.083c-12.78-9.789-28.416-15.083-45-15.083zm75 61.083v29.993c-10.24 1.471-20.005 4.424-29.075 8.636l-18.781-18.781c14.08-10.586 30.457-17.363 47.856-19.848zm0 254.917c0 24.813-20.187 45-45 45h-102.43c6.19-17.461 22.873-30 42.43-30h75v-40.241c9.329 4.486 19.412 7.619 30 9.155zm105-15c8.271 0 15 6.729 15 15 0 24.813-20.187 45-45 45s-45-20.187-45-45v-16.086c10.588-1.536 20.671-4.669 30-9.155v40.241h30v-15c0-8.271 6.729-15 15-15zm-15-106c0 41.907-33.645 76-75 76s-75-34.093-75-76c0-41.355 33.645-75 75-75s75 33.645 75 75zm-12.145-114.069-18.781 18.781c-9.069-4.212-18.835-7.165-29.075-8.636v-29.994c17.401 2.486 33.778 9.263 47.856 19.849zm-17.855-65.848v-.083c0-24.813 20.187-45 45-45 8.271 0 15 6.729 15 15s-6.729 15-15 15c-16.584 0-32.22 5.294-45 15.083z"/><path d="m286 271c-24.813 0-45 20.187-45 45s20.187 45 45 45 45-20.187 45-45-20.187-45-45-45zm0 60c-8.271 0-15-6.729-15-15s6.729-15 15-15 15 6.729 15 15-6.729 15-15 15z"/></g></svg>