<svg id="Capa_1" enable-background="new 0 0 511.877 511.877" height="512" viewBox="0 0 511.877 511.877" width="512" xmlns="http://www.w3.org/2000/svg"><g><path d="m0 511.877c36.433-4.742 74.737-10.709 135.627-31.704 60.573-20.886 147.177-60.181 215.771-128.775 68.594-68.593 107.889-155.198 128.775-215.771 20.099-58.292 26.724-97.371 31.704-135.627-36.433 4.742-74.737 10.709-135.627 31.704-60.573 20.886-147.177 60.181-215.771 128.775-68.593 68.593-107.888 155.198-128.775 215.771-20.099 58.292-26.724 97.371-31.704 135.627zm126.542-60.305c-7.729 2.674-15.229 5.111-22.449 7.336 5.12-23.115 13.466-53.868 26.678-87.311 25.082-8.539 51.375-1.972 79.102 4.96 16.365 4.091 33.545 8.374 51.185 9.591-47.439 31.38-96.391 52.233-134.516 65.424zm203.643-121.387c-34.809 34.809-67.612 28.623-113.034 17.268-23.299-5.825-47.156-11.778-71.741-9.465 10.309-21.551 22.71-43.509 37.594-64.695 3.091 13.083 9.717 25.494 19.901 35.678 29.241 29.242 76.823 29.243 106.066 0 17.546-17.545 17.546-46.094 0-63.639-17.544-17.545-46.094-17.546-63.64 0-13.828 13.827-16.749 34.485-8.782 51.208-4.497-2.142-8.713-5.063-12.432-8.782-17.545-17.545-17.545-46.094 0-63.64 29.312-29.311 76.752-29.314 106.066 0 14.166 14.166 21.967 33 21.967 53.033s-7.799 38.868-21.965 53.034zm-63.64-63.64c5.849-5.848 15.364-5.849 21.214 0 5.849 5.849 5.849 15.365 0 21.213-5.861 5.861-15.351 5.863-21.214 0s-5.863-15.35 0-21.213zm118.79-206.24c38.253-13.236 71.018-20.754 90.855-24.619-3.865 19.839-11.384 52.602-24.619 90.855-3.837 11.091-8.33 23.105-13.533 35.724l-88.428-88.426c12.62-5.203 24.634-9.696 35.725-13.534zm-325.029 325.03c19.852-57.377 57.026-139.283 121.387-203.643 42.551-42.551 92.768-73.211 138.498-94.846l104.841 104.84c-11.662 24.65-25.953 50.597-43.31 75.951-2.182-24.456-12.752-47.16-30.324-64.731-41.033-41.035-107.453-41.04-148.492 0-88.493 88.492-120.799 210.382-131.343 265.171-14.309 3.659-26.529 6.292-35.876 8.113 3.865-19.838 11.383-52.602 24.619-90.855z"/></g></svg>