<svg id="Layer_1" enable-background="new 0 0 511.81 511.81" height="512" viewBox="0 0 511.81 511.81" width="512" xmlns="http://www.w3.org/2000/svg"><g><path d="m14.905 133.027h27.202v22.997c0 19.26 14.4 35.219 33 37.675v22.328c0 8.284 6.716 15 15 15h100.798c8.284 0 15-6.716 15-15v-22.329c18.599-2.457 33-18.416 33-37.674v-22.997h34.5v22.997c0 19.259 14.401 35.217 33 37.674v22.329c0 8.284 6.716 15 15 15h100.799c8.284 0 15-6.716 15-15v-22.329c18.598-2.457 32.999-18.416 32.999-37.674v-22.997h26.702c19.881-.738 19.866-29.269 0-30h-27.661c-3.041-23.371-13.325-43.25-30.205-58.077-35.117-32.224-99.355-32.223-134.472 0-16.88 14.827-27.163 34.705-30.205 58.077h-36.417c-3.041-23.371-13.325-43.25-30.205-58.077-35.117-32.224-99.355-32.223-134.472 0-16.88 14.827-27.163 34.705-30.205 58.077h-28.158c-19.881.738-19.866 29.27 0 30zm288.5-14.997c-.454-67.294 75.149-84.613 115.837-50.54 13.713 12.045 20.961 29.521 20.961 50.54v37.995c0 4.413-3.59 8.002-8.002 8.002h-9.997c-8.284 0-15 6.716-15 15v22h-70.799v-22c0-8.284-6.716-15-15-15h-9.997c-4.413 0-8.003-3.59-8.003-8.002zm-231.298 0c-.454-67.294 75.149-84.613 115.837-50.54 13.713 12.045 20.961 29.521 20.961 50.54v37.995c0 4.413-3.59 8.002-8.003 8.002h-9.997c-8.284 0-15 6.716-15 15v22h-70.798v-22c0-8.284-6.716-15-15-15h-9.998c-4.412 0-8.002-3.59-8.002-8.002z"/><path d="m110.506 134.027c8.284 0 15-6.716 15-15v-4c-.738-19.881-29.269-19.866-30 0v4c0 8.284 6.715 15 15 15z"/><path d="m170.506 134.027c8.284 0 15-6.716 15-15v-4c-.738-19.881-29.269-19.866-30 0v4c0 8.284 6.715 15 15 15z"/><path d="m341.804 134.027c8.284 0 15-6.716 15-15v-4c-.738-19.881-29.269-19.866-30 0v4c0 8.284 6.716 15 15 15z"/><path d="m401.804 134.027c8.284 0 15-6.716 15-15v-4c-.738-19.881-29.269-19.866-30 0v4c0 8.284 6.716 15 15 15z"/><path d="m496.905 363.027h-27.661c-3.041-23.371-13.325-43.25-30.205-58.077-35.117-32.224-99.355-32.223-134.472 0-16.88 14.827-27.163 34.705-30.205 58.077h-36.417c-3.041-23.371-13.325-43.25-30.205-58.077-35.117-32.224-99.355-32.223-134.472 0-16.88 14.827-27.163 34.705-30.205 58.077h-28.158c-19.881.738-19.866 29.269 0 30h27.202v22.997c0 19.26 14.4 35.219 33 37.675v22.328c0 8.284 6.716 15 15 15h100.798c8.284 0 15-6.716 15-15v-22.328c18.599-2.457 33-18.416 33-37.674v-22.997h34.5v22.997c0 19.259 14.401 35.217 33 37.674v22.328c0 8.284 6.716 15 15 15h100.799c8.284 0 15-6.716 15-15v-22.328c18.598-2.457 32.999-18.416 32.999-37.674v-22.997h26.702c19.881-.738 19.866-29.27 0-30.001zm-288 52.997c0 4.413-3.59 8.002-8.003 8.002h-9.997c-8.284 0-15 6.716-15 15v22h-70.798v-22c0-8.284-6.716-15-15-15h-9.998c-4.412 0-8.002-3.59-8.002-8.002v-37.994c-.454-67.294 75.149-84.613 115.837-50.54 13.713 12.045 20.961 29.521 20.961 50.54zm231.298 0c0 4.413-3.59 8.002-8.002 8.002h-9.997c-8.284 0-15 6.716-15 15v22h-70.799v-22c0-8.284-6.716-15-15-15h-9.997c-4.413 0-8.003-3.59-8.003-8.002v-37.994c-.454-67.294 75.149-84.613 115.837-50.54 13.713 12.045 20.961 29.521 20.961 50.54z"/><path d="m110.506 360.027c-8.284 0-15 6.716-15 15v4c.738 19.881 29.269 19.866 30 0v-4c0-8.284-6.716-15-15-15z"/><path d="m170.506 360.027c-8.284 0-15 6.716-15 15v4c.738 19.881 29.269 19.866 30 0v-4c0-8.284-6.716-15-15-15z"/><path d="m341.804 360.027c-8.284 0-15 6.716-15 15v4c.738 19.881 29.269 19.866 30 0v-4c0-8.284-6.715-15-15-15z"/><path d="m401.804 360.027c-8.284 0-15 6.716-15 15v4c.738 19.881 29.269 19.866 30 0v-4c0-8.284-6.715-15-15-15z"/></g></svg>