<svg id="Layer_1" enable-background="new 0 0 511.394 511.394" height="512" viewBox="0 0 511.394 511.394" width="512" xmlns="http://www.w3.org/2000/svg"><path d="m419.686 374.505c.09-1.783-.144-3.604-.758-5.392-4.184-12.208-9.889-29.726-16.495-50.01-22.644-60.024-94.29-321.963-146.69-319.079-15.899.002-30.357 15.513-49.907 53.543-39.273 74.95-97.624 252.805-113.64 316.743-2.555 10.018 4.863 19.97 15.357 19.667 28.102 0 51.507 19.261 56.916 46.838 20.676 99.476 162.025 99.447 182.569-.134 5.377-27.627 28.788-46.922 56.933-46.922 8.372 0 15.312-7.241 15.715-15.254zm-243.752-169.528h26.902c-2.776 9.463-2.776 20.537 0 30h-37.404c3.392-9.884 6.9-19.916 10.502-30zm54.806 15c0-13.785 11.215-25 25-25 33.12 1.257 33.111 48.748 0 50-13.785 0-25-11.215-25-25zm77.904-15h24.019c3.503 10.018 6.957 20.053 10.339 30h-34.358c2.776-9.464 2.776-20.537 0-30zm-53.005-173.654c3.144 3.036 9.855 11.184 20.504 32.179 12.942 24.86 33 75.502 45.847 111.475 0 0-34.148.029-34.59.068-17.69-13.249-45.504-13.28-63.224-.068h-37.296c41.571-111.436 62.162-137.63 68.759-143.654zm-100.188 233.28c1.06.237 68.187.345 68.63.305 17.69 13.249 45.504 13.28 63.224.068h65.435c.117 0 .229-.015.345-.017 7.571 22.742 14.615 44.369 20.824 63.434 2.47 7.583 4.814 14.781 7.004 21.473-46-14.472-90.513-21.711-133.327-21.588-40.741.131-80.431 7.001-118.365 20.457 6.486-22.428 15.543-51.808 26.23-84.132zm162.139 166.347c-13.947 67.49-109.652 67.51-123.683.091-3.949-20.134-14.721-38.296-30.331-51.143-3.329-2.74-6.863-5.199-10.546-7.401 62.944-19.131 130.931-18.701 203.02 1.297-2.822 1.817-5.552 3.785-8.153 5.928-15.62 12.875-26.383 31.067-30.307 51.228z"/></svg>