<svg id="Capa_1" enable-background="new 0 0 512 512" height="512" viewBox="0 0 512 512" width="512" xmlns="http://www.w3.org/2000/svg"><g><path d="m450.772 191.451c-2.289-22.685-21.495-40.451-44.772-40.451-8.189 0-15.873 2.198-22.495 6.036-15.505-38.662-53.368-66.036-97.505-66.036-.581 0-188.545 0-196 0v15c0 16.417 5.385 32.054 15.341 45h-45.341v15c0 16.869 5.6 32.457 15.036 45h-45.036v15c0 16.869 5.6 32.457 15.036 45h-45.036v15c0 41.355 33.645 75 75 75h106v60h165c41.355 0 75-33.645 75-75v-15h-55.957c21.995-12.772 49.984-30 70.957-30 8.523 0 16 7.009 16 15v15h15c24.813 0 45-20.187 45-45 0-40.514-24.175-77.192-61.228-94.549zm-266.291 139.549h-109.481c-19.556 0-36.239-12.539-42.43-30h72.43v-30c-19.556 0-36.239-12.539-42.43-30h72.43v-30c-19.556 0-36.239-12.539-42.43-30h73.43v-30c-19.59 0-36.791-12.718-43.265-30h163.265c41.355 0 75 33.645 75 75 0 42.434-54.514 66.081-102.61 86.944-33.864 14.689-63.954 27.748-73.909 48.056zm292.944-34.225c-7.521-15.09-23.47-25.775-41.425-25.775-51.939 0-108.97 60-149.99 60l-.001 29.99h102.421c-6.191 17.461-22.874 30.01-42.43 30.01h-135v-45c0-11.065 49.136-31.113 59.328-35.534 25.746-11.167 54.926-23.826 77.842-40.716 28.82-21.243 42.83-45.366 42.83-73.75 0-8.271 6.729-15 15-15 8.011 0 14.576 6.313 14.98 14.226-1.006 3.466-1.289 6.627-3.103 15.983l12.202 4.188c31.056 10.66 51.921 39.033 51.921 70.603 0 4.224-1.755 8.046-4.575 10.775z"/><path d="m301 196c0-24.813-20.187-45-45-45s-45 20.187-45 45 20.187 45 45 45 45-20.187 45-45zm-45 15c-8.271 0-15-6.729-15-15s6.729-15 15-15 15 6.729 15 15-6.729 15-15 15z"/></g></svg>