<svg id="Capa_1" enable-background="new 0 0 512 512" height="512" viewBox="0 0 512 512" width="512" xmlns="http://www.w3.org/2000/svg"><g><path d="m301 0h-90v30h-211v154.34c39.798-8.023 83.817-16.27 137.844-23.578-10.725 19.349-16.844 41.591-16.844 65.238 0 42.367 19.623 80.231 50.251 105h-5.251c-24.813 0-45 20.187-45 45 0 19.377 12.312 35.933 29.523 42.257-3.361 43.95-23.911 66.813-25.332 68.342l-25.294 25.401h311.493l-24.611-25.431c-.092-.095-3.43-3.638-7.67-10.57 8.353 3.22 17.416 5.001 26.891 5.001 41.355 0 75-33.645 75-75 0-24.813-20.187-45-45-45-9.246 0-17.849 2.803-25.005 7.604-12.972-22.46-37.247-37.604-64.995-37.604h-5.251c30.628-24.769 50.251-62.633 50.251-105 0-23.647-6.119-45.889-16.845-65.238 51.508 6.967 94.791 14.898 137.845 23.578v-154.34h-211zm-60 30h30v61.838c-4.927-.547-9.93-.838-15-.838s-10.073.291-15 .838zm-181 112.46c-11.848 2.043-22.075 3.902-30 5.382v-87.842h30zm30-4.968v-77.492h121v38.722c-17.6 6.241-33.53 16.033-46.929 28.513-25.738 2.963-51.376 6.658-74.071 10.257zm121 344.508h-47.251c7.27-14.386 14.547-34.806 16.637-61h30.614zm60 0h-30v-61h30zm30 0v-61h30.614c2.09 26.194 9.367 46.614 16.637 61zm45-121c24.813 0 45 20.187 45 45v15h30v-15c0-8.271 6.729-15 15-15s15 6.729 15 15c0 24.813-20.187 45-45 45s-45-20.187-45-45v-15h-195c-8.271 0-15-6.729-15-15s6.729-15 15-15zm-90-30c-57.897 0-105-47.103-105-105s47.103-105 105-105 105 47.103 105 105-47.103 105-105 105zm196-271h30v87.842c-7.925-1.479-18.152-3.338-30-5.382zm-30 0v77.492c-22.695-3.599-48.333-7.295-74.071-10.258-13.399-12.48-29.329-22.271-46.929-28.512v-38.722z"/><path d="m181 226c0 41.355 33.645 75 75 75s75-33.645 75-75v-45h-150zm30-15h30v30h30v-30h30v15c0 24.813-20.187 45-45 45s-45-20.187-45-45z"/></g></svg>