<svg id="Layer_1" enable-background="new 0 0 511.924 511.924" height="512" viewBox="0 0 511.924 511.924" width="512" xmlns="http://www.w3.org/2000/svg"><path d="m439.153 183.06c0-100.929-82.112-183.041-183.042-183.041-117.992-1.729-208.421 116.07-177.069 229.466v247.534c0 8.284 6.716 15 15 15h25.511v5c.738 19.881 29.269 19.866 30 0v-5h25.511c.008-.001.016-.001.024 0h25.512v5c.738 19.881 29.269 19.866 30 0v-5h51.022v5c.738 19.881 29.269 19.866 30 0v-5h51.02v5c.738 19.881 29.269 19.866 30 0v-5h25.511c8.284 0 15-6.716 15-15v-247.428c3.909-14.864 6-30.457 6-46.531zm-183.041-153.041c68.733 0 127.024 45.547 146.287 108.042h-54.787c-19.881.738-19.866 29.269 0 30h60.806c.977 9.844.977 20.156 0 30h-60.806c-19.881.738-19.866 29.269 0 30h54.787c-11.903 38.616-38.706 70.759-73.668 89.685l-58.075-230.393c-3.877-15.01-25.217-15.001-29.09 0l-58.074 230.393c-34.962-18.926-61.764-51.069-73.667-89.685h54.786c19.881-.738 19.866-29.269 0-30h-60.805c-.978-9.844-.978-20.156 0-30h60.805c19.881-.738 19.866-29.269 0-30h-54.786c19.263-62.495 77.554-108.042 146.287-108.042zm0 306.083c-15.521 0-30.506-2.33-44.633-6.646l44.633-177.067 44.633 177.067c-14.128 4.316-29.113 6.646-44.633 6.646zm-66.024 17.674c16.044 6.226 33.174 10.253 51.022 11.707v36.534h-51.022zm81.023 11.708c17.848-1.455 34.979-5.481 51.022-11.707v48.241h-51.022zm-111.047-26.673v63.207h-51.022v-110.113c13.859 18.677 31.187 34.63 51.022 46.906zm-51.022 123.208v-30.001h51.022v30.001zm81.046-30.001h51.022v30.001h-51.022zm81.023 0h51.022v30.001h-51.022zm81.022 30.001v-30.001h51.02v30.001zm51.02-60.001h-51.02v-63.19c19.832-12.27 37.159-28.214 51.02-46.883z"/></svg>