<svg id="Layer_1" enable-background="new 0 0 512.039 512.039" height="512" viewBox="0 0 512.039 512.039" width="512" xmlns="http://www.w3.org/2000/svg"><path d="m497.039 145.728h-213.953c-12.797-33.014-41.717-44.845-66.07-38.972-27.489 6.632-50.027 35.379-39.917 77.491 2.321 9.67-.412 18.248-6.965 21.854-7.16 3.938-16.948.635-26.205-8.843-14.517-13.813-34.97 5.875-21.654 20.763 13.953 14.378 28.541 19.677 41.253 19.676 7.965 0 15.195-2.081 21.068-5.312 18.445-10.149 27.155-32.309 21.673-55.141-5.774-24.053 5.17-38.282 17.782-41.325 11.329-2.732 24.855 3.222 31.56 21.981.323.904.43 1.868.428 2.828v156h-122v-11.229c-2.114-61.533-89.423-62.129-92-.771v12.051c-23.337 1.051-42 20.36-42 43.952-1.036 24.972 18.936 46.063 44.003 45.997h423.994c24.302 0 44.003-19.701 44.003-44.003v-201.997c0-8.284-6.716-15-15-15zm-211 30h196v141h-196zm-198 113c8.822 0 16 7.178 16 16v12h-32v-12c0-8.822 7.177-16 16-16zm394 73.997c0 7.722-6.281 14.003-14.003 14.003h-423.994c-7.721 0-14.003-6.281-14.003-14.003v-1.994c0-7.722 6.282-14.003 14.003-14.003h437.997z"/></svg>