<svg id="Capa_1" enable-background="new 0 0 512 512" height="512" viewBox="0 0 512 512" width="512" xmlns="http://www.w3.org/2000/svg"><g><path d="m91 361c0 83.935 69.904 134.899 69.989 135h189.941c.952-1.125 70.07-43.966 70.07-135v-15h-330zm299.169 15c-3.937 35.408-21.663 68.034-49.25 90h-169.759c-27.591-22.376-45.332-54.986-49.31-90z"/><path d="m45 316c19.556 0 36.239-12.539 42.43-30h63.57v30h210v-30h63.57c6.19 17.461 22.873 30 42.43 30 24.813 0 45-20.187 45-45 0-11.515-4.347-22.033-11.486-30 7.14-7.967 11.486-18.485 11.486-30 0-24.813-20.187-45-45-45-19.557 0-36.239 12.539-42.43 30h-33.57v-45c0-74.439-60.561-135-135-135s-135 60.561-135 135v45h-33.57c-6.191-17.461-22.874-30-42.43-30-24.813 0-45 20.187-45 45 0 11.515 4.347 22.033 11.486 30-7.139 7.967-11.486 18.485-11.486 30 0 24.813 20.187 45 45 45zm343.422-90h63.578v-15c0-8.271 6.729-15 15-15s15 6.729 15 15-6.729 15-15 15v30c8.271 0 15 6.729 15 15s-6.729 15-15 15-15-6.729-15-15v-15h-91v-2.569c12.766-4.526 22.894-14.664 27.422-27.431zm-237.422-75c0-57.897 47.103-105 105-105s105 47.103 105 105v60c0 8.271-6.727 15-15 15h-15v60h-30v-30h-30v30h-30v-30h-30v30h-30l-.005-60h-15c-8.269 0-14.995-6.729-14.995-15zm-121 60c0-8.271 6.729-15 15-15s15 6.729 15 15v15h63.579c4.527 12.766 14.655 22.904 27.421 27.43v2.57h-91v15c0 8.271-6.729 15-15 15s-15-6.729-15-15 6.729-15 15-15v-30c-8.271 0-15-6.729-15-15z"/><path d="m196 174.787h30v42.426h-30z" transform="matrix(.707 -.707 .707 .707 -76.793 206.607)"/><path d="m279.787 181h42.426v30h-42.426z" transform="matrix(.707 -.707 .707 .707 -50.432 270.246)"/></g></svg>