<svg id="Layer_1" enable-background="new 0 0 511.764 511.764" height="512" viewBox="0 0 511.764 511.764" width="512" xmlns="http://www.w3.org/2000/svg"><g><path d="m402.289 33.419c-41.41-21.228-94.744-33.405-146.326-33.41h-.03c-80.532-.687-213.162 36.795-217.904 121.941l-.109 171.8c-2.541 116.655 101.32 220.448 217.965 217.97 116.635 2.473 220.437-101.322 217.962-217.961v-171.756c0-33.47-25.413-64.93-71.558-88.584zm41.558 260.34c0 103.644-84.32 187.963-187.964 187.963-100.504 2.143-190.169-87.434-187.964-187.953l.109-171.8c.029-46.416 93.094-91.96 187.903-91.96h.029c94.82.009 187.886 45.576 187.886 91.994v171.756z"/><path d="m342.347 117.722c-28.702 0-55.401 16.318-69.679 42.588-.135.249-.261.502-.381.757-4.884-2.283-10.446-3.552-16.398-3.556h-.033c-5.97 0-11.548 1.272-16.446 3.562-29.429-57.026-109.688-57.455-139.741-.763-2.429 4.467-2.428 9.859 0 14.326 22.868 44.024 82.192 56.536 119.37 24.377l-3.83 38.756c-17.315 5.56-29.883 21.818-29.883 40.956v13.995c0 18.198 14.805 33.003 33.002 33.003h16.003c12.506 6.515 30.016 6.791 42.834 0h16.158c18.198 0 33.003-14.805 33.003-33.003v-13.995c0-19.124-12.548-35.371-29.843-40.943l-3.834-38.774c37.183 32.17 96.509 19.652 119.377-24.371 2.427-4.467 2.427-9.859 0-14.326-14.278-26.269-40.977-42.589-69.679-42.589zm-173 69.5c-14.99 0-29.193-7.398-38.671-19.749 19.506-26.143 57.84-26.137 77.342 0-9.478 12.351-23.681 19.749-38.671 19.749zm126.978 105.498c0 1.628-1.375 3.003-3.003 3.003h-20.164c-2.929 0-5.794.857-8.241 2.467-4.981 3.779-14.79 2.831-18.192.076-2.471-1.657-5.38-2.543-8.355-2.543h-20.042c-1.627 0-3.002-1.375-3.002-3.003v-13.995c0-7.169 5.833-13.002 13.002-13.002h.674c7.713 0 14.169-5.85 14.927-13.525l6.056-61.285c.304-3.069 4.199-3.402 5.872-3.402h.01c1.655.001 5.538.333 5.834 3.378l.003.023 6.06 61.287c.759 7.676 7.214 13.524 14.927 13.524h.634c7.17 0 13.003 5.833 13.003 13.002v13.995zm46.022-105.498c-14.99 0-29.193-7.398-38.671-19.749 19.506-26.142 57.842-26.139 77.341 0-9.477 12.35-23.68 19.749-38.67 19.749z"/><path d="m348.848 374.124c-4.244-14.406-17.699-24.469-32.719-24.469h-120.409c-15.019 0-28.473 10.062-32.719 24.468l-6.48 21.992c-3.068 10.414-1.1 21.374 5.402 30.069 6.503 8.694 16.459 13.682 27.316 13.682h133.37c10.857 0 20.813-4.987 27.316-13.682 6.502-8.695 8.471-19.655 5.402-30.069zm-22.947 34.093c-.46.615-1.5 1.648-3.291 1.648h-133.37c-2.865-.101-4.656-2.491-3.941-5.271l6.479-21.992c.512-1.735 2.133-2.948 3.942-2.948h120.409c1.81 0 3.431 1.212 3.941 2.948l6.48 21.992c.508 1.719-.189 3.008-.649 3.623z"/></g></svg>