<svg id="Capa_1" enable-background="new 0 0 512 512" height="512" viewBox="0 0 512 512" width="512" xmlns="http://www.w3.org/2000/svg"><g><path d="m91 301h-16c-24.813 0-45 20.187-45 45 0 5.856 1.136 11.449 3.181 16.586-19.097 5.205-33.181 22.691-33.181 43.414 0 24.813 20.187 45 45 45s45-20.187 45-45c0-5.258-.915-10.305-2.58-15h9.744c19.546 69.738 83.351 121 158.836 121s139.29-51.272 158.836-121.01h9.744c-1.665 4.695-2.58 9.752-2.58 15.01 0 24.813 20.187 45 45 45s45-20.187 45-45c0-20.723-14.084-38.209-33.181-43.414 2.045-5.137 3.181-10.73 3.181-16.586 0-24.813-20.187-45-45-45h-16v-30h91v-15c0-140.959-115.049-256-256-256-140.957 0-256 115.048-256 256v15h91zm-46 120c-8.271 0-15-6.729-15-15s6.729-15 15-15 15 6.729 15 15-6.729 15-15 15zm30-60c-8.271 0-15-6.729-15-15s6.729-15 15-15h16v15c0 5.057.239 10.057.681 15zm316-15c0 74.991-60.561 136-135 136s-135-61.009-135-136v-75h270zm-93.67-152.542c-7.869-5.218-16.768-9-26.33-10.948v-30.433c17.763 2.552 34.106 9.56 47.849 19.861zm42.732-.308c10.301 13.743 17.31 30.086 19.862 47.85h-30.433c-1.948-9.562-5.731-18.46-10.948-26.329zm-41.642 47.85h-84.84c6.192-17.458 22.865-30 42.42-30s36.228 12.542 42.42 30zm-57.42-58.491c-9.562 1.949-18.46 5.731-26.33 10.948l-21.52-21.52c13.743-10.301 30.086-17.309 47.849-19.861v30.433zm-47.542 32.162c-5.218 7.869-9 16.768-10.948 26.329h-30.433c2.552-17.763 9.56-34.106 19.862-47.85zm273.542 176.329c8.271 0 15 6.729 15 15s-6.729 15-15 15-15-6.729-15-15 6.729-15 15-15zm-30-60c8.271 0 15 6.729 15 15s-6.729 15-15 15h-16.681c.442-4.943.681-9.943.681-15v-15zm44.508-90h-30.942l28.468-21.612c1.161 7.1 1.993 14.309 2.474 21.612zm-46.182-122.388c11.892 15.485 21.818 32.552 29.422 50.82l-35.946-13.199zm-41.951-41.935-37.608 6.521-13.199-35.945c18.265 7.603 35.324 17.534 50.807 29.424zm-137.375-46.677c9.97 0 19.787.663 29.419 1.921l-29.419 24.544-29.419-24.544c9.632-1.258 19.449-1.921 29.419-1.921zm-86.569 17.253-13.199 35.945-37.608-6.521c15.484-11.89 32.543-21.821 50.807-29.424zm-92.756 71.358 6.523 37.622-35.947 13.199c7.605-18.268 17.531-35.336 29.424-50.821zm-46.183 122.389c.481-7.303 1.312-14.512 2.474-21.612l28.468 21.612zm24.593-42.486 61.948-22.746-12.32-71.056 71.056 12.321c3.727-10.151 21.309-58.032 24.857-67.696l55.374 46.198c9.137-7.623 47.47-39.603 55.375-46.198l24.857 67.696 71.056-12.321-12.322 71.055 61.948 22.747-55.963 42.486h-10.789c-7.486-67.406-64.793-120-134.162-120s-126.676 52.594-134.162 120h-10.789z"/><path d="m181 406c0 24.813 20.187 45 45 45h60c24.813 0 45-20.187 45-45s-20.187-45-45-45h-60c-24.813 0-45 20.187-45 45zm120 0c0 8.271-6.729 15-15 15h-60c-8.271 0-15-6.729-15-15s6.729-15 15-15h60c8.271 0 15 6.729 15 15z"/><path d="m166 301h60v30h-60z"/><path d="m286 301h60v30h-60z"/></g></svg>