<svg id="Layer_1" enable-background="new 0 0 512.378 512.378" height="512" viewBox="0 0 512.378 512.378" width="512" xmlns="http://www.w3.org/2000/svg"><path d="m483.023 231.671c-10.778-11.78-23.821-20.943-38.217-27.071 33.072-29.547 30.627-59.268 30.191-100.504 1.536-22.249-30.34-23.198-29.986-.972-.009.2-.013.402-.014.604-.267 8.984-3.55 16.492-10.014 22.918-6.75 6.71-14.648 9.975-24.176 9.886l-127.719-.77c-16.702-.103-32.503 6.38-44.437 18.246-11.315 11.247-17.845 25.977-18.582 41.753h-87.273c10.146-13.354 15.701-29.69 15.701-46.499-.735-19.872-29.266-19.874-30 0 0 24.623-18.247 40.717-40.736 46.681-43.333 2.715-77.761 38.813-77.762 82.817l.001 48c0 3.759 1.425 7.362 3.954 10.122l44.738 80.889c5.51 10.246 20.745 10.242 26.252 0l33.089-59.826 33.089 59.826c5.509 10.246 20.745 10.242 26.252 0l33.088-59.826 33.088 59.826c5.51 10.245 20.744 10.242 26.252 0l39.067-70.633c7.618 19.212 20.308 35.734 37.114 48.107 109.293 76.238 234.41-63.075 147.04-163.574zm-130.435-5.835c-6.352 35.05-55.923 34.978-62.192-.063 22.618.014 43.994.034 62.192.063zm-92.786-50.55c6.23-6.193 14.443-9.578 23.107-9.523l127.718.77c10.995.07 21.405-2.491 30.646-7.498-8.19 21.452-28.983 36.728-53.278 36.728h-137.862c.695-7.727 4.067-14.909 9.669-20.477zm-176.798 50.475c.257 0 8.202-.003 21.45-.007-4.519 15.027-18.476 26.008-34.956 26.008h-32.077c9.247-15.551 26.214-26.001 45.583-26.001zm-21.186 153.759-20.883-37.758h41.766zm92.43 0-20.884-37.758h41.767zm92.429 0-20.883-37.758h41.767zm154.821 7.242c-31.229 0-58.913-17.655-72.261-45.001 0 0 30.508-.02 31.33.039 5.82.415 10.91 4.212 12.968 9.672 2.913 7.829 11.775 11.652 19.325 8.747 7.752-2.921 11.669-11.573 8.747-19.325-6.172-16.381-21.443-27.771-38.903-29.018-1.455-.106-332.702-.115-332.702-.115l.001-29.999h39.496c33.1 0 60.622-24.312 65.666-56.014 27.593-.005 63.229-.007 99.612.002.075.001.147.011.223.011h25.219c8.034 74.763 114.378 74.819 122.55.139 15.42.046 25.03.104 25.868.179 101.638 11.744 94.8 157.74-7.139 160.683z"/></svg>