<svg id="Capa_1" enable-background="new 0 0 512 512" height="512" viewBox="0 0 512 512" width="512" xmlns="http://www.w3.org/2000/svg"><g><path d="m166 301c24.813 0 45-20.187 45-45s-20.187-45-45-45-45 20.187-45 45 20.187 45 45 45zm0-60c8.271 0 15 6.729 15 15s-6.729 15-15 15-15-6.729-15-15 6.729-15 15-15z"/><path d="m346 301c24.813 0 45-20.187 45-45s-20.187-45-45-45-45 20.187-45 45 20.187 45 45 45zm0-60c8.271 0 15 6.729 15 15s-6.729 15-15 15-15-6.729-15-15 6.729-15 15-15z"/><path d="m451 178.42c17.459-6.192 30-22.865 30-42.42 0-20.276-13.482-37.457-31.951-43.064l-15.32-92.936h-85.459l-15 91h-19.54l-15.001-91h-85.459l-15 91h-19.54l-15.001-91h-85.458l-15.32 92.936c-18.469 5.607-31.951 22.788-31.951 43.064 0 19.555 12.541 36.228 30 42.42v2.58h-61v30h61v30h-61v120h91v75c0 41.461 33.537 76 75 76h180.15c41.808-.084 74.85-35.038 74.85-76v-75h91v-120h-61v-30h61v-30h-61zm-77.271-148.42h34.541l10.054 61h-54.649zm-33.942 91-30 30h-47.574l30-30zm-101.058-91h34.541l10.054 61h-54.649zm-36.516 91h47.574l-30 30h-47.574zm-98.484-91h34.541l10.054 61h-54.649zm-73.729 301v-60h31v15c0 15.662 3.631 31.028 10.384 45zm46-180c-8.271 0-15-6.729-15-15s6.729-15 15-15h83.787l-30 30zm195 331h-30v-31h30zm45-91c8.271 0 15 6.729 15 15s-6.729 15-15 15h-120c-8.271 0-15-6.729-15-15s6.729-15 15-15zm-75-30v-38.787l15-15 15 15v38.787zm180-75c0 38.418-28.282 57.703-30 59.92v90.08c0 24.935-20.607 46-45 46h-45v-31h15c24.813 0 45-20.187 45-45s-20.187-45-45-45h-15v-51.213l-45-45-45 45v51.213h-15c-24.813 0-45 20.187-45 45s20.187 45 45 45h15v31h-45c-24.393 0-45-21.065-45-46v-90.08c-1.766-2.28-30-21.266-30-59.92v-105h330zm61-15v60h-41.384c6.753-13.972 10.384-29.338 10.384-45v-15zm-46-120h-83.787l30-30h53.787c8.271 0 15 6.729 15 15s-6.729 15-15 15z"/></g></svg>