<svg id="Layer_1" enable-background="new 0 0 512.031 512.031" height="512" viewBox="0 0 512.031 512.031" width="512" xmlns="http://www.w3.org/2000/svg"><g><path d="m503.684 363.584-35.979-17.807c27.654-21.891 44.416-55.525 44.325-91.699l-.003-1.49c-.009-3.979-1.599-7.791-4.419-10.598-2.821-2.807-6.668-4.414-10.619-4.368l-37.369.095c10.718-9.633 19.649-21.302 26.32-34.595 13.99-27.879 16.309-59.47 6.528-88.951l-.468-1.414c-2.385-7.7-11.362-12.206-18.961-9.518l-96.483 32.006c.072-23.463-6.901-46.673-20.259-66.197l-.841-1.23c-4.611-6.744-13.771-8.558-20.606-4.079 0 0-157.921 103.52-157.927 103.524-.974.518-9.866-7.638-11.172-8.532-50.3-34.647-124.514-16.509-152.907 37.638-6.948 12.773-11.201 26.955-12.43 41.444-.679 4.73-.294 59.382-.382 65.536 0 8.284 6.716 15 15 15 7.361 0 14.03-6.069 14.901-13.377-.554-15.948 5.047-27.766 19.389-30.823 26.758-6.584 66.028 14.92 77.69 40.131l19.7 38.568h-62.68c-8.673-.031-15.502 7.379-15 15.997 0 40.806 33.198 74.003 74.003 74.003h184.992c8.268 0 16.201-2.227 23.12-6.395l1.944 1.061c16.099 8.783 33.827 13.234 51.89 13.233 11.413 0 22.961-1.777 34.313-5.361 30.609-9.665 56.313-31.669 70.519-60.367l.661-1.335c3.718-7.151.505-16.668-6.79-20.1zm-360.65 49.265c-19.371 0-35.857-12.58-41.719-30h69.901c11.038.142 18.507-12.056 13.358-21.823l-30.846-60.392c-10.015-19.607-27.535-36.206-49.334-46.739-20.943-10.119-43.575-13.368-62.091-8.913-4.393 1.057-8.49 2.523-12.271 4.369.492-95.558 139.592-106.968 152.545-10.829 7.173 75.337 71.335 138.221 146.746 143.708 12.615 1.095 18.123 17.38 9.295 26.207-2.844 2.846-6.606 4.412-10.592 4.412zm287.225 3.931c-20.328 6.417-41.41 4.958-59.758-4.041 9.73-27.026-9.666-58.149-38.59-60.396-62.397-5.409-112.66-54.655-119.515-117.094-1.77-16.122-7.223-31.483-15.805-45.009l141.543-92.783c8.238 17.295 10.583 37.135 6.385 56.123-1.166 5.27.59 10.76 4.598 14.375 4.007 3.615 9.648 4.799 14.771 3.101l103.362-34.288c7.416 40.531-18.643 84.02-58.173 96.281.001 0-16.85 5.59-16.85 5.59-6.994 2.32-11.267 9.376-10.082 16.648 1.183 7.273 7.478 12.609 14.843 12.589l84.011-.213c-4.483 28.684-23.272 53.674-50.425 65.81-11.513 5.071-11.836 21.621-.533 27.138 0 0 45.945 22.739 45.945 22.739-11.09 15.69-27.205 27.581-45.727 33.43z"/><path d="m302.031 213.849c-24.813 0-45 20.187-45 45 2.262 59.615 87.747 59.599 90-.001 0-24.813-20.187-44.999-45-44.999zm0 59.999c-8.271 0-15-6.729-15-14.999.754-19.872 29.249-19.867 30 0 0 8.27-6.729 14.999-15 14.999z"/></g></svg>