<svg id="Capa_1" enable-background="new 0 0 512 512" height="512" viewBox="0 0 512 512" width="512" xmlns="http://www.w3.org/2000/svg"><g><path d="m451 0h-90v181h-361v81.358l31 30v219.642h90v-121h30v121h90v-121h30v121h90v-121h30v121h90v-362h31v-84.339l-61-30zm-360 482h-30v-30h30zm120 0h-30v-30h30zm30-121h-30v61h-30v-61h-90v61h-30v-142.358l-31-30v-38.642h91v60h60v30h-30v30h60v-90h-60v-30h90zm90 121h-30v-30h30zm120 0h-30v-30h30zm31-397.661v35.661h-31v302h-30v-61h-90v61h-30v-61h-30v-150h90v30h-60v90h60v-30h-30v-30h60c0-9.406 0-229.279 0-241h30v24.339z"/></g></svg>