<svg id="Capa_1" enable-background="new 0 0 511.869 511.869" height="512" viewBox="0 0 511.869 511.869" width="512" xmlns="http://www.w3.org/2000/svg"><g><path d="m64.363 426.286c-16.722-7.964-37.378-5.042-51.204 8.785-17.545 17.546-17.545 46.094 0 63.639 17.544 17.545 46.094 17.546 63.64 0 13.828-13.828 16.749-34.488 8.78-51.212l92.617-92.691h72.702l27.426 27.426 21.213-21.213-21.218-21.218 21.302-21.32 21.129 21.129 21.213-21.213-21.138-21.138 21.205-21.222 21.147 21.146 21.213-21.213-21.156-21.156 21.205-21.222 21.164 21.164 21.213-21.213-21.173-21.173 21.205-21.222 21.182 21.182 21.213-21.213-21.191-21.191 21.404-21.422 21.2 21.2 21.213-21.213-21.209-21.209 21.205-21.222-106.055-106.055-21.226 21.2-21.207-21.206-21.213 21.213 21.194 21.194-21.426 21.401-21.182-21.182-21.213 21.213 21.169 21.169-21.226 21.201-21.156-21.156-21.213 21.213 21.143 21.143-21.226 21.201-21.131-21.131-21.213 21.213 21.118 21.118-21.226 21.201-21.105-21.105-21.213 21.213 21.093 21.093-21.366 21.34-21.22-21.22-21.213 21.213 27.426 27.426v72.625zm-8.777 51.211c-5.864 5.863-15.35 5.863-21.214 0-5.848-5.849-5.848-15.365 0-21.213 5.848-5.847 15.364-5.849 21.213 0 5.849 5.848 5.849 15.364.001 21.213zm131.393-216.52 218.818-218.557 63.65 63.65-218.553 218.737h-63.915z"/></g></svg>