<svg id="Layer_1" enable-background="new 0 0 512.006 512.006" height="512" viewBox="0 0 512.006 512.006" width="512" xmlns="http://www.w3.org/2000/svg"><path d="m416.809 156.941c25.421-18.36 41.999-48.241 41.999-81.924 0 0 0-31.295 0-31.315.424-8.726-5.596-16.387-14.594-16.609-9.288-.221-15.94 7.626-15.406 16.681-.221 9.077-3.495 16.654-10.01 23.13-6.693 6.652-14.522 9.888-23.93 9.888-.082 0-127.964-.771-127.964-.771-38.12-.059-65.961 32.379-63.093 69.899h-94.073c-25.391-40.968-89.45-23.376-89.731 25.501 0-.001 0 54.641 0 54.651 0 .455-3.971 2.916-4.506 3.372-22.824 18.817-19.989 57.822 5.505 72.967v96.05c-.003 9.494-3.745 17.336-11.124 23.31l-4.313 3.491c-6.439 5.212-7.434 14.657-2.222 21.097 5.236 6.468 14.7 7.409 21.097 2.222l4.314-3.492c2.639-2.136 5.055-4.442 7.248-6.894 2.194 2.452 4.61 4.759 7.249 6.895l4.313 3.491c6.396 5.187 15.86 4.246 21.097-2.222 5.212-6.439 4.217-15.885-2.222-21.097l-4.312-3.49c-7.38-5.975-11.123-13.817-11.125-23.32v-58.974l28.216 60.762c5.269 11.506 21.943 11.502 27.209 0l14.543-31.317s184.704-.035 186.032-.083v101.082c0 8.284 6.716 15 15 15h175c8.284 0 15-6.716 15-15v-172c0-63.741-39.442-118.435-95.197-140.981zm-110.803-23.521c8.271 0 15 6.729 15 14.999-.754 19.873-29.249 19.868-30 0 0-8.271 6.729-14.999 15-14.999zm88.851-26.629c10.607 0 20.579-2.44 29.537-7.143-1.677.891-2.126 4.916-2.819 6.53-8.326 19.24-26.991 32.832-47.064 37.722-2.45.587-23.509 3.284-23.571 2.119-.959-18.155-12.731-33.482-28.977-39.666.001 0 72.755.438 72.894.438zm-161.047 32.231c0-8.855 3.482-17.194 9.805-23.479 6.23-6.194 14.444-9.579 23.108-9.524l23.806.144c-16.466 6.05-28.443 21.465-29.45 39.756h-27.269zm-183.803 32.397c.933-24.514 36.076-24.495 37 0v46.5h-37zm20.003 137.75h45.633l-22.816 49.136zm78.826-.249s71.057.001 71.057-.001c19.842-.723 19.902-29.253-.001-30 0 0-175.798 0-175.883 0-16.192 0-19.234-24.969-3.92-29.441 1.272-.371 2.595-.558 3.92-.558h176.994c15.225 0 28.488 6.946 36.388 19.059 9.505 14.571 10.284 33.087 2.032 48.321-7.786 14.376-21.79 22.62-38.42 22.62h-86.098zm131.727 29.997c35.545-48.045 2.208-121.121-59.56-119.997h-103.996v-43.001l153.495.1c14.82 19.942 45.994 23.315 64.708 6.596 29.445 12.792 48.801 41.863 48.801 74.307v.993c0 44.665-36.338 81.002-81.003 81.002zm201.443 116.002h-145v-91.334c44.627-14.392 77.005-56.317 77.005-105.669v-.993c0-30.497-12.485-58.805-33.331-79.241 57.459 9.851 101.326 60.016 101.326 120.241z"/></svg>