<svg id="Capa_1" enable-background="new 0 0 512.127 512.127" height="512" viewBox="0 0 512.127 512.127" width="512" xmlns="http://www.w3.org/2000/svg"><g><path d="m196 121.023c-16.45 0-35.109 17.451-49.913 46.683-11.445 22.598-25.087 61.468-25.087 118.317s13.642 95.719 25.087 118.317c14.804 29.231 33.463 46.683 49.913 46.683s35.109-17.451 49.913-46.683c11.445-22.598 25.087-61.469 25.087-118.317s-13.642-95.719-25.087-118.317c-14.804-29.232-33.463-46.683-49.913-46.683zm-15 283.678c-3.276-4.812-6.742-10.762-10.13-17.975-3.203-6.818-6.621-15.373-9.705-25.703h19.835zm0-73.678h-26.592c-1.449-9.138-2.52-19.135-3.044-30h29.636zm0-60h-29.636c.524-10.865 1.595-20.862 3.044-30h26.592zm0-60h-19.835c3.084-10.331 6.502-18.885 9.705-25.703 3.388-7.213 6.854-13.163 10.13-17.975zm40.13 175.703c-3.388 7.213-6.854 13.163-10.13 17.975v-43.688h19.835c-3.081 10.331-6.498 18.886-9.705 25.713zm16.462-55.703h-26.592v-30.01h29.636c-.524 10.875-1.595 20.872-3.044 30.01zm3.044-60h-29.636v-30h26.592c1.449 9.138 2.52 19.135 3.044 30zm-29.636-60v-43.678c3.276 4.811 6.742 10.761 10.13 17.975 3.203 6.818 6.621 15.373 9.705 25.703z"/><path d="m465.181 236.964c-38.923-67.416-115.991-145.648-193.338-138.621-18.001-20.379-38.744-33.035-60.843-36.978v-61.342h-30v15.041c-12.544-9.438-28.129-15.041-45-15.041h-136v15c0 41.355 33.645 74.99 75 74.99h53.094c-47.853 46.251-67.094 128.093-67.094 196.01 0 94.721 42.972 226 135 226 35.862 0 69.101-22.441 94.198-63.358 41.758 40.988 87.98 63.44 127.846 63.439 16.28 0 31.502-3.743 44.923-11.491 32.558-18.797 50.005-57.715 49.129-109.584-.818-48.365-17.479-103.079-46.915-154.065zm-390.181-176.941c-19.556 0-36.239-12.539-42.43-30h103.43c19.556 0 36.239 12.539 42.43 30zm121 422c-56.916 0-105-89.757-105-196s48.084-196 105-196 105 89.757 105 196-48.084 196-105 196zm108.754-61.308c3.952-8.985 7.481-18.413 10.575-28.208 20.548 29.516 46.736 61.811 73.957 84.843-31.669-9.886-61.747-32.872-84.532-56.635zm20.308-67.728c2.918-16.017 4.79-32.646 5.548-49.637l95.784 164.204c-36.902-22.718-77.916-77.736-101.332-114.567zm3.132-113.319c-2.472-20.176-6.546-39.595-12.126-57.78 23.634 26.304 48.869 61.449 71.17 100.075 26.064 45.143 62.103 120.229 64.803 170.017zm150.729 186.687c-10.054-51.875-39.262-113.593-65.705-159.391-33.438-57.916-71.406-106.362-104.703-134.642 53.823 16.452 102.263 70.417 130.684 119.642 35.997 62.348 49.57 128.95 39.724 174.391z"/></g></svg>