<svg id="Layer_1" enable-background="new 0 0 511.975 511.975" height="512" viewBox="0 0 511.975 511.975" width="512" xmlns="http://www.w3.org/2000/svg"><g><path d="m192.354 243.794c-8.284 0-15 6.716-15 15v1c.738 19.881 29.269 19.866 30 0v-1c0-8.284-6.716-15-15-15z"/><path d="m486.133 314.151c.016-.713 0-1.432-.088-2.16-1.111-9.174 1.691-17.772 8.105-24.864 30.077-32.118 20.552-86.479-17.015-107.064-11.834-48.997-40.195-93.448-79.88-125.184-92.773-76.837-240.226-62.755-316.755 30.547-5.042 5.91-4.735 14.694.708 20.239l53.127 54.123c-17.831 24.491-28.393 54.595-28.476 87.12h-26.002c-32.534 0-59.003 26.468-59.003 59.002v15.847c-29.418 18.194-27.263 62.802 3.633 78.16-14.888 29.133 7.497 65.31 40.368 64.878h213.997c26.853 0 52.476-8.445 74.1-24.424 10.02-7.403 18.746-16.113 26.04-25.857 8.615 26.027 16.349 46.821 31.872 70.88 18.519 28.461 41.498 28.407 59.981.001 8.162-11.934 15.218-27.064 19.699-37.656 19.137-47.615 37.315-98.835-4.411-133.588zm-14.232-47.147c-8.503 9.402-13.77 20.602-15.477 32.531-17.667-4.197-37.874-.626-52.7 8.771-.095-10.379-.87-49.503-.87-67.875 0-21.856 17.781-39.638 39.637-39.638 33.992-.238 52.386 41.205 29.41 66.211zm-217.271-232.21c86.518 0 161.827 55.129 188.686 136.021-19.556-.297-37.532 7.743-50.313 20.682-36.815-94.964-164.289-124.386-238.633-54.124l-41.811-42.595c37.412-38.28 88.46-59.984 142.071-59.984zm-62.276 281c-31.154 0-56.5-25.346-56.5-56.5 2.84-74.852 110.171-74.831 113.001.001-.001 31.153-25.347 56.499-56.501 56.499zm-112.497-38.887h27.802c2.951 14.21 9.402 27.152 18.403 37.887h-75.208v-8.885c0-15.992 13.01-29.002 29.003-29.002zm-30.003 142.887c0-8.271 6.729-15 15-15 19.89-.742 19.858-29.272 0-30h-20c-19.934-.884-19.814-28.932 0-30h124.036c59.526 2.241 59.593 87.664-.001 89.93-17.34 0-86.701.07-104.035.07-8.271 0-15-6.728-15-15zm228.997 15h-50.076c21.52-27.136 19.465-70.246-4.244-95.211 31.807-12.793 54.322-43.959 54.322-80.289 1.068-61.919-67.026-105.353-122.563-78.614 60.201-90.025 203.157-57.007 216.659 51.964.053.426 1.367 104.685 2.346 108.911-3.335 7.997-5.234 16.73-5.408 25.881-12.127 39.233-49.146 67.713-91.036 67.358zm186.322-4.225c-10.832 26.979-19.818 39.809-24.32 44.563-4.501-4.755-13.487-17.585-24.318-44.563-10.951-27.276-16.681-51.723-16.681-61.774 0-22.607 18.393-41 40.999-41 22.608 0 41.001 18.393 41.001 41 0 10.051-5.729 34.497-16.681 61.774z"/></g></svg>