<svg id="Capa_1" enable-background="new 0 0 512 512" height="512" viewBox="0 0 512 512" width="512" xmlns="http://www.w3.org/2000/svg"><g><path d="m256 330.928c41.355 0 75-33.645 75-75v-45h-150v45c0 41.355 33.645 75 75 75zm-45-90h30v30h30v-30h30v15c0 24.813-20.187 45-45 45s-45-20.187-45-45z"/><path d="m76 330.928h40.073l-80.272 54.055c5.361 7.146 21.419 37.899 59.199 68.693 36.895 30.072 69.315 39.637 77.336 43.476l38.664-93.128v62.904c0 24.813 20.187 45 45 45s45-20.187 45-45v-62.905l38.663 93.129c7.871-3.719 38.164-12.767 73.337-40.282 40.786-31.906 58.027-65.064 63.199-71.887l-80.272-54.055h41.073c41.355 0 75-33.645 75-75s-33.645-75-75-75h-41.075l80.274-54.054c-5.361-7.146-21.419-37.9-59.199-68.693-36.898-30.075-69.294-39.626-77.337-43.475l-39.413 94.934-44.25-109.568-44.25 109.567-39.414-94.934c-8.23 3.904-38.883 12.991-74.532 41.222-39.935 31.626-56.968 64.284-62.003 70.946l80.274 54.054h-40.075c-41.327 0-76 33.67-76 75 0 41.328 34.672 75.001 76 75.001zm27.421 90.366c-9.398-8.682-18.051-18.16-25.796-28.308l24.953-16.803c6.053 7.722 12.645 14.942 19.718 21.62zm52.843 36.332c-10.254-5.043-20.113-10.92-29.486-17.503l18.856-23.468c7.07 4.861 14.471 9.264 22.17 13.174zm23.093-55.624c-20.005-10.516-37.578-24.982-51.798-42.642l24.956-16.806c10.76 12.804 23.814 23.549 38.397 31.615zm153.287 0-11.555-27.832c14.583-8.066 27.637-18.812 38.396-31.615l24.956 16.806c-14.22 17.659-31.792 32.125-51.797 42.641zm23.092 55.623-11.54-27.797c7.699-3.91 15.1-8.313 22.17-13.174l18.856 23.468c-9.373 6.583-19.232 12.461-29.486 17.503zm53.686-81.442 24.953 16.803c-7.745 10.147-16.398 19.626-25.796 28.308l-18.875-23.491c7.073-6.678 13.664-13.898 19.718-21.62zm-1.382-286.11c9.605 8.816 18.443 18.458 26.335 28.797l-24.953 16.803c-6.205-7.915-12.975-15.302-20.25-22.117zm-52.304-35.842c10.037 4.936 19.697 10.669 28.892 17.083l-18.861 23.474c-6.888-4.698-14.09-8.96-21.571-12.76zm-23.092 55.623c20.005 10.516 37.577 24.981 51.797 42.64l-24.922 16.782c-10.741-12.815-23.79-23.543-38.419-31.616zm-153.287 0 11.544 27.806c-14.63 8.073-27.678 18.801-38.419 31.616l-24.922-16.781c14.22-17.66 31.792-32.126 51.797-42.641zm-23.093-55.623 11.541 27.797c-7.481 3.8-14.682 8.062-21.571 12.759l-18.862-23.474c9.195-6.414 18.855-12.146 28.892-17.082zm-53.686 81.442-24.953-16.803c7.892-10.34 16.73-19.982 26.335-28.797l18.868 23.482c-7.274 6.816-14.045 14.202-20.25 22.118zm-26.578 75.255h84.705c2.493-3.123 16.463-37.8 58.812-53.493l6.215-2.303 30.268-74.948 30.269 74.948 6.215 2.303c42.412 15.717 56.184 50.202 58.812 53.493h85.704c24.813 0 45 20.187 45 45s-20.187 45-45 45h-85.706c-1.977 2.342-19.318 43.897-69.032 56.693l-11.262 2.898v106.409c0 8.271-6.729 15-15 15s-15-6.729-15-15v-106.409l-11.262-2.898c-49.507-12.743-67.032-54.322-69.033-56.693h-84.705c-24.935 0-46-20.607-46-45s21.065-45 46-45z"/><path d="m61 240.928h30v30h-30z"/><path d="m422 240.928h30v30h-30z"/></g></svg>