<svg id="Layer_1" enable-background="new 0 0 511.965 511.965" height="512" viewBox="0 0 511.965 511.965" width="512" xmlns="http://www.w3.org/2000/svg"><g><path d="m237 268.986c-8.284 0-15 6.716-15 15v1c.738 19.881 29.269 19.866 30 0v-1c0-8.284-6.716-15-15-15z"/><path d="m500.87 309.692-18.587-4.963c14.899-12.538 25.532-29.997 29.27-49.773.812-4.291.348-8.543-2.16-12.221-2.241-3.287-5.697-5.549-9.606-6.288 0 0-14.058-2.657-14.248-2.693.859.162 4.706-5.309 5.322-6.083 5.243-6.587 9.517-13.944 12.637-21.764 4.244-10.635 6.327-22.098 6.091-33.546-.101-4.918-.567-9.741-3.974-13.566-3.04-3.414-7.561-5.293-12.126-5.002l-31.927 1.966c10.166-18.877 13.251-41.33 7.59-62.792-1.776-8.341-10.241-13.936-18.583-11.633l-62.819 16.572c6.285-24.595 1.561-51.428-14.295-72.719-4.537-6.721-13.808-9.021-20.718-4.483l-202.73 129.761v-65.472c0-41.356-33.646-75.003-75.003-75.003s-75.004 33.646-75.004 75.003v10.997c.021 31.202 31.048 51.382 59.996 41.721.001 6.215.002 12.431.003 18.646l.004 31.628c0 36.057-8.006 40.003-25 40.003-8.284 0-15 6.716-15 15v103c0 8.284 6.716 15 15 15 15.234 0 38.26-4.22 52.948-26.638 37.438 65.64 107.72 107.639 185.058 107.639h54.278c-.586.008-1.066 1.948-1.428 4.251-3.14 19.746 2.573 36.652 18.025 47.855 13.98 9.755 32.543 9.45 48.262 4.511 43.652-12.774 64.746-66.319 43.799-106.136 34.872-3.216 65.741-27.696 75.291-63.456 2.609-8.043-2.009-17.247-10.366-19.322zm-86.99 118.289c-1.065 22.89-19.23 44.418-44.699 44.007-5.204-.084-9.667-2.641-12.127-7.283-4.253-8.023-1.407-19.211 7.782-22.084 1.347-.421 2.756-.634 4.167-.634 8.546-.002 15.997-6.084 15.997-15 0-8.284-6.716-15-15-15h-96.991c-77.792 0-147.276-49.473-172.904-123.106-2.294-6.59-8.837-10.743-15.765-9.983-6.938.743-12.446 6.173-13.291 13.099-2.82 23.133-11.169 32.791-21.046 36.632v-72.08c32.884-7.894 39.649-32.476 40-68.564l-.004-31.634c-.003-20.438-.007-40.887.003-61.322.003-6.068-3.65-11.54-9.257-13.863-5.607-2.324-12.06-1.041-16.35 3.25-3.128 3.128-4.401 7.233-4.395 11.574.025 18.149-30 18.611-30 0v-10.997c2.257-59.581 87.728-59.647 90.006.001 0-.001 0 143.992 0 143.992 0 84.366 68.637 153.003 153.003 153.003h96.994c24.432-.467 45.697 21.926 43.877 45.992zm-176.88-86.994c-31.154 0-56.5-25.346-56.5-56.5 2.841-74.853 110.171-74.833 113 .001 0 31.153-25.346 56.499-56.5 56.499zm193.939-98.456c.456 6.819 5.465 12.469 12.181 13.738l34.573 6.534c-7.638 16.072-22.771 28.025-40.782 31.29-6.909 1.253-12.025 7.132-12.312 14.147-.286 7.017 4.333 13.293 11.117 15.104l41.209 11.004c-12.247 21.7-38.066 33.306-63.23 26.587-14.214-3.795-28.825-8.948-43.693-8.948h-78.978c63.143-50.165 27.632-153.911-54.026-154.002-39.235 0-72.448 26.262-82.998 62.13-5.893-18.712-3.588-54.226-3.995-74.031l205.865-131.766c8.037 18.627 5.466 40.656-7.572 57.085-4.017 5.061-4.342 12.124-.807 17.532 3.534 5.406 10.131 7.944 16.382 6.297l78.098-20.604c.032 17.953-8.623 35.361-23.717 46.051-5.47 3.874-7.706 10.906-5.479 17.228 2.229 6.32 8.362 10.384 15.069 9.985l50.737-3.124c-3.794 19.516-17.85 36.038-37.399 42.525-6.487 2.153-10.699 8.419-10.243 15.238z"/></g></svg>