<svg id="Capa_1" enable-background="new 0 0 512 512" height="512" viewBox="0 0 512 512" width="512" xmlns="http://www.w3.org/2000/svg"><g><path d="m91 286v75h60v63.58c-17.459 6.192-30 22.865-30 42.42v45h270v-45c0-19.555-12.541-36.228-30-42.42v-63.58h60v-75c0-41.355-33.645-75-75-75h-30.041c6.565-8.725 11.274-18.922 13.532-30h61.509v-121h-30v-60h-210v60h-30v121h61.509c2.258 11.078 6.967 21.275 13.532 30h-30.041c-41.355 0-75 33.645-75 75zm120 196h-60v-15c0-8.271 6.729-15 15-15h45zm0-60h-30v-61h30zm60 60h-30c0-21.815 0-90.183 0-121h30zm90 0h-60v-30h45c8.271 0 15 6.729 15 15zm-60-60v-61h30v61zm60-271h-30v-61h30zm-180 0h-30v-61h30zm0-91v-30h150v30zm30 60v-30h90v30zm90 30v16c0 24.813-20.187 45-45 45s-45-20.187-45-45v-16zm45 91c24.813 0 45 20.187 45 45v45h-120v-30h75v-30h-180v30h75v30h-120v-45c0-24.813 20.187-45 45-45z"/></g></svg>