<svg id="Layer_1" enable-background="new 0 0 512.005 512.005" height="512" viewBox="0 0 512.005 512.005" width="512" xmlns="http://www.w3.org/2000/svg"><path d="m414.607 324.158c58.78-25.989 58.749-110.343 0-136.311l64.465-114.439c4.065-7.219 1.511-16.365-5.707-20.432l-90.612-51.043c-7.221-4.064-16.366-1.512-20.432 5.707l-85.914 152.516c-13.086-2.852-27.729-2.859-40.819-.02l-85.904-152.496c-4.065-7.217-13.213-9.771-20.432-5.707l-90.612 51.043c-3.466 1.953-6.015 5.202-7.085 9.034-1.07 3.831-.574 7.931 1.378 11.397l64.466 114.439c-58.781 25.989-58.75 110.343-.001 136.311l-64.465 114.44c-4.065 7.219-1.511 16.365 5.707 20.432l90.612 51.043c2.328 1.311 4.855 1.934 7.349 1.934 5.239-.001 10.328-2.75 13.083-7.641l85.903-152.496c13.091 2.839 27.733 2.832 40.819-.02l85.914 152.516c4.089 7.286 13.346 9.735 20.432 5.707l90.612-51.043c7.218-4.066 9.772-13.213 5.707-20.432zm-99.228-101.156h-118.854c25.26-46.374 93.612-46.35 118.854 0zm-184.471 253.57-64.475-36.319 66.395-117.864c2.445-4.342 2.575-9.614.347-14.07-2.228-4.457-6.523-7.516-11.464-8.164-51.222-7.876-51.192-80.445.002-88.303 4.94-.648 9.235-3.707 11.463-8.164 2.229-4.456 2.099-9.729-.347-14.07l-66.396-117.866 64.475-36.319 76.353 135.544c-65.33 36.649-65.297 133.428 0 170.051zm57.044-220.57c0-1.006.033-2.004.076-3h135.848c.205 92.135-132.056 95.019-135.924 3zm193.145 220.57-76.377-135.588c65.228-36.664 65.196-133.324 0-169.963l76.377-135.588 64.475 36.319-66.395 117.864c-2.445 4.342-2.575 9.614-.347 14.07 2.228 4.457 6.523 7.516 11.464 8.164 51.224 7.873 51.189 80.447 0 88.303-4.94.648-9.236 3.707-11.464 8.164-2.229 4.456-2.099 9.729.347 14.07l66.395 117.864z"/></svg>