<svg id="Layer_1" enable-background="new 0 0 512 512" height="512" viewBox="0 0 512 512" width="512" xmlns="http://www.w3.org/2000/svg"><g><path d="m497 36.466h-196.573c-19.002-34.449-69.864-34.431-88.853 0h-196.574c-8.284 0-15 6.716-15 15v96c0 4.369 1.905 8.521 5.216 11.37 3.309 2.855 7.738 4.115 12.021 3.462l140.362-21.166c-36.39 48.285-27.109 123.195 18.743 161.333h-60.339c-13.251 0-24.994 5.192-33.065 14.62-14.34 16.074-14.34 44.686 0 60.76 2.372 2.77 5.068 5.164 8.018 7.178-.218 39.512-2.267 56.821-8.203 71.724-4.057 10.184-2.524 21.477 4.101 30.21 17.868 23.307 52.792 8.902 70.54-7.401 13.643 23.836 48.279 29.372 68.606 10.415 20.329 18.958 54.956 13.417 68.598-10.401 11.708 10.921 26.592 17.781 42.542 19.48 10.74 1.177 21.383-3.339 27.983-12.093 6.625-8.733 8.158-20.026 4.101-30.209-1.87-4.694-3.425-11.693-4.661-20.942 42.849 58.035 136.342 28.069 135.935-45.342.001-13.176-5.203-24.9-14.652-33.013-15.595-13.713-41.751-14.68-58.523-1.8-6.376-11.038-14.694-20.911-24.609-29.04-18.774-15.391-42.564-23.932-67.076-24.129 45.619-37.931 55.119-112.357 19.26-160.653l139.929 20.478c4.274.632 8.687-.639 11.98-3.493 3.296-2.85 5.191-6.991 5.191-11.349v-96c.002-8.283-6.714-14.999-14.998-14.999zm-190 65.29v-35.29h115.001v54.865l-107.453-15.725c-2.465-1.369-4.982-2.653-7.548-3.85zm-51-61.29c11.58 0 21 9.421 21 21v30.828c-13.574-2.428-28.426-2.428-42 0v-30.828c0-11.579 9.42-21 21-21zm-51 61.29c-1.841.859-3.657 1.763-5.446 2.711l-109.555 16.52v-54.521h115.001zm-175-35.29h29.999v59.045l-29.999 4.523zm120.977 358.997c0 22.557-16.902 41.367-39.315 43.755-.511.058-.596.018-.907-.392-.31-.408-.322-.5-.132-.977 7.08-17.774 9.768-36.501 10.266-75.384h30.088zm45.023 46.003c-8.271 0-15-6.729-15-15v-64h30v64 .006c-.004 8.269-6.731 14.994-15 14.994zm75-15c-.756 19.874-29.244 19.864-30 .006 0-.002 0-.004 0-.006v-64h30zm70.222 12.36c-.311.409-.394.449-.905.392-22.415-2.387-39.317-21.198-39.317-43.755v-32.998h30.473c1.125 37.26 4.3 61.375 9.881 75.386.19.475.178.567-.132.975zm-6.446-136.361c37.183 0 68.226 25.441 75.492 61.868 1.337 6.706 7.04 11.658 13.867 12.043l.521.029c4.113.229 8.15-1.242 11.147-4.076 2.998-2.833 4.696-6.775 4.696-10.9 0-13.842 11.381-14.917 14.87-14.917 1.549 0 15.13.392 15.13 13.954-.098 55.217-77.823 62.882-89.631 9.801-4.443-22.257-23.396-37.802-46.092-37.802h-218.773c-16.802-.27-15.777-19.993-10.276-25.87 2.379-2.779 5.741-4.13 10.276-4.13h139.921c.051.001.102.001.154 0zm-78.699-30h-.154c-50.142-.042-90.923-40.847-90.923-90.999 4.575-120.558 177.444-120.525 182.001.001 0 50.151-40.781 90.956-90.924 90.998zm225.923-172.353-29.999-4.39v-59.256h29.999z"/><path d="m301.177 183.466h-90.354c-6.689 0-12.57 4.43-14.417 10.858-11.695 38.726 19.05 79.753 59.594 79.141 40.537.613 71.298-40.418 59.594-79.141-1.846-6.428-7.727-10.858-14.417-10.858zm-45.177 60c-16.973 0-30.901-13.283-31.938-30h63.876c-1.036 16.717-14.965 30-31.938 30z"/></g></svg>