<svg id="Capa_1" enable-background="new 0 0 512 512" height="512" viewBox="0 0 512 512" width="512" xmlns="http://www.w3.org/2000/svg"><g><path d="m442.213 121h-51.213v45.069c-5.775 4.318-10.813 9.354-15.033 14.94-13.697-18.209-35.479-30.009-59.967-30.009-24.507 0-46.305 11.814-60 30.047-13.695-18.233-35.493-30.047-60-30.047-24.488 0-46.27 11.8-59.967 30.01-4.22-5.587-9.259-10.622-15.033-14.94v-45.07h-51.213l-30 30h-39.787v90h61v75c0 41.355 33.645 75 75 75 24.507 0 46.305-11.814 60-30.047 13.695 18.233 35.493 30.047 60 30.047s46.305-11.814 60-30.047c13.695 18.233 35.493 30.047 60 30.047 41.355 0 75-33.645 75-75 0-10.303 0-64.759 0-75h61v-90h-39.787zm39.787 90h-61v105c0 24.813-20.187 45-45 45s-45-20.187-45-45v-105h-30v105c0 24.813-20.187 45-45 45s-45-20.187-45-45v-105h-30v105c0 24.813-20.187 45-45 45s-45-20.187-45-45c0-23.614 0-81.763 0-105h-61v-30h22.213l30-30h8.787v31.713c2.222 2.01 30 12.14 30 43.287v105h30v-105c0-24.813 20.187-45 45-45s45 20.187 45 45v105h30v-105c0-24.813 20.187-45 45-45s45 20.187 45 45v105h30v-105c0-31.338 27.648-41.159 30-43.287v-31.713h8.787l30 30h22.213z"/></g></svg>