<svg id="Layer_1" enable-background="new 0 0 511.599 511.599" height="512" viewBox="0 0 511.599 511.599" width="512" xmlns="http://www.w3.org/2000/svg"><g><path d="m443.316 111.279c-86.736-90.094-241.091-91.029-328.604-2.759-26.434 20.508-42.766 54.809-39.918 90.362-36.251 3.158-64.794 33.659-64.794 70.716v3.997c0 8.145 6.496 14.758 14.587 14.979-1.67 4.701-2.587 9.755-2.587 15.021v60c0 5.258.915 10.304 2.58 14.998h-9.58c-8.284 0-15 6.716-15 15v20.997c0 29.777 24.226 54.003 54.003 54.003h196.994c30.48 0 57.85-13.572 76.384-34.989 21.522-2.774 41.125-11.186 57.396-23.636l34.279 35.553c2.761 2.864 6.547 4.514 10.525 4.586 3.97.075 7.823-1.438 10.685-4.199 93.746-87.688 95.428-245.334 3.05-334.629zm-331.316 192.316c.755-19.87 29.236-19.866 30-.013v.013 15h-30zm0 45h30v15 .013c-.771 19.868-29.252 19.842-30-.013zm75 29.998c-.006 0-.013.001-.019.001-8.258-.011-14.973-6.727-14.98-14.986 0-.004 0-.008 0-.013v-15h30v15c0 8.259-6.708 14.977-14.961 14.998zm15-59.998h-30v-15c0-.004 0-.009 0-.013.771-19.868 29.252-19.842 30 .013zm-120 0h-30v-15c.756-19.877 29.251-19.862 30 0zm-30 45v-15h30v15c0 8.259-6.708 14.977-14.961 14.998h-.077c-8.254-.021-14.962-6.739-14.962-14.998zm198.997 74.998h-196.994c-13.235 0-24.003-10.768-24.003-24.003v-5.997c.077-.002 36.98.006 37.077 0 10.992 0 21.742-4.16 29.923-11.493 16.075 15.18 43.928 15.177 60 0 7.982 7.155 18.541 11.52 30.077 11.493h63.92c22.609 0 41.003-18.394 41.003-41.003 0 0 0-25.952 0-25.992 0-17.901 30-18.544 30 0v25.992c-.001 39.151-31.853 71.003-71.003 71.003zm56.981-140.574c-23.921-1.762-46.263 18.289-45.978 43.58v25.992c0 5.964-5.039 11.003-11.003 11.003h-21.577c1.665-4.694 2.58-9.74 2.58-14.998v-60c.143-38.741-46.632-59.326-75-33.505-16.075-15.179-43.928-15.176-60 0-16.479-15.086-35.168-10.96-55.501-11.495 4.82-17.283 20.705-30 39.504-30h8.999c8.284 0 15-6.716 15-15 0 0-.502-20.194-.502-22.5 0-41.355 33.645-75 75-75 45.427-.393 81.369 41.561 74.134 86.369-.342 2.23-.158 4.415.433 6.448.668 7.666 7.094 13.683 14.933 13.683h42.998c90.845.628 123.57 119.757 47.836 168.219-3.921 2.469-8.034 4.633-12.29 6.466 5.633-15.67 4.396-38.92 4.455-55.682 0-26.042-21.658-42.586-44.021-43.58zm121.874 115.478s-23.702-24.583-23.702-24.583c14.368-18.194 23.682-41.295 25.468-64.729 6.608-69.916-49.153-131.968-119.621-131.589h-27.526c.842-51.533-36.149-95.189-84.991-104.585 201.464-80.099 372.88 162.217 230.372 325.486z"/><path d="m179.5 146.095c-24.813 0-45 20.187-45 45 2.262 59.616 87.747 59.601 90.001-.001-.001-24.812-20.188-44.999-45.001-44.999zm0 60c-8.271 0-15-6.729-15-15 .754-19.872 29.25-19.867 30.001 0-.001 8.271-6.73 15-15.001 15z"/></g></svg>