<svg id="Capa_1" enable-background="new 0 0 512 512" height="512" viewBox="0 0 512 512" width="512" xmlns="http://www.w3.org/2000/svg"><g><path d="m467 271h-47.509c-5.966-29.275-29.04-52.402-58.286-58.448 1.98-67.623 17.21-145.916 34.112-212.552l-278.633.001c17.009 67.054 32.141 145.189 34.112 212.55-29.247 6.046-52.32 29.173-58.287 58.449h-47.509c-24.813 0-45 20.187-45 45 0 19.555 12.541 36.228 30 42.42v92.58h78.784c20.205 40.345 50.121 59.038 52.21 61h190.012c2.225-2.089 31.919-20.485 52.21-61h78.784v-92.58c17.459-6.192 30-22.865 30-42.42 0-24.813-20.187-45-45-45zm-437 45c0-8.271 6.729-15 15-15h46v30h-46c-8.271 0-15-6.729-15-15zm30 105v-60h31v15c0 15.356 2.148 30.49 6.208 45zm296.995-391c-1.819 7.976-4.053 18.179-6.439 30h-189.112c-2.386-11.821-4.62-22.024-6.44-30zm-40.995 114.787-30-30-30 30-30-30-30 30-23.841-23.841c-1.595-10.75-3.303-21.133-5.036-30.956h177.755c-1.733 9.823-3.441 20.204-5.036 30.954zm17.91 24.516c-1.316 13.929-2.262 27.954-2.676 41.697h-150.468c-.414-13.743-1.36-27.768-2.675-41.696l17.909 17.909 30-30 30 30 30-30 30 30zm57.09 206.697c0 40.892-18.472 80.303-50.157 106h-169.686c-31.635-25.657-50.157-65.041-50.157-106v-90c0-24.813 20.187-45 45-45h180c24.813 0 45 20.187 45 45zm61 45h-37.208c4.06-14.51 6.208-29.644 6.208-45v-15h31zm15-90h-46v-30h46c8.271 0 15 6.729 15 15s-6.729 15-15 15z"/><path d="m241 316c0-24.813-20.187-45-45-45s-45 20.187-45 45 20.187 45 45 45 45-20.187 45-45zm-60 0c0-8.271 6.729-15 15-15s15 6.729 15 15-6.729 15-15 15-15-6.729-15-15z"/><path d="m316 271c-24.813 0-45 20.187-45 45s20.187 45 45 45 45-20.187 45-45-20.187-45-45-45zm0 60c-8.271 0-15-6.729-15-15s6.729-15 15-15 15 6.729 15 15-6.729 15-15 15z"/><path d="m301 406h-90v-15h-30v60h30v-15h90v15h30v-60h-30z"/></g></svg>