<svg id="Layer_1" enable-background="new 0 0 511.999 511.999" height="512" viewBox="0 0 511.999 511.999" width="512" xmlns="http://www.w3.org/2000/svg"><path d="m359.207 100.227c-24.009-45.475-57.385-79.607-96.519-98.708-4.151-2.025-9.005-2.025-13.158 0-177.999 91.727-177.988 417.24 0 508.961 4.152 2.026 9.006 2.026 13.158 0 137.537-69.726 166.615-281.389 96.519-410.253zm6.902 155.773c0 13.856-.864 27.516-2.532 40.863-43.626-7.66-43.131-69.483.612-76.44 1.264 11.66 1.92 23.544 1.92 35.577zm-110-224.103c21.947 12.103 41.446 29.993 57.707 52.103h-115.414c16.261-22.11 35.76-40 57.707-52.103zm-110 224.103c0-52.199 12.261-101.616 33.568-141.999h152.865c2.54 4.814 4.95 9.756 7.228 14.816-55.095 12.268-97.76 64.038-99.055 120.647-.024.64.061 33.13.061 33.13-.807 15.856-17.278 27.174-32.392 22.304-7.922-2.432-16.31 2.022-18.739 9.943-2.429 7.92 2.023 16.31 9.943 18.738 5.238 1.606 10.673 2.421 16.152 2.421 29.292 0 53.457-22.913 55.014-52.165.015-.266-.006-33.561-.024-33.86 1.988-45.78 35.669-84.239 79.975-92.825 3.54 10.846 6.51 22.082 8.868 33.627-77.136 12.774-77.927 121.667-1.105 135.642-5.728 25.807-14.532 49.986-25.926 71.581h-152.866c-21.306-40.384-33.567-89.802-33.567-142zm110 224.102c-21.947-12.103-41.446-29.993-57.707-52.104h115.414c-16.261 22.111-35.76 40.002-57.707 52.104z"/></svg>