<svg id="Capa_1" enable-background="new 0 0 512 512" height="512" viewBox="0 0 512 512" width="512" xmlns="http://www.w3.org/2000/svg"><g><path d="m376 31h-45v90h-30v-90h-90v90h-30v-90h-45c-74.991 0-136 60.561-136 135v6.286l48.738 47.939c-10.773 8.229-17.738 21.203-17.738 35.775 0 19.556 12.539 36.239 30 42.43v17.57c0 36.219 25.808 66.522 60 73.491v91.509h270v-91.509c34.192-6.968 60-37.271 60-73.491v-17.57c17.461-6.191 30-22.874 30-42.43 0-14.572-6.965-27.546-17.738-35.775l48.738-47.939v-6.286c0-74.439-61.01-135-136-135zm45 39.943c12.925 6.027 24.427 14.566 33.865 24.979l-33.865 33.866zm-60-9.943h15c5.091 0 10.098.362 15 1.053v60.456c-4.848-.988-9.864-1.509-15-1.509h-15zm-120 0h30v60h-30zm-120 1.053c4.902-.691 9.909-1.053 15-1.053h15v60h-15c-5.136 0-10.152.521-15 1.509zm-30 8.89v58.844l-33.865-33.865c9.438-10.412 20.94-18.951 33.865-24.979zm-60.823 88.946c.799-13.729 4.274-26.759 9.913-38.585l33.367 33.367c-6.897 10.402-11.258 22.615-12.229 35.76zm60.823 156.111v-45h-15c-8.271 0-15-6.729-15-15s6.729-15 15-15h15v-45c0-24.813 20.187-45 45-45h15v60h-30v30h30v120h-15c-24.813 0-45-20.187-45-45zm90 135h-30v-60h30zm120 0h-90v-90h-30v-210h150v210h-30zm60 0h-30v-60h30zm75-180h-15v45c0 24.813-20.187 45-45 45h-15v-120h30v-30h-30v-60h15c24.813 0 45 20.187 45 45v45h15c8.271 0 15 6.729 15 15s-6.729 15-15 15zm14.771-80.569c-.971-13.145-5.332-25.357-12.229-35.76l33.367-33.367c5.639 11.826 9.114 24.856 9.912 38.585z"/><path d="m211 211h30v30h-30z"/><path d="m271 211h30v30h-30z"/><path d="m211 301h90v30h-90z"/></g></svg>