<svg id="Capa_1" enable-background="new 0 0 512.188 512.188" height="512" viewBox="0 0 512.188 512.188" width="512" xmlns="http://www.w3.org/2000/svg"><g><path d="m256.124 233.063c-80.961 0-176.039 6.933-256 16.745v146.511c12.745 1.569 26.651 3.434 61 6.667v70.078h90v-63.24c33.005 1.891 69.115 3.24 105 3.24s71.995-1.349 105-3.24v63.24h90v-70.078c32.738-3.081 47.79-5.04 61-6.667v-146.512c-80.062-9.824-175.125-16.744-256-16.744zm75 31.75c10.222.45 20.251.969 30 1.534v26.715h-30zm-60-1.671c10.044.103 20.069.302 30 .583v29.338h-30zm-60 .582c9.931-.281 19.956-.48 30-.583v29.921h-30zm-60 2.622c9.749-.565 19.777-1.084 30-1.534v28.25h-30zm-90 106.508c-12.881-1.228-23.441-2.339-31-3.17v-93.245c7.559-.831 18.119-1.942 31-3.171zm60 70.209h-30v-37.436c9.422.773 19.467 1.545 30 2.283zm300 0h-30v-35.153c10.533-.738 20.578-1.51 30-2.283zm0-67.531c-45.121 3.75-105.383 7.531-165 7.531-59.593 0-119.867-3.782-165-7.533v-104.937c9.392-.781 19.438-1.563 30-2.311v54.78h270v-54.778c10.561.749 20.608 1.531 30 2.312zm61-5.846c-7.559.831-18.119 1.942-31 3.171v-99.586c12.881 1.228 23.441 2.339 31 3.17z"/><path d="m398.407 95.825-7.571-13.113-25.98 15 7.523 13.031-2.894 1.659c-18.124-12.877-44.372-9.065-64.091 2.32-25.599 14.78-43.519 44.624-29.461 68.972 11.333 19.629 42.578 27.377 74.461 8.971 19.578-11.303 36.111-32.075 34.062-54.264l2.924-1.675 7.476 12.949 25.98-15-7.429-12.868 98.781-56.617-14.918-26.03zm-63.013 70.858c-15.859 9.155-30.423 7.307-33.48 2.009-4.09-7.085 6.416-21.025 18.48-27.99 9.23-5.328 28.762-10.182 33.48-2.009 4.09 7.085-6.416 21.025-18.48 27.99z"/><path d="m91.412 134.673 25.98 15 7.476-12.95 2.924 1.676c-2.046 22.181 14.454 42.944 34.062 54.264 32.031 18.493 63.139 10.64 74.462-8.971 12.617-21.854-.324-52.149-29.462-68.972-19.727-11.388-45.971-15.195-64.092-2.319l-2.894-1.659 7.523-13.031-25.98-15-7.571 13.113-98.923-56.7-14.917 26.029 98.841 56.653zm66.962 4.02c4.761-8.247 24.26-3.314 33.48 2.009 15.86 9.157 21.539 22.694 18.481 27.99-3.058 5.297-17.622 7.146-33.481-2.009-14.15-8.17-21.976-21.934-18.48-27.99z"/></g></svg>