<svg id="Layer_1" enable-background="new 0 0 512.22 512.22" height="512" viewBox="0 0 512.22 512.22" width="512" xmlns="http://www.w3.org/2000/svg"><path d="m373.993 381.945h-95.994c-1.048 0-2.003-.955-2.003-2.003v-14.226c16.119-10.627 28.272-26.781 33.758-45.747l64.134-106.546c4.265-7.073 2.009-16.263-5.046-20.558-.94-.572-1.892-1.133-2.846-1.693v-102.481c37.18-9.634 44.128-61.49 11.69-81.86-25.08-14.673-59.303-3.375-78.198 15.093-13.715-23.684-48.24-29.106-68.491-10.215-20.257-18.896-54.777-13.463-68.489 10.208-22.112-22.102-65.947-33.069-88.414-5.722-20.189 24.477-8.797 64.239 21.903 72.356v102.613c-.97.569-1.938 1.14-2.895 1.722-7.053 4.296-9.307 13.483-5.043 20.556l63.824 105.336c5.316 19.488 17.649 36.1 34.114 46.95v14.215c0 50.73 41.271 92.003 92.002 92.003h80.348c1.687 19.86 16.623 36.286 36.525 39.643 20.495 3.572 41.424-8.276 48.64-28.267 18.111-48.055-17.982-102.035-69.519-101.377zm-143.005-32.724c-28.673 0-52-23.326-52-51.999 2.614-68.892 101.396-68.873 104 .001 0 28.672-23.327 51.998-52 51.998zm122.011-319.006c8.1 0 15.505 5.254 15.505 14.002 0 4.29-.698 8.194-3.682 11.449-3.109 3.391-7.307 4.548-11.823 4.548-9.375 0-17.003 7.628-17.003 17.003v99.346c-9.6-3.837-19.632-7.133-30-9.859v-89.487c0-25.917 21.085-47.002 47.003-47.002zm-92.003-.001c8.271 0 15 6.729 15 15v115.338c-9.829-1.475-19.852-2.474-30-2.968v-112.37c0-8.272 6.728-15 15-15zm-75 15c.756-19.876 29.251-19.863 30 0v112.369c-10.148.494-20.171 1.492-30 2.967zm-77.005 15.079c-12.966.802-19.706-16.363-11.192-25.469 2.836-3.036 7.085-4.61 11.196-4.61 25.917 0 47.002 21.085 47.002 47.003v89.483c-10.368 2.726-20.399 6.021-29.999 9.857 0 0 0-99.327 0-99.34.084-9.125-7.819-17.201-17.007-16.924zm121.997 126.921c39.912 0 78.077 8.469 109.173 24.046l-33.222 55.1c-27.508-67.795-124.471-67.729-151.917.04l-33.237-55.124c31.1-15.589 69.274-24.062 109.203-24.062zm184.351 285.796c-5.348 14.494-26.853 10.86-27.149-4.581l-.195-11.734c-.137-8.186-6.812-14.75-14.998-14.75h-94.997c-34.188 0-62.002-27.814-62.002-62.003v-2.119c9.678 1.851 20.322 1.85 29.999-.003v2.121c0 17.646 14.356 32.003 32.003 32.003h95.994c31.558-.26 51.988 32.552 41.345 61.066z"/></svg>