<svg id="Layer_1" enable-background="new 0 0 512.002 512.002" height="512" viewBox="0 0 512.002 512.002" width="512" xmlns="http://www.w3.org/2000/svg"><path d="m511.798 485.035-20-120c-1.205-7.233-7.463-12.534-14.796-12.534h-36.002v-30.002h8.5c8.284 0 15-6.716 15-15v-164.498h19.5c11.232.14 18.673-12.42 13.157-22.202-10.083-18.421-16.099-33.519-18.93-47.511-2.758-13.634-2.887-28.912-.395-46.706.603-4.3-.688-8.648-3.536-11.925-2.849-3.275-6.978-5.156-11.318-5.156h-414.002c-4.341 0-8.47 1.881-11.318 5.156-2.849 3.276-4.139 7.625-3.536 11.925 2.505 17.885 2.391 33.162-.349 46.705-2.803 13.854-8.822 28.959-18.944 47.538-5.491 9.784 1.957 22.317 13.172 22.176h19.5v104.5c0 8.284 6.716 15 15 15h193.499v90h-205.5c-8.284 0-15 6.716-15 15v45h-20.5c-8.284 0-15 6.716-15 15v60c0 8.284 6.716 15 15 15h482.002c4.409 0 8.595-1.94 11.445-5.305 2.85-3.364 4.075-7.811 3.351-12.161zm-448.621-405.8c2.477-12.244 3.274-25.354 2.396-39.734h380.815c-.862 14.33-.052 27.441 2.435 39.735 2.173 10.74 5.757 21.776 11.008 33.765h-407.687c5.282-12.056 8.873-23.09 11.033-33.766zm14.323 63.766h357v149.498h-66.5v-29.998h21.5c8.284 0 15-6.716 15-15v-60c0-8.284-6.716-15-15-15h-267c-8.284 0-15 6.716-15 15v45h-30zm60 89.5v-30h237v30h-21.5c-8.284 0-15 6.716-15 15v104.999h-52v-104.999c0-8.284-6.716-15-15-15zm230.5 89.998h43v30.002h-43zm-302.5 60.002h34.5v30h-34.5zm-35.5 60h70v30h-70zm100-14.981c0-.006.001-.013.001-.019v-45h126v27h-75.001c-8.284 0-15 6.716-15 15v48h-36zm66 44.981v-33h75.001c8.284 0 15-6.716 15-15v-42h178.294l15 90z"/></svg>