<svg id="Capa_1" enable-background="new 0 0 512 512" height="512" viewBox="0 0 512 512" width="512" xmlns="http://www.w3.org/2000/svg"><g><path d="m125.188 512h261.623c23.432-71.247 34.189-152.549 34.189-225 0-89.686-16.198-163.323-25.092-197h25.092v-45c0-24.813-20.187-45-45-45h-240c-24.813 0-45 20.187-45 45v44.99h25.092c-8.894 33.677-25.092 107.324-25.092 197.01 0 72.326 10.725 153.653 34.188 225zm21.975-30c-6.251-22.118-20.24-78.119-24.739-150h65.548l40 60h-60l60 90zm76.864-150h63.945l-31.972 47.959zm31.973 137.958-31.973-47.958h63.945zm108.837 12.042h-80.809l60-90h-60l40-60.01h65.548c-4.499 71.897-18.489 127.9-24.739 150.01zm-243.837-437c0-8.271 6.729-15 15-15h240c8.271 0 15 6.729 15 15v15h-270zm43.027 45h63.945l-31.972 47.959zm3.946 60h-34.306c2.775-15.229 5.645-28.43 8.203-39.155zm88.027-47.959 31.973 47.959h-63.945zm28.027-12.041h63.945l-31.972 47.959zm86.103 20.845c2.558 10.726 5.428 23.926 8.203 39.155h-34.306zm-241.338 69.155h254.416c4.437 31.033 7.792 67.537 7.792 107 0 5.055-.058 10.054-.164 15h-269.672c-.105-4.946-.164-9.945-.164-15 0-39.463 3.355-75.967 7.792-107z"/></g></svg>