<svg id="Layer_1" enable-background="new 0 0 512 512" height="512" viewBox="0 0 512 512" width="512" xmlns="http://www.w3.org/2000/svg"><path d="m507.643 4.305c-3.438-3.356-8.254-4.309-13.071-4.305l-69.072.131c-8.284.016-14.987 6.744-14.972 15.028s6.747 14.988 15.028 14.972l35.125-.066-30.198 30.208c-.911-.173-54.92-.142-54.92-.142-8.284.021-14.983 6.753-14.962 15.037.02 8.285 6.758 14.985 15.038 14.963l25.058-.062-187.957 188.015-57.053-16.58c-5.252-1.523-10.923-.072-14.792 3.798l-131.672 131.672c-3.75 3.749-5.241 9.2-3.922 14.336 1.318 5.137 5.251 9.194 10.343 10.675l41.256 11.989-52.406 52.422c-5.857 5.858-5.855 15.355.003 21.213 5.859 5.857 15.356 5.855 21.213-.004l52.513-52.53s12.05 41.466 12.069 41.529c3.117 10.724 17.119 14.313 25.01 6.421l131.656-131.655c3.869-3.869 5.325-9.538 3.797-14.792l-16.681-57.402s273.471-273.556 273.581-273.666c5.629-5.596 5.689-15.646-.012-21.205zm-459.274 395.949 107.465-107.466 32.705 9.505-107.439 107.472zm63.654 63.624-9.553-32.873 27.893-27.893 79.556-79.556 9.554 32.874z"/></svg>