<svg id="Capa_1" enable-background="new 0 0 512 512" height="512" viewBox="0 0 512 512" width="512" xmlns="http://www.w3.org/2000/svg"><g><path d="m467 0h-69.493l-84.485 140.809-12.022-12.022v-38.787h30v-30h-32.58c-6.192-17.458-22.865-30-42.42-30-24.813 0-45 20.187-45 45v53.787l-12.022 12.022-84.485-140.809h-69.493c-24.813 0-45 20.187-45 45 0 21.05 14.53 38.764 34.086 43.655-1.984 5.07-3.086 10.58-3.086 16.345 0 20.723 14.085 38.209 33.181 43.414-2.044 5.137-3.181 10.73-3.181 16.586 0 24.813 20.187 45 45 45h2.58c-1.665 4.695-2.58 9.742-2.58 15 0 24.813 20.187 45 45 45h6.875l52.917 81.14-55.234 31.889c-21.488 12.407-28.876 39.983-16.47 61.471 12.434 21.537 39.929 28.909 61.471 16.471l10.441-6.029v12.058c-.001 24.87 20.126 45 45 45 24.813 0 45-20.187 45-45v-12.058l10.442 6.029c21.489 12.407 49.064 5.018 61.471-16.471 12.406-21.488 5.018-49.064-16.471-61.471l-55.234-31.889 52.917-81.14h6.875c24.813 0 45-20.187 45-45 0-5.258-.915-10.305-2.58-15h2.58c24.813 0 45-20.187 45-45 0-5.856-1.137-11.449-3.181-16.586 19.096-5.205 33.181-22.691 33.181-43.414 0-5.884-.972-11.399-2.764-16.42 19.394-5.003 33.764-22.645 33.764-43.58 0-24.813-20.187-45-45-45zm0 60h-46v30h15c13.051 0 15 9.398 15 15 0 8.271-6.729 15-15 15h-45v30h15c8.271 0 15 6.729 15 15s-6.729 15-15 15h-45v30c8.271 0 15 6.729 15 15s-6.729 15-15 15h-23.125l-66.875 102.541v25.799l70.442 40.669c7.163 4.136 9.626 13.328 5.491 20.49-4.136 7.164-13.329 9.625-20.491 5.491l-55.433-32.01.001 64.02c0 8.271-6.739 15-15.01 15-8.289 0-15.01-6.708-15.01-15v-64.02l-55.433 32.01c-7.178 4.145-16.344 1.689-20.49-5.491-4.135-7.163-1.672-16.355 5.49-20.491l70.443-40.668v-25.799l-66.875-102.541h-23.125c-8.271 0-15-6.729-15-15s6.729-15 15-15v-30h-45c-8.271 0-15-6.729-15-15s6.729-15 15-15h15v-30h-45c-8.271 0-15-6.729-15-15s6.729-15 15-15h15v-30h-46c-8.271 0-15-6.729-15-15s6.729-15 15-15h52.507l95.515 159.191 47.978-47.978v-66.213c0-8.271 6.729-15 15-15s15 6.729 15 15v66.213l47.978 47.978 95.515-159.191h52.507c8.271 0 15 6.729 15 15s-6.729 15-15 15z"/><path d="m241 195h30v30h-30z" transform="matrix(.707 -.707 .707 .707 -73.512 242.527)"/><path d="m241 255h30v30h-30z" transform="matrix(.707 -.707 .707 .707 -115.938 260.101)"/></g></svg>