<svg id="Layer_1" enable-background="new 0 0 512 512" height="512" viewBox="0 0 512 512" width="512" xmlns="http://www.w3.org/2000/svg"><path d="m511.836 202.886c-3.003-20.569-9.373-41.689-9.38-61.788.007-20.099 6.377-41.217 9.38-61.787.644-4.317-.625-8.7-3.474-12.006-2.849-3.305-6.998-5.207-11.362-5.207h-155.313c-6.586-16.392-22.635-28-41.353-28h-88.667c-18.719 0-34.767 11.608-41.353 28h-155.314c-4.364 0-8.513 1.901-11.362 5.207-2.85 3.306-4.118 7.688-3.474 12.006 3.003 20.567 9.373 41.691 9.38 61.787-.007 20.101-6.378 41.216-9.38 61.788-.721 4.832.957 9.713 4.497 13.08 3.538 3.378 8.547 4.8 13.287 3.84l165.155-33.101c1.761 1.475 3.635 2.818 5.611 4.01l-35.574 258.337c-.832 6.042 2.078 11.986 7.36 15.036 17.874 10.319 35.344 13.813 52.478 13.813 18.279-.001 36.175-3.978 53.76-7.886 25.273-5.617 49.144-10.925 73.38-4.429 4.856 1.299 10.039.083 13.806-3.241 3.769-3.325 5.622-8.316 4.936-13.295-.071-.517-.142-1.033-.213-1.55 22.002 2.539 44.701 3.1 67.115-2.913 4.255-1.141 7.794-4.094 9.678-8.076 1.883-3.982 1.921-8.592.103-12.604l-107.266-236.696c.208-.168.415-.335.62-.507l165.155 33.102c4.74.96 9.749-.462 13.287-3.84 3.54-3.367 5.218-8.248 4.497-13.08zm-217.312-5.788c5.728 41.738 21.59 160.107 24.135 179h-125.19l24.649-179zm-97.413-118.444c0-8.026 6.53-14.556 14.556-14.556h88.667c8.026 0 14.556 6.529 14.556 14.556v73.889c0 8.026-6.53 14.556-14.556 14.556h-88.667c-8.026 0-14.556-6.529-14.556-14.556zm-163.514 16.751c-.222-1.111-.442-2.213-.66-3.307h134.173v60.444c0 2.267.173 4.494.501 6.671l-133.865 26.83c7.6-33.257 7.424-57.461-.149-90.638zm226.632 345.326c-27.661 6.147-51.962 11.552-75.897 1.726l5.007-36.358h133.376c1.21 8.921 2.428 17.873 3.656 26.854-23.131-1.778-44.914 3.059-66.142 7.778zm94.208-23.985c-4.646-34.117-17.152-127.435-18.974-141l64.81 143.012c-14.44 1.365-29.343.107-45.836-2.012zm123.967-321.341c-7.579 33.199-7.743 57.403-.15 90.639l-133.865-26.83c.328-2.177.501-4.404.501-6.671v-60.445h134.174c-.218 1.094-.438 2.196-.66 3.307z"/></svg>