<svg id="Capa_1" enable-background="new 0 0 511.573 511.573" height="512" viewBox="0 0 511.573 511.573" width="512" xmlns="http://www.w3.org/2000/svg"><g><path d="m31.756 365.807-22.752 45.105 58.377 31.905 74.204-37.271h69.201v-15c0-24.813 20.187-45 45-45s45 20.187 45 45v15h69.201l74.204 37.271 58.377-31.905-22.751-45.105 31.756-35.261-31.756-35.261 22.751-45.105-42.242-23.087 7.724-50.083-50.706-8.066-8.072-49.654-49.756 7.674-23.038-44.764-44.872 22.634-35.821-36.076-35.821 36.076-44.872-22.634-23.038 44.764-49.756-7.674-8.071 49.654-50.706 8.066 7.724 50.083-42.241 23.086 22.751 45.105-31.755 35.261zm297.524 9.738c-6.969-34.191-37.274-60-73.493-60s-66.524 25.809-73.493 60h-30.438c7.3-50.817 51.126-90 103.932-90s96.631 39.183 103.932 90zm-136.345-129.064c18.067-13.584 39.907-20.936 62.852-20.936s44.785 7.352 62.852 20.936l-17.064 17.064c-14.304-5.173-29.721-8-45.788-8s-31.484 2.827-45.787 8zm216.542-48.412 24.374 3.877-6.381 41.377 35.242 19.261-18.926 37.521 27.415 30.441-27.415 30.441 18.926 37.521-19.107 10.442-53.077-26.66c-2.649-43.691-26.169-81.835-60.7-104.572zm-48.474-40.981 23.434-3.614 3.804 23.404-48.226 48.226c-3.223-2.586-6.544-5.017-9.959-7.28zm-62.093-22.338 24.512-12.364 10.85 21.083-30.924 60.692c-4.49-1.692-9.073-3.142-13.734-4.343zm-43.123-23.416 14.131 14.231-10.007 70.048c-1.372-.041-2.746-.069-4.124-.069s-2.752.028-4.123.069l-10.007-70.048zm-67.636 11.051 24.512 12.365 9.296 65.067c-4.661 1.201-9.244 2.651-13.734 4.343l-30.924-60.692zm-61.014 31.089 23.434 3.614 30.947 60.736c-3.415 2.263-6.736 4.693-9.959 7.28l-48.226-48.226zm-78.275 109.109 35.242-19.261-6.381-41.377 24.374-3.877 79.65 79.649c-34.531 22.737-58.051 60.88-60.7 104.572l-53.077 26.66-19.107-10.442 18.926-37.521-27.415-30.441 27.415-30.441z"/></g></svg>