<svg id="Layer_1" enable-background="new 0 0 511.716 511.716" height="512" viewBox="0 0 511.716 511.716" width="512" xmlns="http://www.w3.org/2000/svg"><g><path d="m284.845 149.712c24.813 0 45.001-20.187 45.001-45-2.262-59.616-87.748-59.601-90.001.001 0 24.812 20.186 44.999 45 44.999zm0-60c8.271 0 15.001 6.729 15.001 15-.754 19.872-29.251 19.867-30.001 0 0-8.272 6.728-15 15-15z"/><path d="m497.345 173.555s-.999-95.876-1-95.951c-.049-4.728-2.75-9.754-6.679-12.373-37.636-25.092-78.358-35.229-127.579-31.654-47.839-54.168-141.166-40.597-171.513 24.885-28.901 8.225-51.285 15.188-69.143 24.614-1.616-.346-3.241-.668-4.882-.937-38.438-6.288-77.475 9.854-99.452 41.13-2.634 3.748-3.41 8.494-2.109 12.886 7.435 25.088 24.711 45.999 47.199 58.716-3.544 37.49-3.843 88.62-3.843 150.786-1.87 88.998 77.063 167.902 166.058 166.003 0 0 228.168.057 228.93.057 5.322 0 10.479-2.84 13.196-7.847 3.952-7.28 1.255-16.387-6.026-20.339l-63.444-34.442c27.066-26.218 30.969-53.563 29.629-89.877h30.659c4.884 0 9.461-2.377 12.271-6.372 2.809-3.995 3.497-9.107 1.845-13.702l-33.774-93.947s-.047-43.278-.118-45.433c0 0 46.218-10.946 46.229-10.949 7.606-1.395 13.675-7.201 13.546-15.254zm-56.816-66.986c1.048-3.287 3.289-5.326 6.66-6.061l19.349-4.217.479 46.045-24.567-26.969c-2.322-2.551-2.969-5.511-1.921-8.798zm-394.264 28.089c15.916-18.035 40.82-26.939 65.439-22.913 24.621 4.029 45.386 20.409 54.723 42.576-15.916 18.034-40.821 26.936-65.439 22.913-24.622-4.03-45.387-20.41-54.723-42.576zm42.405 142.391c19.627-2.969 37.837 12.798 37.675 32.663.174 19.986-18.287 35.804-38 32.618.004-23.454.059-45.281.325-65.281zm135.723 204.611h-.042c-62.911 1.183-121.853-47.44-133.317-108.992 87.802-1.046 85.981-127.257-1.738-125.812.446-15.012 1.099-28.692 2.052-40.934 1.588.338 3.183.654 4.795.917 37.74 6.337 77.555-9.726 99.452-41.13 2.634-3.748 3.41-8.494 2.109-12.886-6.454-21.779-20.323-40.413-38.58-53.269 13.009-4.606 28.38-9.061 46.356-14.134 4.464-1.261 8.094-4.515 9.833-8.815 20.563-53.053 94.121-63.364 128.558-18.164 3.169 4.043 8.191 6.188 13.302 5.671 30.464-3.055 56.392-.575 80.282 7.984-12.165 3.769-21.574 13.031-25.506 25.359-4.285 13.438-1.174 27.686 8.326 38.115l28.004 30.742c.021.023.044.042.065.064l-179.755 42.574c-67.369 14.11-96.864 98.809-61.643 155.607-37.368 30.133-15.947 91.098 32.15 91.154 21.596 0 40.103-13.435 47.635-32.381l107.347 58.276zm1.76-94.04c5.445 4.802 11.46 9.046 18.019 12.607l15.734 8.542c-1.996 9.66-10.568 16.944-20.811 16.944-20.189-.038-28.912-25.804-12.942-38.093zm182.418-134.741 27.442 76.333h-24.327c-8.284 0-15 6.716-15 15v36c0 21.478-10.442 41.217-28.084 53.429l-110.118-59.78c-52.377-28-49.732-118.69 17.019-135.72l132.184-31.307v40.97c0 1.73.298 3.447.884 5.075z"/><path d="m223.345 197.212c8.284 0 15-6.716 15-15v-1c-.738-19.881-29.269-19.866-30 0v1c0 8.284 6.716 15 15 15z"/></g></svg>