<svg id="Capa_1" enable-background="new 0 0 512 512" height="512" viewBox="0 0 512 512" width="512" xmlns="http://www.w3.org/2000/svg"><g><path d="m61 512h390c0-6.491 0-143.506 0-150h-91.44c54.885-34.717 91.44-96.144 91.44-166 0-108.075-87.477-196-195-196s-195 87.925-195 196c0 69.856 36.555 131.283 91.44 166h-91.44zm30-316c0-91.533 74.019-166 165-166s165 74.467 165 166-74.019 166-165 166-165-74.467-165-166zm0 196h330v30h-330zm0 60h330v30h-330z"/><path d="m241 271h30v-32.58c1.5-.532 2.967-1.136 4.389-1.817l23.038 23.037 21.213-21.213-23.037-23.037c.682-1.423 1.286-2.89 1.818-4.39h32.579v-30h-32.58c-.532-1.5-1.135-2.967-1.818-4.39l23.037-23.037-21.213-21.213-23.038 23.037c-1.423-.682-2.889-1.285-4.389-1.817v-32.58h-30v32.58c-1.5.532-2.966 1.136-4.389 1.817l-23.037-23.037-21.213 21.213 23.037 23.037c-.682 1.423-1.286 2.889-1.818 4.39h-32.579v30h32.58c.532 1.5 1.135 2.967 1.818 4.39l-23.037 23.037 21.213 21.213 23.037-23.037c1.422.682 2.889 1.285 4.389 1.817zm15-90c8.271 0 15 6.729 15 15s-6.729 15-15 15-15-6.729-15-15 6.729-15 15-15z"/><path d="m241 61h30v30h-30z"/><path d="m241 301h30v30h-30z"/><path d="m121 181h30v30h-30z"/><path d="m361 181h30v30h-30z"/><path d="m137.077 121h30v30h-30z" transform="matrix(.5 -.866 .866 .5 -41.741 199.702)"/><path d="m344.923 241h30v30h-30z" transform="matrix(.5 -.866 .866 .5 -41.742 439.7)"/><path d="m181 284.923h30v30h-30z" transform="matrix(.5 -.866 .866 .5 -161.741 319.701)"/><path d="m301 77.077h30v30h-30z" transform="matrix(.5 -.866 .866 .5 78.258 319.701)"/><path d="m344.923 121h30v30h-30z" transform="matrix(.866 -.5 .5 .866 -19.779 198.184)"/><path d="m137.077 241h30v30h-30z" transform="matrix(.866 -.5 .5 .866 -107.626 110.337)"/><path d="m301 284.923h30v30h-30z" transform="matrix(.866 -.5 .5 .866 -107.626 198.184)"/><path d="m181 77.077h30v30h-30z" transform="matrix(.866 -.5 .5 .866 -19.78 110.337)"/></g></svg>