<svg id="Layer_1" enable-background="new 0 0 512.003 512.003" height="512" viewBox="0 0 512.003 512.003" width="512" xmlns="http://www.w3.org/2000/svg"><g><path d="m509.998 413.004c-2.677-4.643-7.627-7.504-12.986-7.507l-33.614-.019c-9.905-.006-18.253-2.254-27.064-7.289l-2.47-1.411c16.85-17.475 26.462-40.801 26.462-65.745v-21h30.659c4.884 0 9.461-2.377 12.271-6.372 2.809-3.995 3.497-9.107 1.845-13.702l-33.774-93.947v-38.979c0-5.428-.233-10.905-.679-16.297 8.558-3.234 17.351-5.016 26.355-5.016 8.284 0 15-6.716 15-15v-3.709c0-17.273-8.163-40.835-47.049-54.988-31.773-11.563-81.398-14.866-132.748-8.837-11.691 1.373-40.073 5.337-65.086 13.704-.544-.601-1.129-1.175-1.784-1.695-28.385-22.555-63.94-34.976-100.116-34.976h-150.217c-8.284 0-15 6.716-15 15 0 25.797 13.201 49.548 34.124 63.414-6.062 6.548-15.897 14.902-26.626 21.096-5.879 3.394-8.746 10.314-6.989 16.872 4.68 17.469 22.06 30.347 39.54 36.92l-.001 126.26c0 94.843 77.16 172.003 172.003 172.003 0 0 213.184-.036 213.524-.036 7.998 0 16.058-1.051 24.001-3.175 23.779-6.356 43.634-21.548 55.905-42.776l4.505-7.794c2.682-4.639 2.685-10.357.009-14.999zm-67.788-209.304 27.442 76.333h-24.327c-8.284 0-15 6.716-15 15v36c0 19.652-8.741 37.851-23.741 50.159l-83.237-47.558c3.209-6.07 6.711-12.932 10.52-20.396 23.082-45.237 60.666-118.877 107.458-155.452v40.84c0 1.729.299 3.446.885 5.074zm-191.707 109.019c16.817 0 30.5 13.683 30.5 30.5-1.534 40.407-59.472 40.396-61 0 0-16.817 13.683-30.5 30.5-30.5zm193.101-225.918c13.765 3.567 29.606 9.842 35.761 20.492-41.749 8.285-71.277 35.567-100.206 71.793-30.487 39.132-54.489 86.171-72.015 120.517-1.977 3.875-3.87 7.584-5.672 11.085-11.209-17.691-31.984-29.196-54.273-27.875-4.796-58.013 50.91-113.777 5.328-175.838 29.596-25.042 151.277-33.767 191.077-20.174zm-373.553 222.98.001-137.428c0-7.079-4.949-13.194-11.873-14.671-8.842-1.884-17.031-6.182-22.415-10.693 14.584-10.671 31.507-26.658 34.081-41.99 1.196-7.127-2.858-14.094-9.646-16.573-13.186-4.815-23.212-15.37-27.665-28.206h132.686c25.708 0 50.161 7.305 71.422 21.225-3.207 2.328-5.998 4.829-8.251 7.514-7.948 9.473-9.211 21.16-3.378 31.263.396.686.845 1.338 1.344 1.952 40.449 50.248-22.198 113.197-7.997 169.829-56.565 36.578-21.4 123.878 45.292 110.262l85.659 49.521h-137.257c-78.301-.002-142.003-63.704-142.003-142.005zm371.781 139.81c-16.039 4.289-32.74 2.1-47.029-6.162l-100.77-58.256c6.788-7.041 11.884-15.714 14.642-25.37l112.776 64.435c13.406 7.659 26.729 11.23 41.931 11.24l4.34.002c-7.261 6.641-16.079 11.488-25.89 14.111z"/><path d="m205.743 155.219c0-24.813-20.187-45-45-45-59.617 2.262-59.6 87.748.001 90.001 24.812 0 44.999-20.187 44.999-45.001zm-45 15.001c-8.271 0-15-6.729-15-15.001.753-19.872 29.25-19.867 30 0 0 8.272-6.729 15.001-15 15.001z"/></g></svg>