<svg id="Capa_1" enable-background="new 0 0 511.83 511.83" height="512" viewBox="0 0 511.83 511.83" width="512" xmlns="http://www.w3.org/2000/svg"><g><path d="m240.915 240.83h30v30h-30z"/><path d="m67.779 270.83h89.511c7.923 12.519 25.644 36.074 53.624 49.649v191.351h90v-191.351c27.98-13.575 45.702-37.13 53.624-49.649h89.511l62.812-96.538-90.847-34.782-5.007-97.148-94.45 25.396-60.642-67.758-60.644 67.757-94.45-25.396-5.007 97.148-90.846 34.783zm203.136 211h-30v-152.083c4.8.7 9.798 1.083 15 1.083s10.2-.383 15-1.083zm-15-181c-38.698 0-63.387-31.002-72.558-44.998 9.188-14.021 33.871-45.002 72.558-45.002 38.683 0 63.367 30.978 72.557 45-9.19 14.022-33.875 45-72.557 45zm205.56-111.791-33.696 51.791h-73.24c-3.933-6.215-10.285-15.149-19.105-24.233l68.338-49.65zm-138.186-92.026 59.668-16.043 3.181 61.706-74.755 54.313c-5.419-3.391-11.304-6.451-17.663-8.972zm-67.374-52.03 38.69 43.229-30.207 92.967c-2.768-.224-5.592-.35-8.484-.35s-5.716.126-8.484.35l-30.207-92.967zm-127.043 35.986 59.668 16.043 29.569 91.003c-6.36 2.521-12.244 5.581-17.663 8.972l-74.755-54.313zm-20.815 85.977 68.338 49.65c-8.82 9.084-15.171 18.019-19.105 24.233h-73.24l-33.696-51.791z"/></g></svg>