<svg id="Layer_1" enable-background="new 0 0 511.967 511.967" height="512" viewBox="0 0 511.967 511.967" width="512" xmlns="http://www.w3.org/2000/svg"><g><path d="m338.484 60v-15c0-24.813-20.187-45-45-45h-241c-8.284 0-15 6.716-15 15v.997c0 40.806 33.197 74.003 74.002 74.003h51.899c-31.014 24.948-50.902 63.194-50.902 106.003l.204 268.058c-.115 41.994 51.072 63.567 80.953 34.711 17.728 17.553 48.871 17.47 66.507-.157 30.122 29.171 81.79 7.406 81.669-34.947v-125.668h117.667c8.284 0 15-6.716 15-15v-126.997c.001-74.991-61.009-136.001-135.999-136.003zm-60-30h15c8.271 0 15 6.729 15 15v15h-30zm-208.716 0h178.716v30h-136.998c-19.37 0-35.857-12.58-41.718-30zm178.718 60h89.994c58.45 0 106.003 47.553 106.003 106.003v51.996h-302v-51.996c.001-58.45 47.553-106.003 106.003-106.003zm-3.341 335.999h-36.578v-87.999h36.578zm-66.666 0h-35.791v-87.999h35.791zm-17.852 56.001c-9.892 0-17.939-8.048-17.939-17.939v-8.062h35.791v7.668c0 .476.022.946.036 1.418-.536 9.414-8.342 16.915-17.888 16.915zm66.185 0c-9.675 0-17.603-7.537-18.268-17.046.006-.298.023-.594.023-.894v-8.062h36.578v7.668c0 10.11-8.224 18.334-18.333 18.334zm66.672 0c-10.109 0-18.333-8.224-18.333-18.333v-7.668h36.666v7.668c0 10.109-8.224 18.333-18.333 18.333zm18.333-56.001h-36.666v-87.999h36.666zm-169.333-117.999v-30.001h302v30.001z"/><path d="m187.484 217.999h1c19.881-.738 19.866-29.269 0-30h-1c-19.881.738-19.866 29.269 0 30z"/><path d="m257.817 217.999h1c19.881-.738 19.866-29.269 0-30h-1c-19.881.738-19.866 29.269 0 30z"/><path d="m328.151 217.999h1c19.881-.738 19.866-29.269 0-30h-1c-19.881.738-19.866 29.269 0 30z"/><path d="m398.484 217.999h1c19.881-.738 19.866-29.269 0-30h-1c-19.881.738-19.866 29.269 0 30z"/></g></svg>