<svg id="Capa_1" enable-background="new 0 0 512 512" height="512" viewBox="0 0 512 512" width="512" xmlns="http://www.w3.org/2000/svg"><g><path d="m467 151c-19.556 0-36.239 12.539-42.43 30h-155.077c-6.041-29.637-29.62-52.962-59.38-58.654-6.714-51.47-50.843-91.346-104.113-91.346h-106v15c0 29.354 12.228 55.927 31.897 75h-31.897v75c0 31.693 19.77 58.838 47.618 69.801-29.337 22.4-47.618 56.775-47.618 95.199 0 66.201 54.71 120 121 120 29.398 0 57.252-10.608 79.111-30h236.889c41.355 0 75-33.645 75-75 0-14.095 0-30.95 0-45h-30v30h-30v-30h-30v30h-30v-30h-30v30h-30v-30h-30v30h-46.041c9.438-12.544 15.041-28.129 15.041-45 0-19.282 13.168-36.188 31-42.431v27.431h30v-30h30v30h30v-30h30v30h30v-30h30v30h30c0-10.292 0-92.638 0-105 0-24.813-20.187-45-45-45zm-435.473-90h74.473c36.219 0 66.522 25.808 73.491 60h-73.491c-36.702 0-67.411-25.809-74.473-60zm-1.527 89.99h106.041c-6.565 8.726-11.274 18.931-13.532 30.01h-92.509zm2.58 60.01h89.929c2.258 11.079 6.967 21.274 13.532 30h-61.041c-19.555 0-36.228-12.542-42.42-30zm446.85 180c-6.191 17.461-22.874 30-42.43 30h-248.943l-4.378 4.309c-16.834 16.567-39.094 25.691-62.679 25.691-50.178 0-91-40.374-91-90 0-39.234 25.518-72.679 61-84.969v114.969zm-238.43-75c0 24.813-20.187 45-45 45h-75v-30h75v-30h-75v-30.01h135.353c-9.959 12.947-15.353 28.592-15.353 45.01zm241-75h-286c-24.813 0-45-20.187-45-45s20.187-45 45-45 45 20.187 45 45v15h211v-15c0-8.271 6.729-15 15-15s15 6.729 15 15z"/><path d="m181 181h30v30h-30z"/></g></svg>