<svg id="Layer_1" enable-background="new 0 0 512 512" height="512" viewBox="0 0 512 512" width="512" xmlns="http://www.w3.org/2000/svg"><g><path d="m504.989 70.344c-4.363-2.746-9.832-3.059-14.48-.827l-104.727 50.27s-2.555-30.665-3.339-40.002c-.652-7.771-7.149-13.745-14.947-13.745h-59.997c-7.802 0-14.301 5.98-14.948 13.756l-3.852 46.244h-65.395s-3.076-36.917-3.86-46.255c-.652-7.771-7.149-13.745-14.947-13.745h-59.997c-7.802 0-14.301 5.98-14.948 13.756l-3.331 39.991-104.73-50.27c-4.649-2.231-10.117-1.919-14.48.827s-7.011 7.541-7.011 12.696v202.001c0 5.373 2.875 10.337 7.535 13.011l52.465 30.101v10.887c0 8.284 6.716 15 15 15h52.133c41.906 122.599 215.875 122.522 257.733 0h52.134c8.284 0 15-6.716 15-15v-10.887l52.465-30.101c4.661-2.674 7.535-7.638 7.535-13.011v-202.001c0-5.155-2.648-9.95-7.011-12.696zm-354.989 85.696h212v30h-212zm171.3-60h32.397c.397 4.752 2.5 30 2.5 30h-37.397zm-163 0h32.397c.397 4.752 2.5 30 2.5 30h-37.397zm-128.3 180.313v-169.474l90 43.2v74.961h-45c-8.284 0-15 6.716-15 15v53.526zm90 47.687h-30v-69h30v55.5.039zm136 92.5c-58.436 0-105.979-47.531-106-105.961v-94.539h212v94.5c0 58.448-47.552 106-106 106zm166-92.5h-30v-69h30zm60-47.687-30 17.212v-53.525c0-8.284-6.716-15-15-15h-45v-25.75c0-.003 0-.006 0-.01v-49.201l90-43.201z"/><path d="m230 271.04c0-8.284-6.716-15-15-15h-20c-19.881.738-19.866 29.269 0 30h20c8.284 0 15-6.716 15-15z"/><path d="m317 256.04h-20c-19.881.738-19.866 29.269 0 30h20c19.881-.738 19.866-29.269 0-30z"/><path d="m302.201 333.432c-8.204-4.096-24.417-4.448-32.73-.715l-10.935 4.91c-1.225.55-2.812.971-5.301-.101l-11.43-4.908c-8.375-3.597-24.476-3.194-32.506.813-7.412 3.699-10.422 12.707-6.722 20.12 3.603 7.219 12.241 10.267 19.54 6.996 1.853-.464 6.404-.554 8.311-.166l10.969 4.71c9.537 4.099 19.992 4.139 29.431-.099l10.373-4.657c1.912-.363 6.355-.255 8.174.208 7.297 3.271 15.943.229 19.549-6.992 3.699-7.412.689-16.419-6.723-20.119z"/></g></svg>