<svg id="Capa_1" enable-background="new 0 0 511.979 511.979" height="512" viewBox="0 0 511.979 511.979" width="512" xmlns="http://www.w3.org/2000/svg"><g><path d="m269.979 93.646v63.5l-59.378 59.378 10.607 10.606-146.962 146.964-10.606-10.607-63.64 63.639 12.409 12.409c-7.838 16.371-5.312 37.114 8.804 51.23 14.1 14.1 34.839 16.652 51.231 8.805l12.409 12.409 63.64-63.64-10.607-10.606 146.961-146.962 10.607 10.607 59.379-59.378h63.5l93.646-93.5v-148.5h-148.5zm-185.125 375.907-10.607-10.607-10.607 10.607c-5.86 5.861-15.349 5.863-21.213 0-5.861-5.861-5.863-15.35 0-21.212l10.607-10.607-10.607-10.607 21.213-21.212 42.426 42.426zm31.819-53.033-21.213-21.213 146.961-146.961 21.214 21.213zm178.781-157.568-42.426-42.426 21.213-21.213 42.426 42.426zm37.901-46.952-33.375-33.375v-56.27l30 12.423v47.222h47.221l12.424 30zm26.624-60v-21.097l40.795-40.903h21.205v21.205l-40.903 40.795zm57.385 48.574-12.425-30.003 35.546-35.452 29.995 12.422zm64.615-80.742-30-12.423v-26.196l30-30zm-21.212-89.832-30 30h-26.196l-12.424-30zm-83.906 41.494-35.452 35.546-30.003-12.425 53.033-53.115z"/></g></svg>