<svg id="Layer_1" enable-background="new 0 0 512.038 512.038" height="512" viewBox="0 0 512.038 512.038" width="512" xmlns="http://www.w3.org/2000/svg"><g><path d="m511.293 455.721-42.067-132.188c-1.98-6.225-7.762-10.451-14.293-10.451h-67.293l-38.741-121.737c-1.98-6.225-7.762-10.451-14.293-10.451h-157.236c-6.533 0-12.314 4.229-14.294 10.454l-38.717 121.734h-67.317c-6.533 0-12.314 4.229-14.294 10.454l-42.042 132.188c-1.45 4.56-.638 9.538 2.187 13.4s7.323 6.146 12.108 6.146h482c9.9.214 17.499-10.181 14.292-19.549zm-322.954-244.829h135.298l32.52 102.188h-200.319zm67.657 198.816-21.203-66.627h42.394zm-220.485 35.561 32.501-102.188h135.298l32.52 102.188zm240.655 0 32.501-102.188h135.298l32.52 102.188z"/><path d="m354.256 146.273c1.914 0 3.859-.368 5.737-1.146l32.575-13.5c18.084-8.293 7.145-34.647-11.485-27.715l-32.575 13.5c-7.653 3.172-11.286 11.947-8.114 19.601 2.392 5.774 7.977 9.26 13.862 9.26z"/><path d="m119.433 131.627 32.575 13.5c7.461 3.148 16.429-.384 19.6-8.114 3.172-7.653-.461-16.429-8.114-19.601l-32.575-13.5c-7.651-3.172-16.428.462-19.6 8.114-3.173 7.654.46 16.429 8.114 19.601z"/><path d="m199.448 89.868c2.385 7.999 11 12.402 18.711 9.994 7.927-2.407 12.401-10.784 9.994-18.711l-10.247-33.74c-2.407-7.927-10.783-12.402-18.711-9.994-7.927 2.407-12.401 10.784-9.994 18.711z"/><path d="m293.841 99.862c7.712 2.407 16.327-1.995 18.711-9.994l10.247-33.74c2.407-7.927-2.067-16.304-9.994-18.711-7.927-2.409-16.304 2.066-18.711 9.994l-10.247 33.74c-2.408 7.927 2.067 16.304 9.994 18.711z"/></g></svg>