<svg id="Capa_1" enable-background="new 0 0 512 512" height="512" viewBox="0 0 512 512" width="512" xmlns="http://www.w3.org/2000/svg"><g><path d="m481 316h-30v-60h-30v-60h-30v-60h-60v-60h30v-30h-210v30h30v60h-60v60h-30v60h-30v60h-30v60h-31v90h512v-90h-31zm-60-30v30h-69.84l-9-30zm-30-30h-57.84l-9-30h66.84zm-62.16 90 9 30h-163.68l9-30zm-136.68-30 9-30h109.68l9 30zm168.84-150v30h-45.84l-9-30zm-150-90h90v60h-30v-30h-30v30h-30zm72.84 120h-55.68l9-30h37.68zm-64.68 30h73.68l9 30h-91.68zm-68.16-60h54.84l-9 30h-45.84zm-30 60h66.84l-9 30h-57.84zm-30 60h78.84l-9 30h-69.84zm33.84 150h-94.84v-30h103.84zm18-60h-81.84v-30h90.84zm13.32 60 9-30h181.68l9 30zm204-90h90.84v30h-81.84zm121.84 60v30h-94.84l-9-30z"/></g></svg>