<svg id="Layer_1" enable-background="new 0 0 512.012 512.012" height="512" viewBox="0 0 512.012 512.012" width="512" xmlns="http://www.w3.org/2000/svg"><path d="m446.006 0h-27c-24.813 0-45 20.187-45 45v297.314c-6.836 7.004-14.285 13.333-22.241 18.935-11.416-118.388-180.162-118.301-191.535 0-7.949-5.597-15.393-11.921-22.224-18.917v-297.332c0-24.813-20.187-45-45-45h-27c-59.631 2.27-59.587 87.753 0 90.001h42s-.008 257.621-.002 258.407c.324 43.444 15.644 84.313 43.138 115.077 27.96 31.286 65.198 48.515 104.855 48.515 84.086 1.138 149.301-80.612 147.993-163.592.006-.765.016-258.407.016-258.407h42c59.631-2.269 59.587-87.753 0-90.001zm-380 60.001c-19.877-.757-19.863-29.252 0-30.001h27c8.271 0 15 6.729 15 15v15.001zm123.992 307.863c0-36.393 29.607-66 66-66 40.092-.359 71.765 36.804 65.193 76.31-40.349 17.414-90.019 17.417-130.37.007-.537-3.396-.823-6.858-.823-10.317zm65.999 114.136c-53.097 0-98.348-40.66-113.007-96.191 64.47 46.983 161.545 46.981 226.014 0-14.658 55.531-59.909 96.191-113.007 96.191zm190.009-421.999h-42v-15.001c0-8.271 6.729-15 15-15h27c19.877.756 19.863 29.252 0 30.001z"/></svg>