<svg id="Layer_1" enable-background="new 0 0 511.818 511.818" height="512" viewBox="0 0 511.818 511.818" width="512" xmlns="http://www.w3.org/2000/svg"><path d="m294.99 29.449-29.163-25.702c-5.668-4.996-14.168-4.996-19.836 0l-29.163 25.701c-55.691 49.082-74.882 123.036-50.083 193.005l26.003 73.365h-3.839c-16.917.307-20.656 23.358-5 29.128v171.872c0 8.284 6.716 15 15 15h114c8.284 0 15-6.716 15-15v-171.871c15.666-5.778 11.905-28.826-5-29.128h-3.839l26.003-73.365c24.799-69.97 5.609-143.924-50.083-193.005zm-81.081 296.613c.053.001.105.006.158.006h83.684c.053 0 .105-.006.158-.006v29.756h-84zm42 96.62c-15.667 0-30.169 5.045-42 13.574v-50.438h84v50.438c-11.831-8.529-26.333-13.574-42-13.574zm39.977 59.136h-79.955c12.633-38.618 67.338-38.593 79.955 0zm20.912-269.386-29.556 83.387h-62.666l-29.555-83.387c-20.62-58.177-4.663-119.667 41.643-160.477l19.245-16.961 19.245 16.961c46.306 40.81 62.263 102.3 41.644 160.477z"/></svg>