<svg id="Capa_1" enable-background="new 0 0 511.906 511.906" height="512" viewBox="0 0 511.906 511.906" width="512" xmlns="http://www.w3.org/2000/svg"><g><path d="m255.953 211c-24.813 0-45 20.187-45 45s20.187 45 45 45 45-20.187 45-45-20.186-45-45-45zm0 60c-8.271 0-15-6.729-15-15s6.729-15 15-15 15 6.729 15 15-6.728 15-15 15z"/><path d="m405.953 61h-36.213l-38.787 38.788v-23.788c0-41.458-33.534-76-75-76-41.456 0-75 34.533-75 76v23.787l-38.787-38.787h-36.213c-41.355 0-75 33.645-75 75v15h73.943l13.693 13.693c-17.449 26.165-27.636 57.567-27.636 91.307s10.187 65.142 27.636 91.307l-13.701 13.701c-40.866.572-73.935 33.993-73.935 74.992v15h111.213l45.028-45.027c3.076 1.416 6.203 2.739 9.377 3.967l59.383 101.966 59.383-101.966c3.174-1.229 6.301-2.552 9.377-3.968l45.026 45.028h111.213v-15c0-40.999-33.07-74.42-73.936-74.993l-13.701-13.701c17.449-26.165 27.636-57.566 27.636-91.307s-10.187-65.142-27.636-91.307l13.694-13.692h73.943v-15c0-41.355-33.644-75-75-75zm-69.956 86.36c10.898 8.051 20.546 17.699 28.596 28.597l-26.179 15.114c-5.135-6.508-11.023-12.396-17.532-17.532zm23.88 93.64c-1.199-8.344-3.38-16.375-6.426-23.97l26.181-15.116c5.355 12.199 8.956 25.333 10.483 39.085h-30.238zm30.238 30c-1.527 13.753-5.128 26.887-10.483 39.085l-26.181-15.116c3.047-7.595 5.228-15.625 6.426-23.97h30.238zm-80.076-138.679-15.116 26.181c-7.595-3.046-15.625-5.228-23.97-6.426v-30.238c13.753 1.527 26.887 5.128 39.086 10.483zm-99.086-56.321c0-24.935 20.607-46 45-46s45 21.065 45 46v21.238c-14.31-4.062-29.406-6.238-45-6.238s-30.69 2.176-45 6.238zm30 45.838v30.238c-8.344 1.199-16.375 3.38-23.97 6.426l-15.116-26.181c12.199-5.355 25.333-8.956 39.086-10.483zm-65.044 25.522 15.115 26.179c-6.508 5.136-12.396 11.024-17.532 17.532l-26.179-15.115c8.051-10.898 17.698-20.545 28.596-28.596zm-23.88 93.64h-30.238c1.527-13.753 5.128-26.887 10.484-39.086l26.181 15.116c-3.047 7.595-5.228 15.626-6.427 23.97zm6.427 53.97-26.181 15.116c-5.355-12.198-8.956-25.333-10.484-39.085h30.238c1.199 8.343 3.38 16.374 6.427 23.969zm-41.134-173.97h-53.799c6.19-17.461 22.873-30 42.43-30h23.787l30.6 30.599c-8.188 5.841-15.814 12.417-22.799 19.62zm12.418 300h-66.217c6.19-17.461 22.873-30 42.43-30h11.369l20.219-20.219c6.984 7.203 14.611 13.778 22.799 19.62zm46.169-56.36c-10.898-8.051-20.546-17.698-28.596-28.596l26.179-15.115c5.135 6.508 11.024 12.396 17.532 17.532zm80.044 87.654-18.856-32.378c6.19.708 12.48 1.084 18.856 1.084s12.666-.376 18.856-1.084zm-54.085-72.615 15.116-26.181c7.595 3.046 15.625 5.228 23.97 6.426v30.238c-13.754-1.527-26.888-5.128-39.086-10.483zm69.085 10.483v-30.238c8.344-1.199 16.375-3.38 23.97-6.426l15.116 26.181c-12.199 5.355-25.333 8.956-39.086 10.483zm-15-59.162c-41.355 0-75-33.645-75-75s33.645-75 75-75 75 33.645 75 75-33.644 75-75 75zm80.044 33.64-15.115-26.179c6.509-5.136 12.396-11.024 17.532-17.532l26.179 15.114c-8.051 10.898-17.698 20.546-28.596 28.597zm58.587 26.36h11.369c19.557 0 36.239 12.539 42.43 30h-66.217l-30.599-30.6c8.187-5.841 15.814-12.417 22.798-19.619zm0-270-20.219 20.219c-6.984-7.203-14.611-13.778-22.798-19.619l30.599-30.6h23.787c19.557 0 36.239 12.539 42.43 30z"/></g></svg>