<svg id="Layer_1" enable-background="new 0 0 511.67 511.67" height="512" viewBox="0 0 511.67 511.67" width="512" xmlns="http://www.w3.org/2000/svg"><path d="m255.835.835c-141.067 0-255.835 114.768-255.835 255.835 12.862 338.934 498.859 338.841 511.67-.003 0-141.064-114.768-255.832-255.835-255.832zm225.104 237.691-64.494-14.206c-2.182-10.852-5.428-21.363-9.688-31.42l22.996-80.131c28.788 34.73 47.387 78.189 51.186 125.757zm-82.942 160.471-42.696-12.253c11.304-8.675 21.769-19.12 30.456-30.397zm-284.324-284.324 42.377 12.162c-11.205 8.649-21.588 19.044-30.207 30.245zm208.336 89.166c-3.885-4.84-8.285-9.245-13.122-13.134l-13.404-61.511-.082-.373c42.162 13.007 75.249 46.043 88.283 88.283 0 0-60.667-13.252-61.675-13.265zm-66.174 220.849-18.752-85.132c11.991 2.8 25.513 2.8 37.504 0zm0-336.036 10.344 46.961 8.388 38.497c-12.01-2.802-25.556-2.793-37.561.022zm-54.835 168.183c0-30.236 24.599-54.835 54.835-54.835 72.646 2.756 72.626 106.925-.001 109.67-30.235 0-54.834-24.599-54.834-54.835zm184.826-99.751c-4.569-5.931-9.57-11.587-14.984-16.932-4.84-4.778-9.927-9.217-15.23-13.314l42.385-12.164zm-65.927-51.209c-10.152-4.325-20.761-7.619-31.715-9.819l-14.205-64.49c47.654 3.807 91.183 22.468 125.944 51.344zm-96.412-9.824c-10.963 2.199-21.58 5.489-31.737 9.817l-80.003-22.96c34.762-28.875 78.291-47.537 125.944-51.344zm-7.226 32.802-13.566 61.591c-.028.127-.039.253-.064.38-4.709 3.802-9.002 8.095-12.804 12.803l-61.469 13.395-.324.071c13.091-41.837 46.46-75.165 88.227-88.24zm-43.12 109.114c-2.815 11.978-2.837 25.493-.058 37.484l-85.266-18.781zm16.51 71.851c3.864 4.816 8.237 9.203 13.044 13.078l13.561 61.566c-41.743-13.1-75.127-46.528-88.218-88.214zm-63.736 46.521c4.121 5.341 8.59 10.465 13.403 15.34 5.379 5.449 11.07 10.478 17.038 15.069l-42.684 12.25zm66.304 51.328c10.01 4.226 20.468 7.449 31.266 9.619l14.205 64.489c-47.52-3.796-90.94-22.36-125.653-51.097zm95.966 9.616c10.791-2.166 21.247-5.39 31.26-9.619l80.188 23.013c-34.713 28.737-78.133 47.301-125.653 51.097zm7.228-32.816 13.562-61.57c4.808-3.875 9.181-8.261 13.045-13.078l61.608-13.57c-13.1 41.742-46.528 75.127-88.215 88.218zm43.174-109.016c2.787-12.023 2.756-25.575-.081-37.58l85.346 18.799zm-256.672-162.682 22.993 80.12c-4.26 10.06-7.512 20.573-9.692 31.433l-64.486 14.204c3.8-47.568 22.399-91.027 51.185-125.757zm-51.185 162.046 64.491 14.205c2.188 10.899 5.453 21.457 9.745 31.562l-22.98 80.074c-28.826-34.745-47.453-78.236-51.256-125.841zm398.954 125.84-22.98-80.074c4.288-10.1 7.556-20.657 9.747-31.562l64.489-14.204c-3.804 47.605-22.43 91.096-51.256 125.84z"/></svg>