<svg id="Capa_1" enable-background="new 0 0 512 512" height="512" viewBox="0 0 512 512" width="512" xmlns="http://www.w3.org/2000/svg"><g><path d="m256 0c-140.957 0-256 115.048-256 256 0 140.957 115.049 256 256 256 140.959 0 256-115.049 256-256 0-140.959-115.049-256-256-256zm-15 30.51v30.49h30v-30.49c16.966 1.118 33.425 4.114 49.173 8.786l-64.173 73.838-64.173-73.838c15.748-4.672 32.207-7.669 49.173-8.786zm88.434 43.863-2.48 66.827c-12.458-7.728-26.258-13.489-40.966-16.838zm-103.422 49.989c-14.708 3.349-28.508 9.11-40.966 16.838l-2.48-66.827zm-139.992-17.13 21.488 21.488 21.213-21.213-21.489-21.487c13.544-11.868 28.512-22.145 44.612-30.542l3.714 100.081-100.081-3.714c8.398-16.101 18.674-31.069 30.543-44.613zm38.342 118.78-49.989-43.445 66.826 2.479c-7.727 12.458-13.488 26.258-16.837 40.966zm16.838 100.942-66.826 2.479 49.989-43.445c3.348 14.708 9.109 28.508 16.837 40.966zm-110.69-55.954h29.49v-30h-29.49c1.117-16.966 4.114-33.425 8.785-49.173l73.838 64.173-73.838 64.173c-4.671-15.748-7.668-32.207-8.785-49.173zm121.335 185.522c-16.1-8.397-31.069-18.674-44.612-30.542l21.488-21.488-21.213-21.213-21.488 21.489c-11.868-13.544-22.145-28.512-30.542-44.612l100.081-3.714zm119.155 24.968v-29.49h-30v29.49c-16.966-1.118-33.425-4.114-49.173-8.786l64.173-73.838 64.173 73.838c-15.748 4.672-32.207 7.669-49.173 8.786zm-88.434-43.863 2.48-66.827c12.458 7.728 26.258 13.489 40.966 16.838zm103.422-49.989c14.708-3.349 28.508-9.11 40.966-16.838l2.48 66.827zm-29.988-26.638c-57.897 0-105-47.103-105-105s47.103-105 105-105 105 47.103 105 105-47.103 105-105 105zm169.98 43.768-21.488-21.488-21.213 21.213 21.488 21.488c-13.544 11.868-28.512 22.145-44.612 30.542l-3.714-100.081 100.081 3.714c-8.397 16.1-18.673 31.068-30.542 44.612zm-38.342-118.78 49.989 43.445-66.826-2.479c7.727-12.458 13.488-26.258 16.837-40.966zm-16.838-100.942 66.826-2.479-49.989 43.445c-3.348-14.708-9.109-28.508-16.837-40.966zm110.69 55.954h-29.49v29.99h29.49c-1.117 16.976-4.114 33.435-8.785 49.183l-73.838-64.173 73.838-64.173c4.671 15.748 7.668 32.207 8.785 49.173zm-125.049-85.442 3.714-100.081c16.1 8.397 31.069 18.674 44.612 30.542l-21.488 21.488 21.213 21.213 21.488-21.488c11.868 13.544 22.145 28.512 30.542 44.612z"/><path d="m271 211v60h-30v-60h-60v30h30v60h90v-60h30v-30z"/></g></svg>